<ttFont>
        <CharString name=".notdef">
          -256 endchar
        </CharString>
        <CharString name="A">
          21 -21 175.5 65.5 317 83 hstem
          14 542 vstem
          556 hmoveto
          -214 641 rlineto
          -93 hlineto
          -235 -641 rlineto
          80 hlineto
          16 68 39 106 130 3 144 -3 36 -110 15 -64 rlineto
          -73 242 rmoveto
          -115 -2 -112 2 116 316 rlineto
          7 hlineto
          endchar
        </CharString>
        <CharString name="AE">
          386 0 65 493 83 -66 66 -8 8 hstemhm
          684 9 hintmask 10101000
          792 62 rmoveto
          -6 8 -164 -5 rlineto
          -113 hlineto
          -31 211 217 43 -4 58 -7 6 -215 -45 -35 237 rlineto
          97 hlineto
          162 -4 rlineto
          hintmask 10011000
          8 62 -6 8 rlineto
          hintmask 10101000
          -373 hlineto
          -338 -641 rlineto
          83 hlineto
          25 68 73 137 238 54 29 -195 5 -64 rlineto
          348 hlineto
          -392 322 rmoveto
          -188 -41 rlineto
          hintmask 11001000
          147 277 rlineto
          6 hlineto
          endchar
        </CharString>
        <CharString name="AEacute">
          386 0 65 493 83 -66 66 -8 8 hstemhm
          -15 807 hintmask 10101000
          428 724 rmoveto
          10 -4 64 27 62 27 69 32 rlinecurve
          2 8 -20 47 -9 2 -68 -40 -61 -32 -63 -31 rlinecurve
          378 -698 rmoveto
          -5 8 -164 -5 rlineto
          -113 hlineto
          -31 211 216 43 -5 58 -6 6 -214 -45 -35 237 rlineto
          97 hlineto
          162 -4 rlineto
          hintmask 10011000
          8 62 -6 8 rlineto
          hintmask 10101000
          -373 hlineto
          -338 -641 rlineto
          83 hlineto
          25 68 73 138 238 53 29 -195 5 -64 rlineto
          348 hlineto
          -392 322 rmoveto
          -188 -41 rlineto
          hintmask 11001000
          147 277 rlineto
          6 hlineto
          endchar
        </CharString>
        <CharString name="Aacute">
          21 -21 175.5 65.5 317 83 hstem
          14 543 vstem
          220 724 rmoveto
          10 -4 64 27 62 27 69 32 rlinecurve
          2 8 -20 47 -9 2 -68 -40 -61 -32 -63 -31 rlinecurve
          351 -760 rmoveto
          -214 641 rlineto
          -93 hlineto
          -236 -641 rlineto
          80 hlineto
          16 68 39 106 130 3 145 -3 36 -110 14 -64 rlineto
          -73 242 rmoveto
          -115 -2 -112 2 116 316 rlineto
          7 hlineto
          endchar
        </CharString>
        <CharString name="Abreve">
          21 -21 175.5 65.5 317 83 83 57 hstem
          14 543 vstem
          288 724 rmoveto
          62 46 32 58 21 hvcurveto
          -23 28 rlineto
          -12 hlineto
          -38 -15 -31 -23 -45 hhcurveto
          -47 -32 23 38 -14 hvcurveto
          -12 hlineto
          -22 -28 rlineto
          -58 18 44 -32 62 hhcurveto
          269 -724 rmoveto
          -214 641 rlineto
          -93 hlineto
          -236 -641 rlineto
          80 hlineto
          16 68 39 106 130 3 145 -3 36 -110 14 -64 rlineto
          -73 242 rmoveto
          -115 -2 -112 2 116 316 rlineto
          7 hlineto
          endchar
        </CharString>
        <CharString name="Abreveacute">
          21 -21 175.5 65.5 317 83 63 57 hstem
          14 543 vstem
          278 817 rmoveto
          7 hlineto
          34 33 32 32 32 33 -1 8 rcurveline
          -37 26 -7 -1 -29 -38 -29 -35 -30 -36 rlinecurve
          38 -135 rmoveto
          62 46 32 58 21 hvcurveto
          -23 28 rlineto
          -12 hlineto
          -38 -15 -31 -23 -45 hhcurveto
          -47 -32 23 38 -14 hvcurveto
          -12 hlineto
          -22 -28 rlineto
          -58 18 44 -32 62 hhcurveto
          269 -704 rmoveto
          -214 641 rlineto
          -93 hlineto
          -236 -641 rlineto
          80 hlineto
          16 68 39 106 130 3 145 -3 36 -110 14 -64 rlineto
          -73 242 rmoveto
          -115 -2 -112 2 116 316 rlineto
          7 hlineto
          endchar
        </CharString>
        <CharString name="Abrevedotbelow">
          -163 93 91 -21 175.5 65.5 317 83 82 58 hstem
          240 91 vstem
          288 723 rmoveto
          62 46 33 58 20 hvcurveto
          -22 27 rlineto
          -12 hlineto
          -38 -15 -32 -22 -44 hhcurveto
          -47 -33 22 38 -13 hvcurveto
          -13 hlineto
          -22 -27 rlineto
          -58 19 44 -33 62 hhcurveto
          269 -723 rmoveto
          -214 641 rlineto
          -93 hlineto
          -236 -641 rlineto
          80 hlineto
          16 68 39 106 130 3 145 -3 36 -110 14 -64 rlineto
          -73 242 rmoveto
          -115 -2 -112 2 116 316 rlineto
          7 hlineto
          -10 -628 rmoveto
          -29 -18 -19 -28 -29 16 -17 28 29 18 19 29 28 -17 17 -27 hvcurveto
          endchar
        </CharString>
        <CharString name="Abrevegrave">
          21 -21 175.5 65.5 317 83 63 57 hstem
          14 543 vstem
          300 817 rmoveto
          28 22 -31 36 -28 35 -29 38 rlinecurve
          -8 1 -37 -26 rlineto
          -8 vlineto
          32 -33 32 -32 33 -33 rrcurveto
          -4 -113 rmoveto
          62 46 32 58 21 hvcurveto
          -23 28 rlineto
          -12 hlineto
          -38 -15 -31 -23 -45 hhcurveto
          -47 -32 23 38 -14 hvcurveto
          -12 hlineto
          -22 -28 rlineto
          -58 18 44 -32 62 hhcurveto
          269 -704 rmoveto
          -214 641 rlineto
          -93 hlineto
          -236 -641 rlineto
          80 hlineto
          16 68 39 106 130 3 145 -3 36 -110 14 -64 rlineto
          -73 242 rmoveto
          -115 -2 -112 2 116 316 rlineto
          7 hlineto
          endchar
        </CharString>
        <CharString name="Abrevehookabove">
          21 -21 175.5 65.5 317 83 63 57 193 44 hstem
          305 49 vstem
          279 954 rmoveto
          16 10 -7 -14 -17 -18 -25 -32 -23 hvcurveto
          32 -55 35 19 -20 34 rlineto
          36 30 16 21 24 vvcurveto
          32 -27 25 -36 -29 -32 -16 -26 -25 vhcurveto
          16 -26 rlineto
          16 19 22 8 17 hhcurveto
          9 -250 rmoveto
          62 46 32 58 21 hvcurveto
          -23 28 rlineto
          -12 hlineto
          -38 -15 -31 -23 -45 hhcurveto
          -47 -32 23 38 -14 hvcurveto
          -12 hlineto
          -22 -28 rlineto
          -58 18 44 -32 62 hhcurveto
          269 -704 rmoveto
          -214 641 rlineto
          -93 hlineto
          -236 -641 rlineto
          80 hlineto
          16 68 39 106 130 3 145 -3 36 -110 14 -64 rlineto
          -73 242 rmoveto
          -115 -2 -112 2 116 316 rlineto
          7 hlineto
          endchar
        </CharString>
        <CharString name="Abrevetilde">
          21 -21 175.5 65.5 317 83 64 56 139 55 hstem
          14 543 vstem
          169 855 rmoveto
          8 hlineto
          24 23 15 21 15 hhcurveto
          24 82 -32 -4 39 hvcurveto
          9 3 57 67 rlineto
          8 vlineto
          -22 24 rlineto
          -8 hlineto
          -25 -24 -15 -20 -14 hhcurveto
          -24 -82 31 4 -40 hvcurveto
          -9 -2 -57 -67 rlineto
          -8 vlineto
          146 -118 rmoveto
          -45 -32 21 38 -13 hvcurveto
          -12 hlineto
          -22 -27 rlineto
          -57 18 43 -31 61 hhcurveto
          60 45 31 57 20 hvcurveto
          -21 27 rlineto
          -12 hlineto
          -38 -15 -31 -21 -44 hhcurveto
          265 -761 rmoveto
          -214 641 rlineto
          -93 hlineto
          -236 -641 rlineto
          80 hlineto
          16 68 39 106 130 3 145 -3 36 -110 14 -64 rlineto
          -73 242 rmoveto
          -115 -2 -112 2 116 316 rlineto
          7 hlineto
          endchar
        </CharString>
        <CharString name="Acaron">
          21 -21 175.5 65.5 317 83 hstem
          14 543 vstem
          303 723 rmoveto
          35 32 39 30 42 29 -16 34 rcurveline
          -10 hlineto
          -35 -22 -33 -21 -34 -23 -34 23 -33 21 -36 22 rrcurveto
          -9 hlineto
          -16 -34 41 -29 40 -30 36 -32 rlinecurve
          277 -723 rmoveto
          -214 641 rlineto
          -93 hlineto
          -236 -641 rlineto
          80 hlineto
          16 68 39 106 130 3 145 -3 36 -110 14 -64 rlineto
          -73 242 rmoveto
          -115 -2 -112 2 116 316 rlineto
          7 hlineto
          endchar
        </CharString>
        <CharString name="Acircumflex">
          21 -21 175.5 65.5 317 83 hstem
          14 543 vstem
          178 733 rmoveto
          10 hlineto
          35 22 33 21 34 23 34 -23 33 -21 36 -22 rrcurveto
          9 hlineto
          16 34 -41 29 -40 30 -36 32 rlinecurve
          -23 hlineto
          -35 -32 -39 -30 -42 -29 rrcurveto
          395 -767 rmoveto
          -214 641 rlineto
          -93 hlineto
          -236 -641 rlineto
          80 hlineto
          16 68 39 106 130 3 145 -3 36 -110 14 -64 rlineto
          -73 242 rmoveto
          -115 -2 -112 2 116 316 rlineto
          7 hlineto
          endchar
        </CharString>
        <CharString name="Acircumflexacute">
          21 -21 175.5 65.5 317 83 hstem
          14 543 vstem
          371 819 rmoveto
          8 hlineto
          82 100 -1 8 -40 20 -7 -2 -70 -103 rlineto
          -166 -129 rmoveto
          10 hlineto
          35 22 33 21 34 23 34 -23 33 -21 36 -22 rrcurveto
          9 hlineto
          16 34 -41 29 -40 30 -36 32 rlinecurve
          -23 hlineto
          -35 -32 -39 -30 -42 -29 rrcurveto
          396 -747 rmoveto
          -214 641 rlineto
          -93 hlineto
          -236 -641 rlineto
          80 hlineto
          16 68 39 106 130 3 145 -3 36 -110 14 -64 rlineto
          -73 242 rmoveto
          -115 -2 -112 2 116 316 rlineto
          7 hlineto
          endchar
        </CharString>
        <CharString name="Acircumflexdotbelow">
          -163 93 91 -21 175.5 65.5 317 83 hstem
          240 91 vstem
          177 732 rmoveto
          10 hlineto
          35 22 33 21 34 23 34 -23 33 -21 36 -22 rrcurveto
          9 hlineto
          16 34 -41 29 -40 30 -36 32 rlinecurve
          -23 hlineto
          -35 -32 -39 -30 -42 -29 rrcurveto
          396 -766 rmoveto
          -214 641 rlineto
          -93 hlineto
          -236 -641 rlineto
          80 hlineto
          16 68 39 106 130 3 145 -3 36 -110 14 -64 rlineto
          -73 242 rmoveto
          -115 -2 -112 2 116 316 rlineto
          7 hlineto
          -10 -628 rmoveto
          -29 -18 -19 -28 -29 16 -17 28 29 18 19 29 28 -17 17 -27 hvcurveto
          endchar
        </CharString>
        <CharString name="Acircumflexgrave">
          21 -21 175.5 65.5 317 83 hstem
          14 543 vstem
          391 819 rmoveto
          8 hlineto
          29 23 -70 103 -7 2 -40 -20 -1 -8 rlineto
          -133 -206 rmoveto
          10 hlineto
          35 22 33 21 34 23 34 -23 33 -21 36 -22 rrcurveto
          9 hlineto
          16 34 -41 29 -40 30 -36 32 rlinecurve
          -23 hlineto
          -35 -32 -39 -30 -42 -29 rrcurveto
          396 -747 rmoveto
          -214 641 rlineto
          -93 hlineto
          -236 -641 rlineto
          80 hlineto
          16 68 39 106 130 3 145 -3 36 -110 14 -64 rlineto
          -73 242 rmoveto
          -115 -2 -112 2 116 316 rlineto
          7 hlineto
          endchar
        </CharString>
        <CharString name="Acircumflexhookabove">
          21 -21 175.5 65.5 317 83 302 41 hstem
          399 45 vstem
          373 943 rmoveto
          15 11 -7 -13 -16 -18 -24 -30 -22 hvcurveto
          30 -52 33 18 -19 32 rlineto
          34 28 15 20 24 vvcurveto
          30 -25 23 -35 -27 -30 -14 -25 -24 vhcurveto
          15 -25 rlineto
          15 18 21 8 16 hhcurveto
          -196 -230 rmoveto
          10 hlineto
          35 22 33 21 34 23 34 -23 33 -21 36 -22 rrcurveto
          9 hlineto
          16 34 -41 29 -40 30 -36 32 rlinecurve
          -23 hlineto
          -35 -32 -39 -30 -42 -29 rrcurveto
          396 -747 rmoveto
          -214 641 rlineto
          -93 hlineto
          -236 -641 rlineto
          80 hlineto
          16 68 39 106 130 3 145 -3 36 -110 14 -64 rlineto
          -73 242 rmoveto
          -115 -2 -112 2 116 316 rlineto
          7 hlineto
          endchar
        </CharString>
        <CharString name="Acircumflextilde">
          21 -21 175.5 65.5 317 83 259 55 hstem
          14 543 vstem
          169 855 rmoveto
          8 hlineto
          24 23 15 21 15 hhcurveto
          24 82 -32 -4 39 hvcurveto
          9 3 57 67 rlineto
          8 vlineto
          -22 24 rlineto
          -8 hlineto
          -25 -24 -15 -20 -14 hhcurveto
          -24 -82 31 4 -40 hvcurveto
          -9 -2 -57 -67 rlineto
          -8 vlineto
          131 -41 rmoveto
          -35 -32 -39 -30 -42 -29 16 -34 rcurveline
          10 hlineto
          35 22 33 21 34 23 34 -23 33 -21 36 -22 rrcurveto
          9 hlineto
          16 34 -41 29 -40 30 -36 32 rlinecurve
          257 -838 rmoveto
          -214 641 rlineto
          -93 hlineto
          -236 -641 rlineto
          80 hlineto
          16 68 39 106 130 3 145 -3 36 -110 14 -64 rlineto
          -73 242 rmoveto
          -115 -2 -112 2 116 316 rlineto
          7 hlineto
          endchar
        </CharString>
        <CharString name="Adieresis">
          21 -21 175.5 65.5 317 83 103 89 hstem
          169 87 70 87 vstem
          211 744 rmoveto
          28 17 19 28 26 -16 16 -26 -28 -17 -18 -27 -27 15 -17 27 hvcurveto
          157 hmoveto
          28 17 19 28 26 -16 16 -26 -28 -17 -18 -27 -27 15 -17 27 hvcurveto
          189 -744 rmoveto
          -214 641 rlineto
          -93 hlineto
          -236 -641 rlineto
          80 hlineto
          16 68 39 106 130 3 145 -3 36 -110 14 -64 rlineto
          -73 242 rmoveto
          -115 -2 -112 2 116 316 rlineto
          7 hlineto
          endchar
        </CharString>
        <CharString name="Adotbelow">
          -163 93 91 -21 175.5 65.5 317 83 hstem
          240 91 vstem
          557 hmoveto
          -214 641 rlineto
          -93 hlineto
          -236 -641 rlineto
          80 hlineto
          16 68 39 106 130 3 145 -3 36 -110 14 -64 rlineto
          -73 242 rmoveto
          -115 -2 -112 2 116 316 rlineto
          7 hlineto
          -10 -628 rmoveto
          -29 -18 -19 -28 -29 16 -17 28 29 18 19 29 28 -17 17 -27 hvcurveto
          endchar
        </CharString>
        <CharString name="Agrave">
          21 -21 175.5 65.5 317 83 hstem
          14 543 vstem
          387 725 rmoveto
          14 36 -63 31 -61 32 -68 40 rlinecurve
          -9 -2 -20 -47 2 -8 69 -32 62 -27 64 -27 rlinecurve
          180 -721 rmoveto
          -214 641 rlineto
          -93 hlineto
          -236 -641 rlineto
          80 hlineto
          16 68 39 106 130 3 145 -3 36 -110 14 -64 rlineto
          -73 242 rmoveto
          -115 -2 -112 2 116 316 rlineto
          7 hlineto
          endchar
        </CharString>
        <CharString name="Ahookabove">
          21 -21 175.5 65.5 317 83 209 44 hstem
          300 49 vstem
          274 850 rmoveto
          16 10 -7 -14 -17 -18 -25 -32 -23 hvcurveto
          32 -55 35 19 -20 34 rlineto
          36 30 16 21 24 vvcurveto
          32 -27 25 -36 -29 -32 -16 -26 -25 vhcurveto
          16 -26 rlineto
          16 19 22 8 17 hhcurveto
          283 -850 rmoveto
          -214 641 rlineto
          -93 hlineto
          -236 -641 rlineto
          80 hlineto
          16 68 39 106 130 3 145 -3 36 -110 14 -64 rlineto
          -73 242 rmoveto
          -115 -2 -112 2 116 316 rlineto
          7 hlineto
          endchar
        </CharString>
        <CharString name="Amacron">
          21 -21 175.5 65.5 317 83 123 52 hstem
          14 543 vstem
          149 764 rmoveto
          283 hlineto
          5 47 -6 5 rlineto
          -283 hlineto
          -5 -46 rlineto
          414 -770 rmoveto
          -214 641 rlineto
          -93 hlineto
          -236 -641 rlineto
          80 hlineto
          16 68 39 106 130 3 145 -3 36 -110 14 -64 rlineto
          -73 242 rmoveto
          -115 -2 -112 2 116 316 rlineto
          7 hlineto
          endchar
        </CharString>
        <CharString name="Aogonek">
          -197 54 164 -21 175.5 65.5 317 83 hstem
          434 53 vstem
          600 -106 rmoveto
          -5 hlineto
          -23 -23 -26 -14 -25 hhcurveto
          -23 -11 11 24 23 11 27 39 58 hvcurveto
          20 hlineto
          -214 641 rlineto
          -93 hlineto
          -236 -641 rlineto
          80 hlineto
          16 68 39 106 130 3 145 -3 36 -110 14 -64 rlineto
          14 hlineto
          -42 -60 -12 -29 -30 vvcurveto
          -48 31 -30 46 37 32 19 34 31 vhcurveto
          -210 386 rmoveto
          -115 -2 -112 2 116 316 rlineto
          7 hlineto
          endchar
        </CharString>
        <CharString name="Aring">
          21 -21 175.5 65.5 317 83 73 38 88 39 hstem
          205 38 91 39 vstem
          287 714 rmoveto
          48 38 30 54 46 -29 35 -54 -53 -32 -33 -50 -53 35 -29 47 hvcurveto
          1 126 rmoveto
          31 15 -18 -27 -29 -19 -14 -26 -27 -19 15 30 27 16 16 29 hvcurveto
          269 -840 rmoveto
          -214 641 rlineto
          -93 hlineto
          -236 -641 rlineto
          80 hlineto
          16 68 39 106 130 3 145 -3 36 -110 14 -64 rlineto
          -73 242 rmoveto
          -115 -2 -112 2 116 316 rlineto
          7 hlineto
          endchar
        </CharString>
        <CharString name="Aringacute">
          21 -21 173.5 65.5 314 87 0 -20 108 39 hstemhm
          212 38 91 39 hintmask 11011110
          213 787 rmoveto
          8 -5 69 16 65 16 73 21 rlinecurve
          4 8 -13 49 -8 3 -73 -28 -66 -21 -68 -21 rlinecurve
          353 -825 rmoveto
          -212 616 rlineto
          21 14 14 24 32 vvcurveto
          46 -29 35 -54 -53 -32 -33 -50 -32 13 -23 20 -14 vhcurveto
          -231 -615 rlineto
          80 hlineto
          16 67 39 105 130 3 145 -3 36 -109 14 -63 rlineto
          -179 728 rmoveto
          31 15 -18 -27 -29 -19 -14 -26 -27 -19 15 30 27 16 16 29 hvcurveto
          106 -488 rmoveto
          -115 -2 -112 2 rlineto
          hintmask 11101110
          116 313 rlineto
          7 hlineto
          endchar
        </CharString>
        <CharString name="Atilde">
          21 -21 175.5 65.5 317 83 hstem
          14 543 vstem
          156 734 rmoveto
          9 hlineto
          25 25 16 22 15 hhcurveto
          26 88 -33 -4 41 hvcurveto
          10 3 61 69 rlineto
          8 vlineto
          -24 25 rlineto
          -8 hlineto
          -25 -26 -16 -21 -15 hhcurveto
          -25 -88 31 5 -42 hvcurveto
          -10 -3 -61 -69 rlineto
          -7 vlineto
          425 -760 rmoveto
          -214 641 rlineto
          -93 hlineto
          -236 -641 rlineto
          80 hlineto
          16 68 39 106 130 3 145 -3 36 -110 14 -64 rlineto
          -73 242 rmoveto
          -115 -2 -112 2 116 316 rlineto
          7 hlineto
          endchar
        </CharString>
        <CharString name="B">
          116 -4 67 -42 -21 294.5 65 216.5 66 hstemhm
          95.5 77.5 203 82 -41 81 hintmask 00000000
          hintmask 10111010
          362 334 rmoveto
          hintmask 01111100
          61 26 35 53 73 vvcurveto
          103 -69 53 -118 vhcurveto
          -178 -1 5 -448 -5 -193 rlineto
          1 hlineto
          hintmask 10111010
          -3 40 79 -1 22 hhcurveto
          175 88 62 121 86 -45 51 -91 18 hvcurveto
          hintmask 10111100
          14 143 rmoveto
          -67 -33 -38 -61 -14 vhcurveto
          -110 3 2 215 rlineto
          81 hlineto
          85 36 -30 -69 hvcurveto
          hintmask 10111010
          -129 -414 rmoveto
          -20 -28 1 2 -26 hvcurveto
          -3 134 1 94 123 1 rlineto
          80 -9 43 -37 -66 vvcurveto
          -78 -61 -42 -109 vhcurveto
          endchar
        </CharString>
        <CharString name="C">
          99 -7 68 518 67 -48 -20 hstemhm
          38 83 hintmask 11010000
          322 646 rmoveto
          -180 -104 -118 -213 -207 99 -115 172 65 56 17 31 56 hvcurveto
          7 76 -10 5 rlineto
          -38 -47 -60 -23 -60 hhcurveto
          -123 -72 90 171 170 71 87 126 61 51 -21 -35 42 hvcurveto
          9 2 rlineto
          hintmask 10110000
          16 73 rlineto
          hintmask 11010000
          31 -48 -59 17 -68 hhcurveto
          endchar
        </CharString>
        <CharString name="C.ss01">
          40 0 35 -35 63 373 62 -34 34 hstemhm
          50 76 hintmask 10011000
          561 464 rmoveto
          34 -661 -34 251 vlineto
          -66 -39 -35 -74 -104 vvcurveto
          -101 32 -72 61 -39 vhcurveto
          -243 -35 661 35 -154 hlineto
          4 2 rlineto
          hintmask 01101000
          5 67 -8 4 rlineto
          -27 -37 -49 -18 -48 hhcurveto
          -95 -53 66 123 124 53 60 95 49 44 -17 -27 33 hvcurveto
          8 3 rlineto
          hintmask 10011000
          14 67 -4 2 rlineto
          endchar
        </CharString>
        <CharString name="Cacute">
          99 -7 68 518 67 -48 -20 hstemhm
          38 83 hintmask 11010000
          431 861 rmoveto
          -9 2 -68 -40 -61 -32 -63 -31 rlinecurve
          14 -36 10 -4 64 27 62 27 69 32 rlinecurve
          2 8 rlineto
          -129 -168 rmoveto
          -180 -104 -118 -213 -207 99 -115 172 65 56 17 31 56 hvcurveto
          7 76 -10 5 rlineto
          -38 -47 -60 -23 -60 hhcurveto
          -123 -72 90 171 170 71 87 126 61 51 -21 -35 42 hvcurveto
          9 2 rlineto
          hintmask 10110000
          16 73 rlineto
          hintmask 11010000
          31 -48 -59 17 -68 hhcurveto
          endchar
        </CharString>
        <CharString name="Ccaron">
          99 -7 68 518 67 -48 -20 hstemhm
          38 83 hintmask 11010000
          427 848 rmoveto
          -10 hlineto
          -35 -22 -33 -21 -34 -23 -34 23 -33 21 -36 22 rrcurveto
          -9 hlineto
          -16 -34 41 -29 40 -30 36 -32 rlinecurve
          23 hlineto
          35 32 39 30 42 29 rrcurveto
          -121 -168 rmoveto
          -180 -104 -118 -213 -207 99 -115 172 65 56 17 31 56 hvcurveto
          7 76 -10 5 rlineto
          -38 -47 -60 -23 -60 hhcurveto
          -123 -72 90 171 170 71 87 126 61 51 -21 -35 42 hvcurveto
          9 2 rlineto
          hintmask 10110000
          16 73 rlineto
          hintmask 11010000
          31 -48 -59 17 -68 hhcurveto
          endchar
        </CharString>
        <CharString name="Ccedilla">
          99 -193 41 146 67 518 67 -48 -20 hstemhm
          38 83 215 53 hintmask 11101000
          316 61 rmoveto
          -123 -72 90 171 170 71 87 126 61 51 -21 -35 42 hvcurveto
          9 2 rlineto
          hintmask 11011000
          16 73 rlineto
          hintmask 11101100
          31 -48 -59 17 -68 hhcurveto
          -180 -104 -118 -213 -197 90 -114 157 -10 hvcurveto
          -18 -65 48 -29 rlineto
          12 -7 9 -6 -12 vvcurveto
          -17 -13 -10 -18 -25 -15 12 19 -17 vhcurveto
          -5 -1 -7 -40 rlineto
          -16 15 24 -15 33 hhcurveto
          48 33 27 39 22 -10 18 -28 16 hvcurveto
          -34 20 13 45 56 3 50 16 50 28 rlinecurve
          7 76 -10 5 rlineto
          hintmask 11101000
          -38 -47 -60 -23 -60 hhcurveto
          endchar
        </CharString>
        <CharString name="Ccircumflex">
          99 -7 68 518 67 -48 -20 hstemhm
          38 83 hintmask 11010000
          202 733 rmoveto
          10 hlineto
          35 22 33 21 34 23 34 -23 33 -21 36 -22 rrcurveto
          9 hlineto
          16 34 -41 29 -40 30 -36 32 rlinecurve
          -23 hlineto
          -35 -32 -39 -30 -42 -29 rrcurveto
          136 -121 rmoveto
          -180 -104 -118 -213 -207 99 -115 172 65 56 17 31 56 hvcurveto
          7 76 -10 5 rlineto
          -38 -47 -60 -23 -60 hhcurveto
          -123 -72 90 171 170 71 87 126 61 51 -21 -35 42 hvcurveto
          9 2 rlineto
          hintmask 10110000
          16 73 rlineto
          hintmask 11010000
          31 -48 -59 17 -68 hhcurveto
          endchar
        </CharString>
        <CharString name="Cdotaccent">
          99 -7 68 518 67 -48 -20 174 93 hstemhm
          38 83 148 91 hintmask 11011100
          316 845 rmoveto
          -29 -18 -19 -28 -29 16 -17 28 29 18 19 30 27 -17 17 -27 hvcurveto
          6 -199 rmoveto
          -180 -104 -118 -213 -207 99 -115 172 65 56 17 31 56 hvcurveto
          7 76 -10 5 rlineto
          -38 -47 -60 -23 -60 hhcurveto
          -123 -72 90 171 170 71 87 126 61 51 -21 -35 42 hvcurveto
          9 2 rlineto
          hintmask 10111100
          16 73 rlineto
          hintmask 11011100
          31 -48 -59 17 -68 hhcurveto
          endchar
        </CharString>
        <CharString name="D">
          225 -6 67 -40 -21 578 67 hstemhm
          95.5 76.5 354 82 hintmask 10111000
          94 641 rmoveto
          -1 hlineto
          5 -448 rlineto
          hintmask 01111000
          -5 -193 rlineto
          1 hlineto
          hintmask 10111000
          -3 55 115 -3 38 hhcurveto
          197 109 124 225 195 -101 107 -182 hvcurveto
          -10 -584 rmoveto
          -21 -74 2 4 -47 hvcurveto
          -3 133 4 374 rlineto
          2 41 83 2 21 hhcurveto
          136 71 -82 -170 -179 -77 -86 -134 hvcurveto
          endchar
        </CharString>
        <CharString name="D.ss01">
          145 0 35 -35 60 373 65 -34 34 hstemhm
          97 70 273 74 hintmask 10011100
          666 464 rmoveto
          34 -766 -34 196 vlineto
          2 -312 -2 -117 rlineto
          -196 -35 766 35 -260 hlineto
          70 42 38 78 110 vvcurveto
          95 -34 68 -64 36 vhcurveto
          hintmask 01101100
          -139 -404 rmoveto
          -18 -60 3 3 -32 hvcurveto
          -1 92 2 271 rlineto
          2 31 65 2 16 hhcurveto
          106 54 -57 -126 -129 -60 -61 -103 hvcurveto
          endchar
        </CharString>
        <CharString name="Dcaron">
          225 -6 67 -40 -21 578 67 hstemhm
          95.5 76.5 355 82 hintmask 10111000
          327 723 rmoveto
          35 32 39 30 42 29 -16 34 rcurveline
          -10 hlineto
          -35 -22 -33 -21 -34 -23 -34 23 -33 21 -36 22 rrcurveto
          -9 hlineto
          -16 -34 41 -29 40 -30 36 -32 rlinecurve
          -210 -82 rmoveto
          -1 hlineto
          5 -448 rlineto
          hintmask 01111000
          -5 -193 rlineto
          1 hlineto
          hintmask 10111000
          -3 55 116 -3 37 hhcurveto
          197 110 124 225 195 -101 107 -183 hvcurveto
          -10 -584 rmoveto
          -21 -74 2 4 -47 hvcurveto
          -3 133 4 374 rlineto
          2 40 85 2 21 hhcurveto
          136 71 -82 -170 -179 -77 -86 -135 hvcurveto
          endchar
        </CharString>
        <CharString name="Dcroat">
          225 -6 67 -40 -21 578 67 119 52 hstemhm
          95.5 76.5 355 82 hintmask 10111100
          173 764 rmoveto
          283 hlineto
          5 47 -6 5 rlineto
          -283 hlineto
          -5 -46 rlineto
          -73 -129 rmoveto
          -1 hlineto
          5 -448 rlineto
          hintmask 01111100
          -5 -193 rlineto
          1 hlineto
          hintmask 10111100
          -3 55 116 -3 37 hhcurveto
          197 110 124 225 195 -101 107 -183 hvcurveto
          -10 -584 rmoveto
          -21 -74 2 4 -47 hvcurveto
          -3 133 4 374 rlineto
          2 40 85 2 21 hhcurveto
          136 71 -82 -170 -179 -77 -86 -135 hvcurveto
          endchar
        </CharString>
        <CharString name="Delta">
          0 67 491 83 hstem
          14 542 vstem
          556 hmoveto
          -215 641 rlineto
          -93 hlineto
          -234 -641 rlineto
          276 558 rmoveto
          7 hlineto
          160 -491 rlineto
          -346 hlineto
          endchar
        </CharString>
        <CharString name="E">
          61 0 66.5 229 65.5 212 68 hstem
          95.5 77.5 vstem
          459 62 rmoveto
          -5 8 -154 -4 -127 1 -3 133 1 95 114 1 112 -2 7 62 -6 7 -106 -3 -120 2 2 210 127 2 151 -3 6 62 -4 8 rlineto
          -361 hlineto
          5 -448 -5 -193 rlineto
          360 hlineto
          endchar
        </CharString>
        <CharString name="Eacute">
          61 0 66.5 229 65.5 212 68 -8 8 hstemhm
          95.5 77.5 hintmask 11101000
          205 724 rmoveto
          10 -4 64 27 62 27 69 32 rlinecurve
          2 8 -20 47 -9 2 -68 -40 -61 -32 -63 -31 rlinecurve
          263 -690 rmoveto
          -153 -4 -128 1 -3 133 1 95 114 1 112 -2 6 62 -5 7 -106 -3 -120 2 2 210 127 2 151 -3 rlineto
          hintmask 11011000
          7 62 -5 8 rlineto
          hintmask 11101000
          -361 hlineto
          5 -448 -5 -193 rlineto
          360 hlineto
          6 62 rlineto
          endchar
        </CharString>
        <CharString name="Ebreve">
          61 0 66.5 229 65.5 212 68 -8 8 83 57 hstemhm
          95.5 77.5 hintmask 11101100
          272 724 rmoveto
          62 46 32 58 21 hvcurveto
          -23 28 rlineto
          -12 hlineto
          -38 -15 -31 -23 -45 hhcurveto
          -47 -32 23 38 -14 hvcurveto
          -12 hlineto
          -22 -28 rlineto
          -58 18 44 -32 62 hhcurveto
          182 -654 rmoveto
          -153 -4 -128 1 -3 133 1 95 114 1 112 -2 6 62 -5 7 -106 -3 -120 2 2 210 127 2 151 -3 rlineto
          hintmask 11011100
          7 62 -5 8 rlineto
          hintmask 11101100
          -361 hlineto
          5 -448 -5 -193 rlineto
          360 hlineto
          6 62 rlineto
          endchar
        </CharString>
        <CharString name="Ecaron">
          61 0 66.5 229 65.5 212 68 -8 8 hstemhm
          95.5 77.5 hintmask 11101000
          287 723 rmoveto
          35 32 39 30 42 29 -16 34 rcurveline
          -10 hlineto
          -35 -22 -33 -21 -34 -23 -34 23 -33 21 -36 22 rrcurveto
          -9 hlineto
          -16 -34 41 -29 40 -30 36 -32 rlinecurve
          190 -653 rmoveto
          -153 -4 -128 1 -3 133 1 95 114 1 112 -2 6 62 -5 7 -106 -3 -120 2 2 210 127 2 151 -3 rlineto
          hintmask 11011000
          7 62 -5 8 rlineto
          hintmask 11101000
          -361 hlineto
          5 -448 -5 -193 rlineto
          360 hlineto
          6 62 rlineto
          endchar
        </CharString>
        <CharString name="Ecircumflex">
          61 0 66.5 229 65.5 212 68 -8 8 hstemhm
          95.5 77.5 hintmask 11101000
          162 733 rmoveto
          10 hlineto
          35 22 33 21 34 23 34 -23 33 -21 36 -22 rrcurveto
          9 hlineto
          16 34 -41 29 -40 30 -36 32 rlinecurve
          -23 hlineto
          -35 -32 -39 -30 -42 -29 rrcurveto
          308 -697 rmoveto
          -153 -4 -128 1 -3 133 1 95 114 1 112 -2 6 62 -5 7 -106 -3 -120 2 2 210 127 2 151 -3 rlineto
          hintmask 11011000
          7 62 -5 8 rlineto
          hintmask 11101000
          -361 hlineto
          5 -448 -5 -193 rlineto
          360 hlineto
          6 62 rlineto
          endchar
        </CharString>
        <CharString name="Ecircumflexacute">
          61 0 66.5 229 65.5 212 68 -8 8 hstemhm
          95.5 77.5 hintmask 11101000
          355 819 rmoveto
          8 hlineto
          82 100 -1 8 -40 20 -7 -2 -70 -103 rlineto
          -166 -129 rmoveto
          10 hlineto
          35 22 33 21 34 23 34 -23 33 -21 36 -22 rrcurveto
          9 hlineto
          16 34 -41 29 -40 30 -36 32 rlinecurve
          -23 hlineto
          -35 -32 -39 -30 -42 -29 rrcurveto
          309 -677 rmoveto
          -153 -4 -128 1 -3 133 1 95 114 1 112 -2 6 62 -5 7 -106 -3 -120 2 2 210 127 2 151 -3 rlineto
          hintmask 11011000
          7 62 -5 8 rlineto
          hintmask 11101000
          -361 hlineto
          5 -448 -5 -193 rlineto
          360 hlineto
          6 62 rlineto
          endchar
        </CharString>
        <CharString name="Ecircumflexdotbelow">
          61 -163 93 70 66.5 229 65.5 212 68 -8 8 hstemhm
          95.5 77.5 62 91 hintmask 01110100
          162 733 rmoveto
          10 hlineto
          35 22 33 21 34 23 34 -23 33 -21 36 -22 rrcurveto
          9 hlineto
          16 34 -41 29 -40 30 -36 32 rlinecurve
          -23 hlineto
          -35 -32 -39 -30 -42 -29 rrcurveto
          308 -697 rmoveto
          -153 -4 -128 1 -3 133 1 95 114 1 112 -2 6 62 -5 7 -106 -3 -120 2 2 210 127 2 151 -3 rlineto
          hintmask 01101100
          7 62 -5 8 rlineto
          hintmask 11110110
          -361 hlineto
          5 -448 -5 -193 rlineto
          360 hlineto
          6 62 rlineto
          -177 -132 rmoveto
          -29 -18 -19 -28 -29 16 -17 28 29 18 19 29 28 -17 17 -27 hvcurveto
          endchar
        </CharString>
        <CharString name="Ecircumflexgrave">
          61 0 66.5 229 65.5 212 68 -8 8 hstemhm
          95.5 77.5 hintmask 11101000
          375 819 rmoveto
          8 hlineto
          29 23 -70 103 -7 2 -40 -20 -1 -8 rlineto
          -133 -206 rmoveto
          10 hlineto
          35 22 33 21 34 23 34 -23 33 -21 36 -22 rrcurveto
          9 hlineto
          16 34 -41 29 -40 30 -36 32 rlinecurve
          -23 hlineto
          -35 -32 -39 -30 -42 -29 rrcurveto
          309 -677 rmoveto
          -153 -4 -128 1 -3 133 1 95 114 1 112 -2 6 62 -5 7 -106 -3 -120 2 2 210 127 2 151 -3 rlineto
          hintmask 11011000
          7 62 -5 8 rlineto
          hintmask 11101000
          -361 hlineto
          5 -448 -5 -193 rlineto
          360 hlineto
          6 62 rlineto
          endchar
        </CharString>
        <CharString name="Ecircumflexhookabove">
          61 0 66.5 229 65.5 212 68 -8 8 302 41 hstemhm
          95.5 77.5 210 45 hintmask 11101110
          357 943 rmoveto
          15 11 -7 -13 -16 -18 -24 -30 -22 hvcurveto
          30 -52 33 18 -19 32 rlineto
          34 28 15 20 24 vvcurveto
          30 -25 23 -35 -27 -30 -14 -25 -24 vhcurveto
          15 -25 rlineto
          15 18 21 8 16 hhcurveto
          -196 -230 rmoveto
          10 hlineto
          35 22 33 21 34 23 34 -23 33 -21 36 -22 rrcurveto
          9 hlineto
          16 34 -41 29 -40 30 -36 32 rlinecurve
          -23 hlineto
          -35 -32 -39 -30 -42 -29 rrcurveto
          309 -677 rmoveto
          -153 -4 -128 1 -3 133 1 95 114 1 112 -2 6 62 -5 7 -106 -3 -120 2 2 210 127 2 151 -3 rlineto
          hintmask 11011110
          7 62 -5 8 rlineto
          hintmask 11101110
          -361 hlineto
          5 -448 -5 -193 rlineto
          360 hlineto
          6 62 rlineto
          endchar
        </CharString>
        <CharString name="Ecircumflextilde">
          61 0 66.5 229 65.5 212 68 -8 8 hstemhm
          95.5 77.5 hintmask 11101000
          375 819 rmoveto
          8 hlineto
          29 23 -70 103 -7 2 -40 -20 -1 -8 rlineto
          -133 -206 rmoveto
          10 hlineto
          35 22 33 21 34 23 34 -23 33 -21 36 -22 rrcurveto
          9 hlineto
          16 34 -41 29 -40 30 -36 32 rlinecurve
          -23 hlineto
          -35 -32 -39 -30 -42 -29 rrcurveto
          309 -677 rmoveto
          -153 -4 -128 1 -3 133 1 95 114 1 112 -2 6 62 -5 7 -106 -3 -120 2 2 210 127 2 151 -3 rlineto
          hintmask 11011000
          7 62 -5 8 rlineto
          hintmask 11101000
          -361 hlineto
          5 -448 -5 -193 rlineto
          360 hlineto
          6 62 rlineto
          endchar
        </CharString>
        <CharString name="Edieresis">
          61 0 66.5 229 65.5 212 68 -8 8 103 89 hstemhm
          95.5 77.5 -20 87 70 87 hintmask 00000000
          hintmask 11101011
          195 744 rmoveto
          28 17 19 28 26 -16 16 -26 -28 -17 -18 -27 -27 15 -17 27 hvcurveto
          157 hmoveto
          28 17 19 28 26 -16 16 -26 -28 -17 -18 -27 -27 15 -17 27 hvcurveto
          102 -674 rmoveto
          -153 -4 rlineto
          hintmask 11100100
          -128 1 -3 133 1 95 114 1 112 -2 6 62 -5 7 -106 -3 -120 2 2 210 127 2 151 -3 rlineto
          hintmask 11010100
          7 62 -5 8 rlineto
          hintmask 11100100
          -361 hlineto
          5 -448 -5 -193 rlineto
          360 hlineto
          6 62 rlineto
          endchar
        </CharString>
        <CharString name="Edotaccent">
          61 0 66.5 229 65.5 212 68 -8 8 111 93 hstemhm
          95.5 77.5 56 91 hintmask 11101110
          273 752 rmoveto
          29 18 19 30 27 -17 17 -27 -29 -18 -19 -28 -29 16 -17 28 hvcurveto
          181 -682 rmoveto
          -153 -4 -128 1 -3 133 1 95 114 1 112 -2 6 62 -5 7 -106 -3 -120 2 2 210 127 2 151 -3 rlineto
          hintmask 11011110
          7 62 -5 8 rlineto
          hintmask 11101110
          -361 hlineto
          5 -448 -5 -193 rlineto
          360 hlineto
          6 62 rlineto
          endchar
        </CharString>
        <CharString name="Edotbelow">
          61 -163 93 70 66.5 229 65.5 212 68 -8 8 hstemhm
          95.5 77.5 62 91 hintmask 01110100
          454 70 rmoveto
          -153 -4 -128 1 -3 133 1 95 114 1 112 -2 6 62 -5 7 -106 -3 -120 2 2 210 127 2 151 -3 rlineto
          hintmask 01101100
          7 62 -5 8 rlineto
          hintmask 11110110
          -361 hlineto
          5 -448 -5 -193 rlineto
          360 hlineto
          6 62 rlineto
          -177 -132 rmoveto
          -29 -18 -19 -28 -29 16 -17 28 29 18 19 29 28 -17 17 -27 hvcurveto
          endchar
        </CharString>
        <CharString name="Egrave">
          61 0 66.5 229 65.5 212 68 -8 8 hstemhm
          95.5 77.5 hintmask 11101000
          371 725 rmoveto
          14 36 -63 31 -61 32 -68 40 rlinecurve
          -9 -2 -20 -47 2 -8 69 -32 62 -27 64 -27 rlinecurve
          93 -651 rmoveto
          -153 -4 -128 1 -3 133 1 95 114 1 112 -2 6 62 -5 7 -106 -3 -120 2 2 210 127 2 151 -3 rlineto
          hintmask 11011000
          7 62 -5 8 rlineto
          hintmask 11101000
          -361 hlineto
          5 -448 -5 -193 rlineto
          360 hlineto
          6 62 rlineto
          endchar
        </CharString>
        <CharString name="Ehookabove">
          61 0 66.5 229 65.5 212 68 -8 8 209 44 hstemhm
          95.5 77.5 111 49 hintmask 11101110
          258 850 rmoveto
          16 10 -7 -14 -17 -18 -25 -32 -23 hvcurveto
          32 -55 35 19 -20 34 rlineto
          36 30 16 21 24 vvcurveto
          32 -27 25 -36 -29 -32 -16 -26 -25 vhcurveto
          16 -26 rlineto
          16 19 22 8 17 hhcurveto
          196 -780 rmoveto
          -153 -4 -128 1 -3 133 1 95 114 1 112 -2 6 62 -5 7 -106 -3 -120 2 2 210 127 2 151 -3 rlineto
          hintmask 11011110
          7 62 -5 8 rlineto
          hintmask 11101110
          -361 hlineto
          5 -448 -5 -193 rlineto
          360 hlineto
          6 62 rlineto
          endchar
        </CharString>
        <CharString name="Emacron">
          61 0 66.5 229 65.5 212 68 -8 8 123 52 hstemhm
          95.5 77.5 hintmask 11101100
          133 764 rmoveto
          283 hlineto
          5 47 -6 5 rlineto
          -283 hlineto
          -5 -46 rlineto
          327 -700 rmoveto
          -153 -4 -128 1 -3 133 1 95 114 1 112 -2 6 62 -5 7 -106 -3 -120 2 2 210 127 2 151 -3 rlineto
          hintmask 11011100
          7 62 -5 8 rlineto
          hintmask 11101100
          -361 hlineto
          5 -448 -5 -193 rlineto
          360 hlineto
          6 62 rlineto
          endchar
        </CharString>
        <CharString name="Eng">
          262 21 -21 22 -21 512 128 0 -20 22 -20 hstemhm
          96.5 69 350 72.5 hintmask 01001110
          585 188 rmoveto
          6 455 -76 -6 1 -508 rlineto
          -7 hlineto
          hintmask 10010110
          -330 512 rlineto
          -84 hlineto
          3 -451 -5 -190 rlineto
          75 hlineto
          -3 211 rlineto
          hintmask 01100110
          1 302 rlineto
          6 hlineto
          331 -512 -16 -41 -38 -31 -64 -35 rlinecurve
          -10 vlineto
          31 -44 rlineto
          125 59 45 58 99 vvcurveto
          endchar
        </CharString>
        <CharString name="Eogonek">
          61 -197 54 143 66.5 229 65.5 212 68 -8 8 hstemhm
          95.5 77.5 116 52 hintmask 11110110
          455 -105 rmoveto
          -5 hlineto
          -24 -22 -25 -14 -22 hhcurveto
          -26 -14 17 23 15 6 16 12 19 hvcurveto
          35 53 rlineto
          59 hlineto
          6 62 -5 8 -153 -4 -128 1 -3 133 1 95 114 1 112 -2 6 62 -5 7 -106 -3 -120 2 2 210 127 2 151 -3 rlineto
          hintmask 11101110
          7 62 -5 8 rlineto
          hintmask 11110110
          -361 hlineto
          5 -448 -5 -193 rlineto
          251 hlineto
          -30 -44 rlineto
          -18 -25 -7 -25 -23 vvcurveto
          -47 31 -33 48 35 30 18 34 33 vhcurveto
          endchar
        </CharString>
        <CharString name="Eth">
          247 -6 67 -40 -21 296 57 225 67 hstemhm
          117 76 -73.5 73 355.5 82 hintmask 10111010
          115 641 rmoveto
          -1 hlineto
          4 -288 rlineto
          -103 hlineto
          -3 -50 4 -7 rlineto
          103 hlineto
          hintmask 10110110
          1 -103 rlineto
          hintmask 01111010
          -6 -193 rlineto
          1 hlineto
          hintmask 10111010
          -3 55 116 -3 37 hhcurveto
          197 110 124 225 195 -101 107 -183 hvcurveto
          -10 -584 rmoveto
          -21 -73 2 4 -48 hvcurveto
          -2 133 1 96 rlineto
          146 hlineto
          3 50 -4 7 rlineto
          -145 hlineto
          2 221 rlineto
          2 40 85 2 21 hhcurveto
          136 71 -82 -170 -179 -77 -86 -135 hvcurveto
          endchar
        </CharString>
        <CharString name="Etilde">
          61 0 66.5 229 65.5 212 68 -8 8 hstemhm
          95.5 77.5 hintmask 11101000
          140 734 rmoveto
          9 hlineto
          25 25 16 22 15 hhcurveto
          26 88 -33 -4 41 hvcurveto
          10 3 61 69 rlineto
          8 vlineto
          -24 25 rlineto
          -8 hlineto
          -25 -26 -16 -21 -15 hhcurveto
          -25 -88 31 5 -42 hvcurveto
          -10 -3 -61 -69 rlineto
          -7 vlineto
          338 -690 rmoveto
          -153 -4 -128 1 -3 133 1 95 114 1 112 -2 6 62 -5 7 -106 -3 -120 2 2 210 127 2 151 -3 rlineto
          hintmask 11011000
          7 62 -5 8 rlineto
          hintmask 11101000
          -361 hlineto
          5 -448 -5 -193 rlineto
          360 hlineto
          6 62 rlineto
          endchar
        </CharString>
        <CharString name="Euro">
          64 -6 56 111 47 67 47 125 54 -36 -20 hstemhm
          88 68 hintmask 11110100
          309 50 rmoveto
          -75 -48 39 72 -21 hvcurveto
          184 hlineto
          3 42 -4 5 rlineto
          -191 hlineto
          -1 12 0 13 14 vvcurveto
          1 28 rlineto
          192 hlineto
          3 42 -4 5 rlineto
          -186 hlineto
          82 18 51 43 83 hhcurveto
          42 43 -13 -24 33 hvcurveto
          7 2 rlineto
          hintmask 11101100
          12 53 rlineto
          hintmask 11110100
          23 -38 -48 13 -47 hhcurveto
          -123 -77 -64 -115 -24 hvcurveto
          -75 hlineto
          -3 -42 4 -5 rlineto
          68 hlineto
          -1 -11 0 -11 0 -11 0 -12 1 -11 -11 flex1
          -69 hlineto
          -3 -42 4 -5 rlineto
          74 hlineto
          -108 23 71 -59 118 hhcurveto
          44 49 14 25 42 hvcurveto
          6 52 -9 5 rlineto
          -26 -37 -50 -14 -42 hhcurveto
          endchar
        </CharString>
        <CharString name="F">
          13 21 -21 283.5 64.5 225 68 -8 8 hstemhm
          95.5 77.5 hintmask 11101000
          174 572 rmoveto
          112 2 147 -5 rlineto
          hintmask 11011000
          7 64 -6 8 rlineto
          hintmask 11101000
          -341 hlineto
          5 -448 -5 -193 rlineto
          81 hlineto
          -4 200 1 83 101 1 111 -3 7 61 -6 8 -104 -3 -108 2 rlineto
          endchar
        </CharString>
        <CharString name="G">
          179 -7 68 518 67 hstem
          38 83 338 75 vstem
          350 646 rmoveto
          -198 -114 -117 -221 -200 92 -115 194 62 63 11 27 87 hvcurveto
          -4 140 2 86 -75 -6 1 -91 -2 -75 rlineto
          -18 -60 -32 -6 -38 hhcurveto
          -140 -67 77 173 183 75 85 142 60 50 -16 -40 64 hvcurveto
          10 2 16 76 rlineto
          32 -62 -61 13 -65 hhcurveto
          endchar
        </CharString>
        <CharString name="Gbreve">
          179 -7 68 518 67 78 57 hstem
          38 83 339 73 vstem
          430 842 rmoveto
          -12 hlineto
          -38 -15 -31 -23 -45 hhcurveto
          -47 -32 23 38 -14 hvcurveto
          -12 hlineto
          -22 -28 rlineto
          -58 18 44 -32 62 hhcurveto
          62 46 32 58 21 hvcurveto
          -103 -168 rmoveto
          -198 -114 -117 -221 -200 92 -115 194 62 63 11 27 87 hvcurveto
          -4 140 2 86 -75 -6 2 -91 -3 -75 rlineto
          -18 -60 -32 -6 -38 hhcurveto
          -140 -67 77 173 183 75 85 142 60 50 -16 -40 64 hvcurveto
          10 2 17 76 rlineto
          32 -63 -60 13 -66 hhcurveto
          endchar
        </CharString>
        <CharString name="Gcircumflex">
          179 -7 68 518 67 hstem
          38 83 339 73 vstem
          214 733 rmoveto
          10 hlineto
          35 22 33 21 34 23 34 -23 33 -21 36 -22 rrcurveto
          9 hlineto
          16 34 -41 29 -40 30 -36 32 rlinecurve
          -23 hlineto
          -35 -32 -39 -30 -42 -29 rrcurveto
          152 -121 rmoveto
          -198 -114 -117 -221 -200 92 -115 194 62 63 11 27 87 hvcurveto
          -4 140 2 86 -75 -6 2 -91 -3 -75 rlineto
          -18 -60 -32 -6 -38 hhcurveto
          -140 -67 77 173 183 75 85 142 60 50 -16 -40 64 hvcurveto
          10 2 17 76 rlineto
          32 -63 -60 13 -66 hhcurveto
          endchar
        </CharString>
        <CharString name="Gcommaaccent">
          179 -7 68 518 67 hstem
          38 83 182 62 95 73 vstem
          350 646 rmoveto
          -198 -114 -117 -221 -200 92 -115 194 62 63 11 27 87 hvcurveto
          -4 140 2 86 -75 -6 2 -91 -3 -75 rlineto
          -18 -60 -32 -6 -38 hhcurveto
          -140 -67 77 173 183 75 85 142 60 50 -16 -40 64 hvcurveto
          10 2 17 76 rlineto
          32 -63 -60 13 -66 hhcurveto
          -24 -701 rmoveto
          -19 -6 -18 -9 -15 -10 rrcurveto
          -7 vlineto
          18 -13 11 -15 -17 vvcurveto
          -27 -18 -28 -34 -27 vhcurveto
          -6 vlineto
          26 -23 rlineto
          59 43 29 41 41 vvcurveto
          25 -14 21 -25 17 vhcurveto
          endchar
        </CharString>
        <CharString name="Gdieresis">
          179 -7 68 518 67 98 89 hstemhm
          38 83 84 87 70 87 11 73 hintmask 11111010
          250 833 rmoveto
          -28 -17 -18 -27 -27 15 -17 27 28 17 19 28 26 -16 16 -26 hvcurveto
          hintmask 11111110
          157 hmoveto
          -28 -17 -18 -27 -27 15 -17 27 28 17 19 28 26 -16 16 -26 hvcurveto
          -57 -187 rmoveto
          -198 -114 -117 -221 -200 92 -115 194 hvcurveto
          hintmask 11111010
          62 63 11 27 87 hvcurveto
          -4 140 2 86 -75 -6 2 -91 -3 -75 rlineto
          -18 -60 -32 -6 -38 hhcurveto
          -140 -67 77 173 183 75 85 142 60 50 -16 -40 64 hvcurveto
          10 2 17 76 rlineto
          hintmask 11111110
          32 -63 -60 13 -66 hhcurveto
          endchar
        </CharString>
        <CharString name="Gdotaccent">
          179 -7 68 518 67 106 93 hstem
          38 83 160 91 88 73 vstem
          328 845 rmoveto
          -29 -18 -19 -28 -29 16 -17 28 29 18 19 30 27 -17 17 -27 hvcurveto
          22 -199 rmoveto
          -198 -114 -117 -221 -200 92 -115 194 62 63 11 27 87 hvcurveto
          -4 140 2 86 -75 -6 2 -91 -3 -75 rlineto
          -18 -60 -32 -6 -38 hhcurveto
          -140 -67 77 173 183 75 85 142 60 50 -16 -40 64 hvcurveto
          10 2 17 76 rlineto
          32 -63 -60 13 -66 hhcurveto
          endchar
        </CharString>
        <CharString name="Germandbls">
          210 -7 65 -37 -21 580 66 hstemhm
          76.5 75.5 370 79 hintmask 10111000
          320 646 rmoveto
          -152 -95 -89 -133 2 hvcurveto
          3 -234 rlineto
          hintmask 01111000
          -6 -190 rlineto
          81 hlineto
          -3 201 2 223 rlineto
          97 60 59 106 45 44 -10 -24 51 vhcurveto
          -167 -209 5 -17 rlineto
          157 -42 69 -41 -74 vvcurveto
          hintmask 10111000
          -60 -46 -45 -67 -49 -59 25 42 -45 vhcurveto
          -11 -5 -10 -82 rlineto
          -30 51 62 -15 54 hhcurveto
          110 89 66 112 103 -75 49 -134 41 hvcurveto
          167 204 -4 16 rlineto
          37 -78 -76 25 -81 hhcurveto
          endchar
        </CharString>
        <CharString name="Gtilde">
          179 -7 68 518 67 hstem
          38 83 339 73 vstem
          483 824 rmoveto
          -24 25 rlineto
          -8 hlineto
          -25 -26 -16 -21 -15 hhcurveto
          -25 -88 31 5 -42 hvcurveto
          -10 -3 -61 -69 rlineto
          -7 vlineto
          24 -26 rlineto
          9 hlineto
          25 25 16 22 15 hhcurveto
          26 88 -33 -4 41 hvcurveto
          10 3 61 69 rlineto
          -133 -170 rmoveto
          -198 -114 -117 -221 -200 92 -115 194 62 63 11 27 87 hvcurveto
          -4 140 2 86 -75 -6 2 -91 -3 -75 rlineto
          -18 -60 -32 -6 -38 hhcurveto
          -140 -67 77 173 183 75 85 142 60 50 -16 -40 64 hvcurveto
          10 2 17 76 rlineto
          32 -63 -60 13 -66 hhcurveto
          endchar
        </CharString>
        <CharString name="H">
          262 21 -21 290.5 67 283.5 -20 hstem
          95.5 78 336.5 78 vstem
          586 200 rmoveto
          4 441 rlineto
          -82 hlineto
          4 -282 -172 -3 -168 3 3 282 rlineto
          -82 hlineto
          5 -448 -5 -193 rlineto
          81 hlineto
          -4 200 1 89 162 3 180 -3 1 -96 -6 -193 rlineto
          81 hlineto
          endchar
        </CharString>
        <CharString name="Hbar">
          294 21 -21 290.5 67 120.5 56 -56 163 hstemhm
          107.5 81 -78 76 336 81 -78.5 76.5 hintmask 11100101
          603 478 rmoveto
          hintmask 11100110
          68 hlineto
          4 50 -5 6 rlineto
          -67 hlineto
          hintmask 11010110
          1 107 rlineto
          -82 hlineto
          hintmask 11101010
          1 -107 rlineto
          -335 hlineto
          hintmask 11011001
          1 107 rlineto
          -82 hlineto
          hintmask 11101001
          1 -107 rlineto
          hintmask 11100101
          -64 hlineto
          -4 -52 5 -4 rlineto
          64 hlineto
          3 -285 -5 -193 rlineto
          81 hlineto
          -4 200 1 89 163 3 179 -3 1 -96 -6 -193 rlineto
          81 hlineto
          -3 200 rlineto
          -76 278 rmoveto
          2 -119 -172 -3 -168 3 1 119 rlineto
          endchar
        </CharString>
        <CharString name="Hcircumflex">
          262 21 -21 290.5 67 283.5 -20 hstem
          95.5 78 336 78 vstem
          226 733 rmoveto
          10 hlineto
          35 22 33 21 34 23 34 -23 33 -21 36 -22 rrcurveto
          9 hlineto
          16 34 -41 29 -40 30 -36 32 rlinecurve
          -23 hlineto
          -35 -32 -39 -30 -42 -29 rrcurveto
          375 -567 rmoveto
          5 441 rlineto
          -82 hlineto
          3 -282 -170 -3 -169 3 3 282 rlineto
          -82 hlineto
          5 -448 -5 -193 rlineto
          81 hlineto
          -4 200 1 89 163 3 178 -3 1 -96 -5 -193 rlineto
          81 hlineto
          endchar
        </CharString>
        <CharString name="I">
          -153 21 -21 641 -20 hstem
          95.5 77 vstem
          170 200 rmoveto
          5 441 rlineto
          -82 hlineto
          5 -448 -5 -193 rlineto
          81 hlineto
          endchar
        </CharString>
        <CharString name="I.ss01">
          -162 0 35 429 34 hstem
          91.5 72 vstem
          162 156 rmoveto
          3 308 rlineto
          194 34 -459 -34 190 hlineto
          3 -314 -2 -115 rlineto
          -191 -35 459 35 -195 hlineto
          endchar
        </CharString>
        <CharString name="IJ">
          -81 -21 123 -21 575.5 65.5 hstem
          95.5 77 236.5 74 vstem
          175 641 rmoveto
          -82 hlineto
          5 -448 -5 -193 rlineto
          81 hlineto
          -4 200 rlineto
          311 12 rmoveto
          4 429 rlineto
          -206 hlineto
          -5 -59 8 -7 123 1 4 -372 rlineto
          -87 vlineto
          -76 -38 -40 -89 -48 vhcurveto
          -10 vlineto
          31 -45 rlineto
          125 60 45 59 101 vvcurveto
          endchar
        </CharString>
        <CharString name="Iacute">
          -153 21 -21 641 -20 hstem
          95.5 77 vstem
          251 861 rmoveto
          -9 2 -68 -40 -61 -32 -63 -31 rlinecurve
          14 -36 10 -4 64 27 62 27 69 32 rlinecurve
          2 8 rlineto
          -101 -614 rmoveto
          5 441 rlineto
          -82 hlineto
          5 -448 -5 -193 rlineto
          81 hlineto
          endchar
        </CharString>
        <CharString name="Iacute_J.loclNLD">
          -81 -21 123 -21 575.5 65.5 165 56 hstem
          95.5 77 236.5 74 vstem
          251 861 rmoveto
          -9 2 -68 -40 -61 -32 -63 -31 rlinecurve
          14 -36 10 -4 64 27 62 27 69 32 rlinecurve
          2 8 rlineto
          267 hmoveto
          -20 47 -9 2 -68 -40 -61 -32 -63 -31 rlinecurve
          14 -36 10 -4 64 27 62 27 69 32 rlinecurve
          -361 -165 rmoveto
          -82 hlineto
          5 -448 -5 -193 rlineto
          81 hlineto
          -4 200 rlineto
          315 441 rmoveto
          -206 hlineto
          -5 -59 8 -7 123 1 4 -372 rlineto
          -87 vlineto
          -76 -38 -40 -89 -48 vhcurveto
          -10 vlineto
          31 -45 rlineto
          125 60 45 59 101 vvcurveto
          -2 94 rlineto
          endchar
        </CharString>
        <CharString name="Ibreve">
          -153 21 -21 641 -20 103 57 hstem
          95.5 77 vstem
          238 842 rmoveto
          -12 hlineto
          -38 -15 -31 -23 -45 hhcurveto
          -47 -32 23 38 -14 hvcurveto
          -12 hlineto
          -22 -28 rlineto
          -58 18 44 -32 62 hhcurveto
          62 46 32 58 21 hvcurveto
          -91 -614 rmoveto
          5 441 rlineto
          -82 hlineto
          5 -448 -5 -193 rlineto
          81 hlineto
          endchar
        </CharString>
        <CharString name="Icaron">
          -153 21 -21 641 -20 hstem
          95.5 77 vstem
          247 848 rmoveto
          -10 hlineto
          -35 -22 -33 -21 -34 -23 -34 23 -33 21 -36 22 rrcurveto
          -9 hlineto
          -16 -34 41 -29 40 -30 36 -32 rlinecurve
          23 hlineto
          35 32 39 30 42 29 rrcurveto
          -93 -614 rmoveto
          5 441 rlineto
          -82 hlineto
          5 -448 -5 -193 rlineto
          81 hlineto
          endchar
        </CharString>
        <CharString name="Icircumflex">
          -153 21 -21 641 -20 hstem
          95.5 77 vstem
          22 733 rmoveto
          10 hlineto
          35 22 33 21 34 23 34 -23 33 -21 36 -22 rrcurveto
          9 hlineto
          16 34 -41 29 -40 30 -36 32 rlinecurve
          -23 hlineto
          -35 -32 -39 -30 -42 -29 rrcurveto
          164 -567 rmoveto
          5 441 rlineto
          -82 hlineto
          5 -448 -5 -193 rlineto
          81 hlineto
          endchar
        </CharString>
        <CharString name="Idieresis">
          -153 21 -21 641 -20 123 89 hstemhm
          27 87 -18.5 77 -17.5 87 hintmask 00000000
          hintmask 11110100
          72 833 rmoveto
          -28 -17 -18 -27 -27 15 -17 27 28 17 19 28 26 -16 16 -26 hvcurveto
          128 hmoveto
          -28 -17 -18 -27 -27 15 -17 27 28 17 19 28 26 -16 16 -26 hvcurveto
          hintmask 11101000
          -30 -633 rmoveto
          5 441 rlineto
          -82 hlineto
          5 -448 -5 -193 rlineto
          81 hlineto
          endchar
        </CharString>
        <CharString name="Idotaccent">
          -153 21 -21 641 -20 131 93 hstemhm
          88 91 -83.5 77 hintmask 00000000
          hintmask 11110000
          135 845 rmoveto
          -29 -18 -19 -28 -29 16 -17 28 29 18 19 30 27 -17 17 -27 hvcurveto
          hintmask 11101000
          35 -645 rmoveto
          5 441 rlineto
          -82 hlineto
          5 -448 -5 -193 rlineto
          81 hlineto
          endchar
        </CharString>
        <CharString name="Idotbelow">
          -153 -163 93 91 -21 641 -20 hstemhm
          83 91 -78.5 77 hintmask 11101000
          170 200 rmoveto
          5 441 rlineto
          -82 hlineto
          5 -448 -5 -193 rlineto
          81 hlineto
          hintmask 11110000
          -44 -70 rmoveto
          -29 -18 -19 -28 -29 16 -17 28 29 18 19 29 28 -17 17 -27 hvcurveto
          endchar
        </CharString>
        <CharString name="Igrave">
          -153 21 -21 641 -20 hstem
          95.5 77 vstem
          44 862 rmoveto
          -20 -47 2 -8 69 -32 62 -27 64 -27 rlinecurve
          10 4 14 36 -63 31 -61 32 -68 40 rlinecurve
          117 -664 rmoveto
          5 441 rlineto
          -82 hlineto
          5 -448 -5 -193 rlineto
          81 hlineto
          endchar
        </CharString>
        <CharString name="Ihookabove">
          -153 21 -21 641 -20 229 44 hstemhm
          95.5 77 -28.5 49 hintmask 00000000
          hintmask 11101000
          130 894 rmoveto
          -29 -32 -16 -26 -25 hvcurveto
          16 -26 rlineto
          16 19 22 8 17 hhcurveto
          16 10 -7 -14 -17 -18 -25 -32 -23 hvcurveto
          32 -55 35 19 -20 34 rlineto
          36 30 16 21 24 vvcurveto
          32 -27 25 -36 vhcurveto
          hintmask 11110000
          40 -694 rmoveto
          5 441 rlineto
          -82 hlineto
          5 -448 -5 -193 rlineto
          81 hlineto
          endchar
        </CharString>
        <CharString name="Imacron">
          -153 21 -21 641 -20 143 52 hstem
          95.5 77 vstem
          247 811 rmoveto
          -5 5 rlineto
          -217 hlineto
          -4 -46 5 -6 rlineto
          217 hlineto
          -73 -564 rmoveto
          5 441 rlineto
          -82 hlineto
          5 -448 -5 -193 rlineto
          81 hlineto
          endchar
        </CharString>
        <CharString name="Iogonek">
          -153 -197 54 164 -21 641 -20 hstemhm
          36 53 6.5 77 hintmask 00000000
          hintmask 11110000
          170 -119 rmoveto
          -6 hlineto
          -15 -13 -14 -9 -16 hhcurveto
          -19 -13 11 23 22 12 28 41 59 hvcurveto
          hintmask 11101000
          32 hlineto
          -4 200 5 441 rlineto
          -82 hlineto
          5 -448 -5 -193 rlineto
          -1 hlineto
          hintmask 11110000
          -43 -60 -13 -30 -31 vvcurveto
          -47 30 -29 44 27 22 11 20 21 vhcurveto
          endchar
        </CharString>
        <CharString name="Itilde">
          -153 21 -21 641 -20 hstem
          95.5 77 vstem
          274 821 rmoveto
          -25 25 rlineto
          -7 hlineto
          -24 -23 -13 -21 -15 hhcurveto
          -21 -74 31 5 -37 hvcurveto
          -9 -4 -55 -68 rlineto
          -7 vlineto
          24 -26 rlineto
          8 hlineto
          25 22 13 21 15 hhcurveto
          21 74 -32 -5 38 hvcurveto
          8 3 56 69 rlineto
          -104 -613 rmoveto
          5 441 rlineto
          -82 hlineto
          5 -448 -5 -193 rlineto
          81 hlineto
          endchar
        </CharString>
        <CharString name="J">
          -111 -81 -21 677.5 65.5 hstem
          141 74 vstem
          213 212 rmoveto
          4 429 rlineto
          -206 hlineto
          -5 -59 8 -7 123 1 4 -372 rlineto
          -87 vlineto
          -76 -38 -40 -89 -48 vhcurveto
          -10 vlineto
          31 -45 rlineto
          125 60 45 59 101 vvcurveto
          endchar
        </CharString>
        <CharString name="Jcircumflex">
          -111 -81 -21 677.5 65.5 hstem
          141 74.5 vstem
          121 858 rmoveto
          -35 -32 -39 -30 -42 -29 16 -34 rcurveline
          10 hlineto
          35 22 33 21 34 23 34 -23 33 -21 36 -22 rrcurveto
          9 hlineto
          16 34 -41 29 -40 30 -36 32 rlinecurve
          74 -217 rmoveto
          -207 hlineto
          -5 -59 8 -7 124 1 3 -372 rlineto
          -87 vlineto
          -76 -37 -40 -90 -48 vhcurveto
          -10 vlineto
          31 -45 rlineto
          125 60 45 59 101 vvcurveto
          -2 94 rlineto
          endchar
        </CharString>
        <CharString name="K">
          125 12 -21 30 -21 641 -20 hstemhm
          94.5 77 hintmask 01110000
          169 200 rmoveto
          5 441 rlineto
          -82 hlineto
          5 -448 -5 -193 rlineto
          81 hlineto
          355 641 rmoveto
          -91 hlineto
          -39 -56 -214 -244 rlineto
          -6 vlineto
          hintmask 10110000
          86 -117 94 -113 96 -109 9 -5 rcurveline
          26 4 26 5 24 7 1 10 rcurveline
          -97 101 -95 112 -85 110 rrcurveto
          endchar
        </CharString>
        <CharString name="Kcommaaccent">
          125 12 -21 30 -21 641 -20 hstemhm
          94.5 77 111.5 62 hintmask 01110000
          169 200 rmoveto
          5 441 rlineto
          -82 hlineto
          5 -448 -5 -193 rlineto
          81 hlineto
          356 641 rmoveto
          -91 hlineto
          -40 -56 -214 -244 rlineto
          -6 vlineto
          hintmask 10111000
          86 -117 95 -113 95 -109 10 -5 rcurveline
          26 4 25 5 25 7 1 10 rcurveline
          -97 101 -96 112 -85 110 rrcurveto
          37 -395 rmoveto
          -19 -6 -18 -9 -15 -10 rrcurveto
          -7 vlineto
          18 -13 11 -15 -17 vvcurveto
          -27 -18 -28 -34 -27 vhcurveto
          -6 vlineto
          26 -23 rlineto
          59 43 29 41 41 vvcurveto
          25 -14 21 -25 17 vhcurveto
          endchar
        </CharString>
        <CharString name="L">
          -5 0 67 -7 7 574 -20 hstemhm
          92.5 77 hintmask 00000000
          hintmask 01110000
          413 60 rmoveto
          -6 7 rlineto
          hintmask 10110000
          -237 hlineto
          -3 133 5 441 rlineto
          -82 hlineto
          5 -448 -5 -193 rlineto
          316 hlineto
          endchar
        </CharString>
        <CharString name="L.ss01">
          -28 0 35 -35 64 400 34 hstemhm
          90.5 69.5 160.5 53.5 hintmask 10111000
          160 168 rmoveto
          3 296 rlineto
          330 34 -593 -34 189 hlineto
          3 -303 -2 -126 rlineto
          -190 -35 593 35 -120 hlineto
          hintmask 01111000
          2 117 -52 -3 -5 -85 rlineto
          -158 hlineto
          endchar
        </CharString>
        <CharString name="Lacute">
          -5 0 67 -7 7 574 -20 hstemhm
          92.5 77 hintmask 10110000
          135 724 rmoveto
          10 -4 64 27 62 27 69 32 rlinecurve
          2 8 -20 47 -9 2 -68 -40 -61 -32 -63 -31 rlinecurve
          hintmask 01110000
          292 -700 rmoveto
          -6 7 rlineto
          hintmask 10110000
          -237 hlineto
          -3 133 5 441 rlineto
          -82 hlineto
          5 -448 -5 -193 rlineto
          316 hlineto
          endchar
        </CharString>
        <CharString name="Lcaron">
          3 0 67 -7 7 574 -20 hstemhm
          92.5 77 145 42.5 hintmask 00000000
          hintmask 01110000
          413 60 rmoveto
          -6 7 rlineto
          hintmask 10111000
          -237 hlineto
          -3 133 5 441 rlineto
          -82 hlineto
          5 -448 -5 -193 rlineto
          316 hlineto
          -87 398 rmoveto
          38 6 23 172 -6 7 -57 -4 -5 -175 rlineto
          endchar
        </CharString>
        <CharString name="Lcommaaccent">
          -5 0 67 -7 7 574 -20 hstemhm
          92.5 77 61.5 62 hintmask 00000000
          hintmask 01110000
          413 60 rmoveto
          -6 7 rlineto
          hintmask 10111000
          -237 hlineto
          -3 133 5 441 rlineto
          -82 hlineto
          5 -448 -5 -193 rlineto
          316 hlineto
          -152 -55 rmoveto
          -19 -6 -18 -9 -15 -10 rrcurveto
          -7 vlineto
          18 -13 11 -15 -17 vvcurveto
          -27 -18 -28 -34 -27 vhcurveto
          -6 vlineto
          26 -23 rlineto
          59 43 29 41 41 vvcurveto
          25 -14 21 -25 17 vhcurveto
          endchar
        </CharString>
        <CharString name="Ldot">
          -5 0 67 -7 7 265 93 216 -20 hstemhm
          92.5 77 122.5 91 hintmask 00000000
          hintmask 01111000
          413 60 rmoveto
          -6 7 rlineto
          hintmask 10111100
          -237 hlineto
          -3 133 5 441 rlineto
          -82 hlineto
          5 -448 -5 -193 rlineto
          316 hlineto
          -70 332 rmoveto
          29 18 19 30 27 -17 17 -27 -29 -18 -19 -28 -29 16 -17 28 hvcurveto
          endchar
        </CharString>
        <CharString name="Lslash">
          8 0 67 -7 7 395 -20 199 -20 hstemhm
          106.5 76 hintmask 00000000
          hintmask 01111000
          427 60 rmoveto
          -6 7 rlineto
          hintmask 10111000
          -237 hlineto
          -3 133 1 128 155 83 -15 47 -9 4 -130 -68 2 247 rlineto
          -81 hlineto
          3 -287 -97 -51 15 -48 10 -5 73 39 1 -96 -5 -193 rlineto
          316 hlineto
          endchar
        </CharString>
        <CharString name="M">
          368 21 -21 74 104 336 127 hstem
          60 668 vstem
          728 hmoveto
          -63 641 rlineto
          -90 hlineto
          -33 -92 -146 -371 rlineto
          -6 hlineto
          -139 365 -33 98 rlineto
          -91 hlineto
          -67 -641 rlineto
          68 hlineto
          17 201 34 313 rlineto
          8 hlineto
          169 -440 rlineto
          66 hlineto
          178 440 rlineto
          7 hlineto
          34 -319 15 -195 rlineto
          endchar
        </CharString>
        <CharString name="M.ss01">
          262 0 35 49 92 208 114 -34 34 hstemhm
          -100 883 hintmask 11011000
          559 464 rmoveto
          224 34 -883 -34 222 hlineto
          -47 -429 rlineto
          -175 -35 883 35 -180 hlineto
          -136 429 rmoveto
          -17 -40 -108 -248 rlineto
          -6 hlineto
          -104 245 -15 43 rlineto
          323 -429 rmoveto
          -404 hlineto
          11 134 rlineto
          hintmask 11101000
          25 215 rlineto
          4 hlineto
          130 -300 rlineto
          58 hlineto
          137 300 rlineto
          5 hlineto
          24 -220 rlineto
          endchar
        </CharString>
        <CharString name="N">
          262 0 128 -107 -21 513 128 0 -20 22 -20 hstemhm
          96.5 69 350 72.5 hintmask 01001110
          585 188 rmoveto
          6 455 -76 -6 rlineto
          hintmask 10010110
          1 -509 rlineto
          -7 hlineto
          -330 513 rlineto
          -84 hlineto
          3 -451 -5 -190 rlineto
          75 hlineto
          -3 211 rlineto
          hintmask 01100110
          1 302 rlineto
          6 hlineto
          331 -513 rlineto
          84 hlineto
          endchar
        </CharString>
        <CharString name="Nacute">
          262 0 128 -107 -21 513 128 0 -20 22 -20 hstemhm
          96.5 69 350 72.5 hintmask 01001110
          457 861 rmoveto
          -9 2 -68 -40 -61 -32 -63 -31 rlinecurve
          14 -36 10 -4 64 27 62 27 69 32 rlinecurve
          2 8 rlineto
          108 -626 rmoveto
          6 455 -76 -6 rlineto
          hintmask 10010110
          1 -509 rlineto
          -6 hlineto
          -331 513 rlineto
          -84 hlineto
          3 -451 -5 -190 rlineto
          76 hlineto
          -4 211 rlineto
          hintmask 01100110
          1 302 rlineto
          7 hlineto
          330 -513 rlineto
          84 hlineto
          endchar
        </CharString>
        <CharString name="Ncaron">
          262 0 128 -107 -21 513 128 0 -20 22 -20 hstemhm
          96.5 69 350 72.5 hintmask 01001110
          452 848 rmoveto
          -10 hlineto
          -35 -22 -33 -21 -34 -23 -34 23 -33 21 -36 22 rrcurveto
          -9 hlineto
          -16 -34 41 -29 40 -30 36 -32 rlinecurve
          23 hlineto
          35 32 39 30 42 29 rrcurveto
          117 -626 rmoveto
          6 455 -76 -6 rlineto
          hintmask 10010110
          1 -509 rlineto
          -6 hlineto
          -331 513 rlineto
          -84 hlineto
          3 -451 -5 -190 rlineto
          76 hlineto
          -4 211 rlineto
          hintmask 01100110
          1 302 rlineto
          7 hlineto
          330 -513 rlineto
          84 hlineto
          endchar
        </CharString>
        <CharString name="Ncommaaccent">
          262 0 128 -107 -21 513 128 0 -20 22 -20 hstemhm
          96.5 69 168.5 62 119.5 72.5 hintmask 01001101
          585 188 rmoveto
          6 455 -76 -6 rlineto
          hintmask 10010101
          1 -509 rlineto
          -6 hlineto
          -331 513 rlineto
          -84 hlineto
          3 -451 -5 -190 rlineto
          76 hlineto
          -4 211 rlineto
          hintmask 01100111
          1 302 rlineto
          7 hlineto
          330 -513 rlineto
          84 hlineto
          -230 -55 rmoveto
          -19 -6 -18 -9 -15 -10 rrcurveto
          -7 vlineto
          18 -13 11 -15 -17 vvcurveto
          -27 -18 -28 -34 -27 vhcurveto
          -6 vlineto
          26 -23 rlineto
          59 43 29 41 41 vvcurveto
          25 -14 21 -25 17 vhcurveto
          endchar
        </CharString>
        <CharString name="Ntilde">
          262 0 128 -107 -21 513 128 0 -20 22 -20 hstemhm
          96.5 69 350 72.5 hintmask 01001110
          496 824 rmoveto
          -24 25 rlineto
          -8 hlineto
          -25 -26 -16 -21 -15 hhcurveto
          -25 -88 31 5 -42 hvcurveto
          -10 -3 -61 -69 rlineto
          -7 vlineto
          24 -26 rlineto
          9 hlineto
          25 25 16 22 15 hhcurveto
          26 88 -33 -4 41 hvcurveto
          10 3 61 69 rlineto
          89 -628 rmoveto
          6 455 -76 -6 rlineto
          hintmask 10010110
          1 -509 rlineto
          -6 hlineto
          -331 513 rlineto
          -84 hlineto
          3 -451 -5 -190 rlineto
          76 hlineto
          -4 211 rlineto
          hintmask 01100110
          1 302 rlineto
          7 hlineto
          330 -513 rlineto
          84 hlineto
          endchar
        </CharString>
        <CharString name="O">
          214 -8 67 522 66 hstem
          38 82 395 83 vstem
          326 647 rmoveto
          -185 -103 -118 -214 -206 98 -117 174 184 104 123 218 202 -97 112 -175 hvcurveto
          -7 -66 rmoveto
          131 65 -84 -178 -175 -68 -85 -132 -130 -65 86 180 172 66 84 133 hvcurveto
          endchar
        </CharString>
        <CharString name="OE">
          430 -12 66 -54 66.5 229 65.5 213 67 -55 67 -20 8 hstemhm
          38 82 343 76 hintmask 00000000
          hintmask 10101011
          355 653 rmoveto
          -201 -116 -124 -213 -207 110 -121 192 hvcurveto
          hintmask 01110011
          61 64 13 -1 59 hvcurveto
          297 hlineto
          7 62 -6 8 -157 -4 -125 1 -1 128 rlineto
          100 vlineto
          110 1 117 -2 7 62 -5 7 -113 -3 -114 2 1 212 rlineto
          135 hlineto
          144 -3 rlineto
          hintmask 01100111
          6 62 -5 8 rlineto
          hintmask 01110011
          -298 hlineto
          hintmask 10101011
          -56 -51 12 -62 hhcurveto
          -6 -67 rmoveto
          42 44 -7 -6 14 hvcurveto
          10 -3 4 -9 -25 vvcurveto
          4 -437 rlineto
          -20 -7 -9 -18 -6 vhcurveto
          -4 -15 -42 -6 -37 hhcurveto
          -154 -74 91 176 175 78 90 151 hvcurveto
          endchar
        </CharString>
        <CharString name="Oacute">
          214 -8 67 522 66 hstem
          38 82 395 83 vstem
          436 861 rmoveto
          -9 2 -68 -40 -61 -32 -63 -31 rlinecurve
          14 -36 10 -4 64 27 62 27 69 32 rlinecurve
          2 8 rlineto
          -130 -167 rmoveto
          -185 -103 -118 -214 -206 98 -117 174 184 104 123 218 202 -97 112 -175 hvcurveto
          -7 -66 rmoveto
          131 65 -84 -178 -175 -68 -85 -132 -130 -65 86 180 172 66 84 133 hvcurveto
          endchar
        </CharString>
        <CharString name="Obreve">
          214 -8 67 522 66 77 57 hstem
          38 82 395 83 vstem
          423 842 rmoveto
          -12 hlineto
          -38 -15 -31 -23 -45 hhcurveto
          -47 -32 23 38 -14 hvcurveto
          -12 hlineto
          -22 -28 rlineto
          -58 18 44 -32 62 hhcurveto
          62 46 32 58 21 hvcurveto
          -120 -167 rmoveto
          -185 -103 -118 -214 -206 98 -117 174 184 104 123 218 202 -97 112 -175 hvcurveto
          -7 -66 rmoveto
          131 65 -84 -178 -175 -68 -85 -132 -130 -65 86 180 172 66 84 133 hvcurveto
          endchar
        </CharString>
        <CharString name="Ocaron">
          214 -8 67 522 66 hstem
          38 82 395 83 vstem
          431 848 rmoveto
          -10 hlineto
          -35 -22 -33 -21 -34 -23 -34 23 -33 21 -36 22 rrcurveto
          -9 hlineto
          -16 -34 41 -29 40 -30 36 -32 rlinecurve
          23 hlineto
          35 32 39 30 42 29 rrcurveto
          -121 -167 rmoveto
          -185 -103 -118 -214 -206 98 -117 174 184 104 123 218 202 -97 112 -175 hvcurveto
          -7 -66 rmoveto
          131 65 -84 -178 -175 -68 -85 -132 -130 -65 86 180 172 66 84 133 hvcurveto
          endchar
        </CharString>
        <CharString name="Ocircumflex">
          214 -8 67 522 66 hstem
          38 82 395 83 vstem
          206 733 rmoveto
          10 hlineto
          35 22 33 21 34 23 34 -23 33 -21 36 -22 rrcurveto
          9 hlineto
          16 34 -41 29 -40 30 -36 32 rlinecurve
          -23 hlineto
          -35 -32 -39 -30 -42 -29 rrcurveto
          136 -120 rmoveto
          -185 -103 -118 -214 -206 98 -117 174 184 104 123 218 202 -97 112 -175 hvcurveto
          -7 -66 rmoveto
          131 65 -84 -178 -175 -68 -85 -132 -130 -65 86 180 172 66 84 133 hvcurveto
          endchar
        </CharString>
        <CharString name="Ocircumflexacute">
          214 -8 67 522 66 hstem
          38 82 395 83 vstem
          489 927 rmoveto
          -40 20 -7 -2 -70 -103 28 -23 rlineto
          8 hlineto
          82 100 rlineto
          -284 -206 rmoveto
          10 hlineto
          35 22 33 21 34 23 34 -23 33 -21 36 -22 rrcurveto
          9 hlineto
          16 34 -41 29 -40 30 -36 32 rlinecurve
          -23 hlineto
          -35 -32 -39 -30 -42 -29 rrcurveto
          136 -100 rmoveto
          -185 -103 -118 -214 -206 98 -117 174 184 104 123 218 202 -97 112 -175 hvcurveto
          -7 -66 rmoveto
          131 65 -84 -178 -175 -68 -85 -132 -130 -65 86 180 172 66 84 133 hvcurveto
          endchar
        </CharString>
        <CharString name="Ocircumflexdotbelow">
          214 -163 93 62 67 522 66 hstem
          38 82 151 91 153 83 vstem
          216 726 rmoveto
          10 hlineto
          35 22 33 21 34 23 34 -23 33 -21 36 -22 rrcurveto
          9 hlineto
          16 34 -41 29 -40 30 -36 32 rlinecurve
          -23 hlineto
          -35 -32 -39 -30 -42 -29 rrcurveto
          126 -113 rmoveto
          -185 -103 -118 -214 -206 98 -117 174 184 104 123 218 202 -97 112 -175 hvcurveto
          -7 -66 rmoveto
          131 65 -84 -178 -175 -68 -85 -132 -130 -65 86 180 172 66 84 133 hvcurveto
          -1 -651 rmoveto
          -29 -18 -19 -28 -29 16 -17 28 29 18 19 29 28 -17 17 -27 hvcurveto
          endchar
        </CharString>
        <CharString name="Ocircumflexgrave">
          214 -8 67 522 66 hstem
          38 82 395 83 vstem
          387 945 rmoveto
          -7 2 -40 -20 -1 -8 81 -100 rlineto
          8 hlineto
          29 23 rlineto
          -251 -129 rmoveto
          10 hlineto
          35 22 33 21 34 23 34 -23 33 -21 36 -22 rrcurveto
          9 hlineto
          16 34 -41 29 -40 30 -36 32 rlinecurve
          -23 hlineto
          -35 -32 -39 -30 -42 -29 rrcurveto
          136 -100 rmoveto
          -185 -103 -118 -214 -206 98 -117 174 184 104 123 218 202 -97 112 -175 hvcurveto
          -7 -66 rmoveto
          131 65 -84 -178 -175 -68 -85 -132 -130 -65 86 180 172 66 84 133 hvcurveto
          endchar
        </CharString>
        <CharString name="Ocircumflexhookabove">
          214 -8 67 522 66 296 41 hstem
          38 82 308 45 42 83 vstem
          413 984 rmoveto
          -27 -30 -14 -25 -24 hvcurveto
          15 -25 rlineto
          15 18 21 8 16 hhcurveto
          15 11 -7 -13 -16 -18 -24 -30 -22 hvcurveto
          30 -52 33 18 -19 32 rlineto
          34 28 15 20 24 vvcurveto
          30 -25 23 -35 vhcurveto
          -207 -271 rmoveto
          10 hlineto
          35 22 33 21 34 23 34 -23 33 -21 36 -22 rrcurveto
          9 hlineto
          16 34 -41 29 -40 30 -36 32 rlinecurve
          -23 hlineto
          -35 -32 -39 -30 -42 -29 rrcurveto
          136 -100 rmoveto
          -185 -103 -118 -214 -206 98 -117 174 184 104 123 218 202 -97 112 -175 hvcurveto
          -7 -66 rmoveto
          131 65 -84 -178 -175 -68 -85 -132 -130 -65 86 180 172 66 84 133 hvcurveto
          endchar
        </CharString>
        <CharString name="Ocircumflextilde">
          214 -8 67 522 66 253 55 hstem
          38 82 395 83 vstem
          470 942 rmoveto
          -22 24 rlineto
          -8 hlineto
          -25 -24 -15 -20 -14 hhcurveto
          -24 -82 31 4 -40 hvcurveto
          -9 -2 -57 -67 rlineto
          -8 vlineto
          23 -24 rlineto
          8 hlineto
          24 23 15 21 15 hhcurveto
          24 82 -32 -4 39 hvcurveto
          9 3 57 67 rlineto
          -264 -221 rmoveto
          10 hlineto
          35 22 33 21 34 23 34 -23 33 -21 36 -22 rrcurveto
          9 hlineto
          16 34 -41 29 -40 30 -36 32 rlinecurve
          -23 hlineto
          -35 -32 -39 -30 -42 -29 rrcurveto
          136 -100 rmoveto
          -185 -103 -118 -214 -206 98 -117 174 184 104 123 218 202 -97 112 -175 hvcurveto
          -7 -66 rmoveto
          131 65 -84 -178 -175 -68 -85 -132 -130 -65 86 180 172 66 84 133 hvcurveto
          endchar
        </CharString>
        <CharString name="Odieresis">
          214 -8 67 522 66 97 89 hstem
          38 82 78 87 70 87 73 83 vstem
          243 833 rmoveto
          -28 -17 -18 -27 -27 15 -17 27 28 17 19 28 26 -16 16 -26 hvcurveto
          157 hmoveto
          -28 -17 -18 -27 -27 15 -17 27 28 17 19 28 26 -16 16 -26 hvcurveto
          -74 -186 rmoveto
          -185 -103 -118 -214 -206 98 -117 174 184 104 123 218 202 -97 112 -175 hvcurveto
          -7 -66 rmoveto
          131 65 -84 -178 -175 -68 -85 -132 -130 -65 86 180 172 66 84 133 hvcurveto
          endchar
        </CharString>
        <CharString name="Odotbelow">
          214 -163 93 62 67 522 66 hstem
          38 82 151 91 153 83 vstem
          326 647 rmoveto
          -185 -103 -118 -214 -206 98 -117 174 184 104 123 218 202 -97 112 -175 hvcurveto
          -7 -66 rmoveto
          131 65 -84 -178 -175 -68 -85 -132 -130 -65 86 180 172 66 84 133 hvcurveto
          -1 -651 rmoveto
          -29 -18 -19 -28 -29 16 -17 28 29 18 19 29 28 -17 17 -27 hvcurveto
          endchar
        </CharString>
        <CharString name="Ograve">
          214 -8 67 522 66 hstem
          38 82 395 83 vstem
          228 862 rmoveto
          -20 -47 2 -8 69 -32 62 -27 64 -27 rlinecurve
          10 4 14 36 -63 31 -61 32 -68 40 rlinecurve
          89 -217 rmoveto
          -185 -103 -118 -214 -206 98 -117 174 184 104 123 218 202 -97 112 -175 hvcurveto
          -7 -66 rmoveto
          131 65 -84 -178 -175 -68 -85 -132 -130 -65 86 180 172 66 84 133 hvcurveto
          endchar
        </CharString>
        <CharString name="Ohm">
          323 0 62 -43 -21 584 65 hstemhm
          89 83 52.5 95.5 102 95.5 54.5 82 hintmask 10110010
          379 647 rmoveto
          -192 -98 -135 -155 -106 46 -110 90 -75 hvcurveto
          -1 -4 rlineto
          -90 hlineto
          -87 6 rlineto
          hintmask 01110010
          -10 -64 6 -7 rlineto
          hintmask 10111110
          88 3 rlineto
          146 hlineto
          39 -2 4 4 rlineto
          64 vlineto
          -95 70 -53 119 108 vvcurveto
          121 63 98 136 136 65 -99 -121 -108 -53 -118 -97 -70 vhcurveto
          -64 vlineto
          4 -4 39 2 rlineto
          132 hlineto
          hintmask 01110010
          99 -4 rlineto
          hintmask 10110110
          9 67 -4 6 -82 -7 rlineto
          -101 hlineto
          -1 4 rlineto
          91 78 46 115 108 vvcurveto
          hintmask 10110010
          150 -87 130 -188 vhcurveto
          endchar
        </CharString>
        <CharString name="Ohookabove">
          214 -8 67 522 66 203 44 hstem
          38 82 209 49 137 83 vstem
          315 894 rmoveto
          -29 -32 -16 -26 -25 hvcurveto
          16 -26 rlineto
          16 19 22 8 17 hhcurveto
          16 10 -7 -14 -17 -18 -25 -32 -23 hvcurveto
          32 -55 35 19 -20 34 rlineto
          36 30 16 21 24 vvcurveto
          32 -27 25 -36 vhcurveto
          11 -247 rmoveto
          -185 -103 -118 -214 -206 98 -117 174 184 104 123 218 202 -97 112 -175 hvcurveto
          -7 -66 rmoveto
          131 65 -84 -178 -175 -68 -85 -132 -130 -65 86 180 172 66 84 133 hvcurveto
          endchar
        </CharString>
        <CharString name="Ohorn">
          219 -8 67 514 40 -32 66 hstemhm
          38 82 395 83 -31 64 hintmask 00000000
          hintmask 11010100
          576 765 rmoveto
          -12 -15 -7 -9 -12 hvcurveto
          -2 -8 rlineto
          21 -20 11 -25 -23 vvcurveto
          -39 -33 -21 -38 vhcurveto
          hintmask 10111000
          -47 -35 34 -92 hhcurveto
          -179 -105 -118 -214 -206 98 -117 175 183 104 126 211 hvcurveto
          hintmask 11011000
          109 -28 81 -56 54 vhcurveto
          hintmask 11010100
          66 4 51 37 65 vvcurveto
          49 -30 37 -25 vhcurveto
          hintmask 10111000
          -257 -184 rmoveto
          131 65 -84 -178 -175 -68 -85 -132 -130 -65 86 180 172 66 84 133 hvcurveto
          endchar
        </CharString>
        <CharString name="Ohornacute">
          219 -8 67 514 40 -32 66 hstemhm
          38 82 395 83 -31 64 hintmask 10111000
          436 861 rmoveto
          -9 2 -68 -40 -61 -32 -63 -31 rlinecurve
          14 -36 10 -4 64 27 62 27 69 32 rlinecurve
          2 8 rlineto
          hintmask 11010100
          120 -49 rmoveto
          -12 -15 -7 -9 -12 hvcurveto
          -2 -8 rlineto
          21 -20 11 -25 -23 vvcurveto
          -39 -33 -21 -38 vhcurveto
          hintmask 10111000
          -47 -35 34 -92 hhcurveto
          -179 -105 -118 -214 -206 98 -117 175 183 104 126 211 hvcurveto
          hintmask 11011000
          109 -28 81 -56 54 vhcurveto
          hintmask 11010100
          66 4 51 37 65 vvcurveto
          49 -30 37 -25 vhcurveto
          hintmask 10111000
          -257 -184 rmoveto
          131 65 -84 -178 -175 -68 -85 -132 -130 -65 86 180 172 66 84 133 hvcurveto
          endchar
        </CharString>
        <CharString name="Ohorndotbelow">
          219 -163 93 62 67 514 40 -32 66 hstemhm
          38 82 151 91 153 83 -31 64 hintmask 00000000
          hintmask 01101001
          576 765 rmoveto
          -12 -15 -7 -9 -12 hvcurveto
          -2 -8 rlineto
          21 -20 11 -25 -23 vvcurveto
          -39 -33 -21 -38 vhcurveto
          hintmask 01011010
          -47 -35 34 -92 hhcurveto
          -179 -105 -118 -214 -206 98 -117 175 183 104 126 211 hvcurveto
          hintmask 01101010
          109 -28 81 -56 54 vhcurveto
          hintmask 01101001
          66 4 51 37 65 vvcurveto
          49 -30 37 -25 vhcurveto
          hintmask 11011110
          -257 -184 rmoveto
          131 65 -84 -178 -175 -68 -85 -132 -130 -65 86 180 172 66 84 133 hvcurveto
          -1 -651 rmoveto
          -29 -18 -19 -28 -29 16 -17 28 29 18 19 29 28 -17 17 -27 hvcurveto
          endchar
        </CharString>
        <CharString name="Ohorngrave">
          219 -8 67 514 40 -32 66 hstemhm
          38 82 395 83 -31 64 hintmask 10111000
          228 862 rmoveto
          -20 -47 2 -8 69 -32 62 -27 64 -27 rlinecurve
          10 4 14 36 -63 31 -61 32 -68 40 rlinecurve
          hintmask 11010100
          339 -99 rmoveto
          -12 -15 -7 -9 -12 hvcurveto
          -2 -8 rlineto
          21 -20 11 -25 -23 vvcurveto
          -39 -33 -21 -38 vhcurveto
          hintmask 10111000
          -47 -35 34 -92 hhcurveto
          -179 -105 -118 -214 -206 98 -117 175 183 104 126 211 hvcurveto
          hintmask 11011000
          109 -28 81 -56 54 vhcurveto
          hintmask 11010100
          66 4 51 37 65 vvcurveto
          49 -30 37 -25 vhcurveto
          hintmask 10111000
          -257 -184 rmoveto
          131 65 -84 -178 -175 -68 -85 -132 -130 -65 86 180 172 66 84 133 hvcurveto
          endchar
        </CharString>
        <CharString name="Ohornhookabove">
          219 -8 67 514 40 -32 66 203 44 hstemhm
          38 82 209 49 137 83 -31 64 hintmask 10111110
          315 894 rmoveto
          -29 -32 -16 -26 -25 hvcurveto
          16 -26 rlineto
          16 19 22 8 17 hhcurveto
          16 10 -7 -14 -17 -18 -25 -32 -23 hvcurveto
          32 -55 35 19 -20 34 rlineto
          36 30 16 21 24 vvcurveto
          32 -27 25 -36 vhcurveto
          hintmask 11011101
          261 -129 rmoveto
          -12 -15 -7 -9 -12 hvcurveto
          -2 -8 rlineto
          21 -20 11 -25 -23 vvcurveto
          -39 -33 -21 -38 vhcurveto
          hintmask 10111110
          -47 -35 34 -92 hhcurveto
          -179 -105 -118 -214 -206 98 -117 175 183 104 126 211 hvcurveto
          hintmask 11011110
          109 -28 81 -56 54 vhcurveto
          hintmask 11011101
          66 4 51 37 65 vvcurveto
          49 -30 37 -25 vhcurveto
          hintmask 10111110
          -257 -184 rmoveto
          131 65 -84 -178 -175 -68 -85 -132 -130 -65 86 180 172 66 84 133 hvcurveto
          endchar
        </CharString>
        <CharString name="Ohorntilde">
          219 -8 67 514 40 -32 66 hstemhm
          38 82 395 83 -31 64 hintmask 10111000
          476 824 rmoveto
          -24 25 rlineto
          -8 hlineto
          -25 -26 -16 -21 -15 hhcurveto
          -25 -88 31 5 -42 hvcurveto
          -10 -3 -61 -69 rlineto
          -7 vlineto
          24 -26 rlineto
          9 hlineto
          25 25 16 22 15 hhcurveto
          26 88 -33 -4 41 hvcurveto
          10 3 61 69 rlineto
          hintmask 11010100
          100 -51 rmoveto
          -12 -15 -7 -9 -12 hvcurveto
          -2 -8 rlineto
          21 -20 11 -25 -23 vvcurveto
          -39 -33 -21 -38 vhcurveto
          hintmask 10111000
          -47 -35 34 -92 hhcurveto
          -179 -105 -118 -214 -206 98 -117 175 183 104 126 211 hvcurveto
          hintmask 11011000
          109 -28 81 -56 54 vhcurveto
          hintmask 11010100
          66 4 51 37 65 vvcurveto
          49 -30 37 -25 vhcurveto
          hintmask 10111000
          -257 -184 rmoveto
          131 65 -84 -178 -175 -68 -85 -132 -130 -65 86 180 172 66 84 133 hvcurveto
          endchar
        </CharString>
        <CharString name="Ohungarumlaut">
          214 -8 67 522 66 hstem
          38 82 395 83 vstem
          222 718 rmoveto
          9 1 41 37 39 35 38 38 rlinecurve
          9 vlineto
          -36 25 rlineto
          -8 hlineto
          -35 -42 -37 -39 -37 -40 rrcurveto
          169 -24 rmoveto
          9 1 40 37 39 35 39 38 rlinecurve
          9 vlineto
          -37 25 rlineto
          -7 hlineto
          -36 -42 -36 -39 -37 -40 rrcurveto
          -13 -95 rmoveto
          -185 -103 -118 -214 -206 98 -117 174 184 104 123 218 202 -97 112 -175 hvcurveto
          -7 -66 rmoveto
          131 65 -84 -178 -175 -68 -85 -132 -130 -65 86 180 172 66 84 133 hvcurveto
          endchar
        </CharString>
        <CharString name="Omacron">
          214 -8 67 522 66 117 52 hstem
          38 82 395 83 vstem
          466 811 rmoveto
          -6 5 rlineto
          -283 hlineto
          -5 -46 6 -6 rlineto
          283 hlineto
          -135 -117 rmoveto
          -185 -103 -118 -214 -206 98 -117 174 184 104 123 218 202 -97 112 -175 hvcurveto
          -7 -66 rmoveto
          131 65 -84 -178 -175 -68 -85 -132 -130 -65 86 180 172 66 84 133 hvcurveto
          endchar
        </CharString>
        <CharString name="Omega">
          323 0 62 -43 -21 584 65 hstemhm
          89 83 52.5 95.5 102 96 54 83 hintmask 10110010
          379 647 rmoveto
          -192 -98 -135 -155 -106 46 -110 90 -75 hvcurveto
          -1 -4 rlineto
          -90 hlineto
          -86 6 rlineto
          hintmask 01110010
          -11 -64 6 -7 rlineto
          hintmask 10111110
          88 3 rlineto
          146 hlineto
          39 -2 4 4 rlineto
          64 vlineto
          -95 70 -53 119 108 vvcurveto
          121 64 98 136 136 64 -99 -121 -108 -53 -118 -97 -70 vhcurveto
          -64 vlineto
          5 -4 38 2 rlineto
          132 hlineto
          hintmask 01110010
          99 -4 rlineto
          hintmask 10110110
          10 67 -5 6 -82 -7 rlineto
          -100 hlineto
          -2 4 rlineto
          92 78 46 115 108 vvcurveto
          hintmask 10110010
          150 -88 130 -188 vhcurveto
          endchar
        </CharString>
        <CharString name="Oogonek">
          214 -197 54 135 67 522 66 hstem
          38 82 200 52 143 83 vstem
          435 16 rmoveto
          105 45 58 110 162 vvcurveto
          202 -97 112 -175 -185 -103 -118 -214 -206 98 -117 174 22 22 2 3 20 vhcurveto
          -29 -41 rlineto
          -18 -25 -7 -25 -23 vvcurveto
          -47 31 -33 48 35 30 18 34 33 vhcurveto
          -11 40 rlineto
          -5 hlineto
          -24 -22 -25 -14 -22 hhcurveto
          -26 -14 17 23 15 6 16 12 19 hvcurveto
          -270 378 rmoveto
          172 66 84 133 131 65 -84 -178 -175 -68 -85 -132 -130 -65 86 180 vhcurveto
          endchar
        </CharString>
        <CharString name="Oslash">
          214 -81 -21 94 67 522 66 hstem
          38 82 395 83 vstem
          524 696 rmoveto
          -5 10 -48 18 -43 -92 rlineto
          10 -30 -34 5 -38 hhcurveto
          -185 -103 -118 -214 -131 39 -94 74 -52 hvcurveto
          -54 -115 4 -8 49 -17 53 112 rlineto
          -12 31 36 -6 40 hhcurveto
          184 104 123 218 130 -40 93 -76 50 hvcurveto
          -362 -281 rmoveto
          172 66 84 133 30 26 -4 -9 23 vhcurveto
          -215 -460 rlineto
          -42 43 -21 72 102 vvcurveto
          195 -266 rmoveto
          -31 -28 5 10 -24 hvcurveto
          217 462 rlineto
          44 -42 22 -72 -103 vvcurveto
          -175 -68 -85 -132 vhcurveto
          endchar
        </CharString>
        <CharString name="Oslashacute">
          214 -81 -21 94 67 522 66 hstem
          38 82 395 83 vstem
          247 726 rmoveto
          10 -4 64 27 62 27 69 32 rlinecurve
          2 8 -20 47 -9 2 -68 -40 -61 -32 -63 -31 rlinecurve
          291 -66 rmoveto
          -5 10 -48 18 -43 -92 rlineto
          10 -30 -34 5 -38 hhcurveto
          -185 -103 -118 -214 -131 39 -94 74 -52 hvcurveto
          -54 -115 4 -8 49 -17 53 112 rlineto
          -12 31 36 -6 40 hhcurveto
          184 104 123 218 130 -40 93 -76 50 hvcurveto
          -362 -281 rmoveto
          172 66 84 133 30 26 -4 -9 23 vhcurveto
          -215 -460 rlineto
          -42 43 -21 72 102 vvcurveto
          195 -266 rmoveto
          -31 -28 5 10 -24 hvcurveto
          217 462 rlineto
          44 -42 22 -72 -103 vvcurveto
          -175 -68 -85 -132 vhcurveto
          endchar
        </CharString>
        <CharString name="Otilde">
          214 -8 67 522 66 hstem
          38 82 395 83 vstem
          476 824 rmoveto
          -24 25 rlineto
          -8 hlineto
          -25 -26 -16 -21 -15 hhcurveto
          -25 -88 31 5 -42 hvcurveto
          -10 -3 -61 -69 rlineto
          -7 vlineto
          24 -26 rlineto
          9 hlineto
          25 25 16 22 15 hhcurveto
          26 88 -33 -4 41 hvcurveto
          10 3 61 69 rlineto
          -150 -169 rmoveto
          -185 -103 -118 -214 -206 98 -117 174 184 104 123 218 202 -97 112 -175 hvcurveto
          -7 -66 rmoveto
          131 65 -84 -178 -175 -68 -85 -132 -130 -65 86 180 172 66 84 133 hvcurveto
          endchar
        </CharString>
        <CharString name="P">
          99 21 -21 225 66 283.5 67.5 hstem
          95.5 77 230.5 82 vstem
          93 641 rmoveto
          5 -448 -5 -193 rlineto
          81 hlineto
          -4 200 rlineto
          25 76 vlineto
          150 89 87 142 121 -71 67 -125 hvcurveto
          -118 -350 rmoveto
          3 281 97 3 rlineto
          86 -3 46 -40 -86 vvcurveto
          -90 -44 -54 -83 -13 vhcurveto
          endchar
        </CharString>
        <CharString name="Q">
          218 -171 -21 184 67 522 66 hstem
          38 82 395 83 vstem
          730 -128 rmoveto
          -119 22 -108 46 -94 66 rrcurveto
          121 38 68 114 172 vvcurveto
          205 -97 112 -175 -185 -103 -118 -214 -206 97 -117 177 vhcurveto
          24 1 102 -89 124 -63 127 -33 rlinecurve
          7 3 15 13 9 13 13 25 rlinecurve
          -613 460 rmoveto
          175 65 84 133 131 66 -84 -174 -178 -70 -86 -128 -131 -66 86 177 vhcurveto
          endchar
        </CharString>
        <CharString name="Q.corta">
          218 -167 -21 180 67 522 66 hstem
          38 82 395 83 vstem
          640 -120 rmoveto
          -96 35 -75 41 -60 50 rrcurveto
          121 38 68 114 172 vvcurveto
          205 -97 112 -175 -185 -103 -118 -214 -206 97 -117 177 vhcurveto
          22 1 70 -72 86 -57 108 -52 rlinecurve
          8 3 14 14 12 18 11 24 rlinecurve
          -523 451 rmoveto
          175 65 84 133 131 66 -84 -173 -179 -69 -86 -130 -130 -66 87 176 vhcurveto
          endchar
        </CharString>
        <CharString name="R">
          134 12 -21 30 -21 238 66.5 270 67.5 hstemhm
          95.5 77 230.5 83 hintmask 01111100
          354 259 rmoveto
          83 39 49 72 89 vvcurveto
          118 -72 65 -125 vhcurveto
          -196 -1 5 -448 -5 -193 rlineto
          81 hlineto
          -4 200 rlineto
          38 117 vlineto
          hintmask 10111100
          45 -81 50 -81 52 -78 11 -7 rcurveline
          26 3 24 6 24 9 1 10 rcurveline
          hintmask 01111100
          -60 79 -56 79 -50 82 rrcurveto
          -183 47 rmoveto
          3 267 97 3 rlineto
          86 -3 46 -38 -83 vvcurveto
          -78 -39 -50 -73 -21 vhcurveto
          endchar
        </CharString>
        <CharString name="Racute">
          134 12 -21 30 -21 238 66.5 270 67.5 hstemhm
          95.5 77 230.5 83 hintmask 01111100
          226 702 rmoveto
          9 -1 57 40 54 41 59 46 rlinecurve
          2 8 -30 42 -9 1 -56 -55 -53 -45 -55 -45 rlinecurve
          150 -476 rmoveto
          84 39 48 72 90 vvcurveto
          118 -71 65 -125 vhcurveto
          -197 -1 5 -448 -5 -193 rlineto
          81 hlineto
          -4 200 rlineto
          38 117 vlineto
          hintmask 10111100
          45 -81 50 -81 52 -78 11 -7 rcurveline
          26 3 24 6 24 9 1 10 rcurveline
          hintmask 01111100
          -60 78 -55 80 -51 81 rrcurveto
          -183 48 rmoveto
          3 267 97 3 rlineto
          86 -3 46 -38 -83 vvcurveto
          -78 -39 -50 -72 -21 vhcurveto
          endchar
        </CharString>
        <CharString name="Rcaron">
          134 12 -21 30 -21 238 66.5 270 67.5 hstemhm
          95.5 77 230.5 83 hintmask 01111100
          290 704 rmoveto
          43 51 40 44 39 39 -22 32 rcurveline
          -10 hlineto
          -37 -36 -34 -34 -31 -34 -30 34 -34 34 -38 36 rrcurveto
          -9 hlineto
          -22 -32 42 -41 40 -45 39 -48 rlinecurve
          88 -446 rmoveto
          84 39 48 72 90 vvcurveto
          118 -71 65 -125 vhcurveto
          -197 -1 5 -448 -5 -193 rlineto
          81 hlineto
          -4 200 rlineto
          38 117 vlineto
          hintmask 10111100
          45 -81 50 -81 52 -78 11 -7 rcurveline
          26 3 24 6 24 9 1 10 rcurveline
          hintmask 01111100
          -60 78 -55 80 -51 81 rrcurveto
          -183 48 rmoveto
          3 267 97 3 rlineto
          86 -3 46 -38 -83 vvcurveto
          -78 -39 -50 -72 -21 vhcurveto
          endchar
        </CharString>
        <CharString name="Rcommaaccent">
          134 12 -21 30 -21 238 66.5 270 67.5 hstemhm
          95.5 77 101.5 62 67 83 hintmask 01111110
          354 258 rmoveto
          84 39 48 72 90 vvcurveto
          118 -71 65 -125 vhcurveto
          -197 -1 5 -448 -5 -193 rlineto
          81 hlineto
          -4 200 rlineto
          38 117 vlineto
          hintmask 10111110
          45 -81 50 -81 52 -78 11 -7 rcurveline
          26 3 24 6 24 9 1 10 rcurveline
          hintmask 01111110
          -60 78 -55 80 -51 81 rrcurveto
          -183 48 rmoveto
          3 267 97 3 rlineto
          86 -3 46 -38 -83 vvcurveto
          -78 -39 -50 -72 -21 vhcurveto
          5 -358 rmoveto
          -19 -6 -18 -9 -15 -10 rrcurveto
          -7 vlineto
          18 -13 11 -15 -17 vvcurveto
          -27 -18 -28 -34 -27 vhcurveto
          -6 vlineto
          26 -23 rlineto
          59 43 29 41 41 vvcurveto
          25 -14 21 -25 17 vhcurveto
          endchar
        </CharString>
        <CharString name="S">
          51 -7 65 523 65 hstem
          58 78 214 79 vstem
          267 646 rmoveto
          -124 -85 -79 -99 hvcurveto
          -186 292 19 -135 vvcurveto
          -55 -48 -53 -80 -48 -62 19 48 -49 vhcurveto
          -11 -5 -10 -82 rlineto
          -30 53 64 -15 55 hhcurveto
          129 86 84 100 hvcurveto
          185 -293 -13 128 vvcurveto
          50 43 54 78 42 45 -16 -30 39 vhcurveto
          14 4 13 77 rlineto
          22 -54 -51 8 -38 hhcurveto
          endchar
        </CharString>
        <CharString name="Sacute">
          51 -7 65 523 65 hstem
          58 78 214 79 vstem
          347 878 rmoveto
          -9 1 -56 -55 -53 -45 -55 -45 rlinecurve
          22 -32 9 -1 57 40 54 41 59 46 rlinecurve
          2 8 rlineto
          -110 -190 rmoveto
          -124 -85 -79 -99 hvcurveto
          -186 292 19 -135 vvcurveto
          -55 -48 -53 -80 -48 -62 19 48 -49 vhcurveto
          -11 -5 -10 -82 rlineto
          -30 53 64 -15 55 hhcurveto
          129 86 84 100 hvcurveto
          185 -293 -13 128 vvcurveto
          50 43 54 78 42 45 -16 -30 39 vhcurveto
          14 4 13 77 rlineto
          22 -54 -51 8 -38 hhcurveto
          endchar
        </CharString>
        <CharString name="Scaron">
          51 -7 65 523 65 hstem
          58 78 214 79 vstem
          359 870 rmoveto
          -10 hlineto
          -37 -36 -34 -34 -31 -34 -30 34 -34 34 -38 36 rrcurveto
          -9 hlineto
          -22 -32 42 -41 40 -45 39 -48 rlinecurve
          24 hlineto
          43 51 40 44 39 39 rrcurveto
          -114 -192 rmoveto
          -124 -85 -79 -99 hvcurveto
          -186 292 19 -135 vvcurveto
          -55 -48 -53 -80 -48 -62 19 48 -49 vhcurveto
          -11 -5 -10 -82 rlineto
          -30 53 64 -15 55 hhcurveto
          129 86 84 100 hvcurveto
          185 -293 -13 128 vvcurveto
          50 43 54 78 42 45 -16 -30 39 vhcurveto
          14 4 13 77 rlineto
          22 -54 -51 8 -38 hhcurveto
          endchar
        </CharString>
        <CharString name="Scedilla">
          51 -193 41 145 65 523 65 hstem
          58 78 122 53 39 79 vstem
          429 177 rmoveto
          185 -293 -13 128 vvcurveto
          50 43 54 78 42 45 -16 -30 39 vhcurveto
          14 4 13 77 rlineto
          22 -54 -51 8 -38 hhcurveto
          -124 -85 -79 -99 hvcurveto
          -186 292 19 -135 vvcurveto
          -55 -48 -53 -80 -48 -62 19 48 -49 vhcurveto
          -11 -5 -10 -82 51 -29 60 -15 54 -1 rlinecurve
          -18 -64 48 -29 rlineto
          12 -7 9 -6 -12 vvcurveto
          -17 -13 -10 -18 -25 -15 12 19 -17 vhcurveto
          -5 -1 -7 -40 rlineto
          -16 15 24 -15 33 hhcurveto
          48 33 27 39 22 -10 18 -28 16 hvcurveto
          -34 20 14 47 rlineto
          107 15 69 76 90 vvcurveto
          endchar
        </CharString>
        <CharString name="Scircumflex">
          51 -7 65 523 65 hstem
          58 78 214 79 vstem
          136 705 rmoveto
          10 hlineto
          37 36 34 34 31 34 30 -34 34 -34 38 -36 rrcurveto
          9 hlineto
          22 32 -42 41 -40 45 -39 48 rlinecurve
          -24 hlineto
          -43 -51 -40 -44 -39 -39 rrcurveto
          153 -91 rmoveto
          -124 -85 -79 -99 hvcurveto
          -186 292 19 -135 vvcurveto
          -55 -48 -53 -80 -48 -62 19 48 -49 vhcurveto
          -11 -5 -10 -82 rlineto
          -30 53 64 -15 55 hhcurveto
          129 86 84 100 hvcurveto
          185 -293 -13 128 vvcurveto
          50 43 54 78 42 45 -16 -30 39 vhcurveto
          14 4 13 77 rlineto
          22 -54 -51 8 -38 hhcurveto
          endchar
        </CharString>
        <CharString name="Scommaaccent">
          51 -7 65 523 65 hstem
          58 78 88 62 64 79 vstem
          267 646 rmoveto
          -124 -85 -79 -99 hvcurveto
          -186 292 19 -135 vvcurveto
          -55 -48 -53 -80 -48 -62 19 48 -49 vhcurveto
          -11 -5 -10 -82 rlineto
          -30 53 64 -15 55 hhcurveto
          129 86 84 100 hvcurveto
          185 -293 -13 128 vvcurveto
          50 43 54 78 42 45 -16 -30 39 vhcurveto
          14 4 13 77 rlineto
          22 -54 -51 8 -38 hhcurveto
          -20 -701 rmoveto
          -19 -6 -18 -9 -15 -10 rrcurveto
          -7 vlineto
          18 -13 11 -15 -17 vvcurveto
          -27 -18 -28 -34 -27 vhcurveto
          -6 vlineto
          26 -23 rlineto
          59 43 29 41 41 vvcurveto
          25 -14 21 -25 17 vhcurveto
          endchar
        </CharString>
        <CharString name="T">
          69 21 -21 577 64 -8 8 hstemhm
          208.5 76 hintmask 00000000
          hintmask 10110000
          469 633 rmoveto
          -6 8 rlineto
          hintmask 11010000
          -435 hlineto
          -6 -62 5 -8 114 6 rlineto
          65 hlineto
          5 -384 -6 -193 rlineto
          81 hlineto
          -3 200 3 377 rlineto
          65 hlineto
          112 -6 rlineto
          endchar
        </CharString>
        <CharString name="Tbar">
          69 21 -21 295 50 232 64 -8 8 hstemhm
          207 78 hintmask 11101000
          286 577 rmoveto
          65 hlineto
          112 -6 rlineto
          hintmask 11011000
          6 62 -5 8 rlineto
          hintmask 11101000
          -435 hlineto
          -7 -62 6 -8 114 6 rlineto
          64 hlineto
          2 -232 rlineto
          -96 hlineto
          -4 -44 6 -6 rlineto
          95 hlineto
          1 -102 -5 -193 rlineto
          81 hlineto
          -4 200 1 95 rlineto
          108 hlineto
          4 45 -7 5 rlineto
          -104 hlineto
          endchar
        </CharString>
        <CharString name="Tcaron">
          69 21 -21 577 64 -8 8 hstemhm
          208 76 hintmask 11010000
          260 704 rmoveto
          43 51 40 44 39 39 -22 32 rcurveline
          -10 hlineto
          -37 -36 -34 -34 -31 -34 -30 34 -34 34 -38 36 rrcurveto
          -9 hlineto
          -22 -32 42 -41 40 -45 39 -48 rlinecurve
          hintmask 10110000
          233 -71 rmoveto
          -5 8 rlineto
          hintmask 11010000
          -435 hlineto
          -7 -62 6 -8 114 6 rlineto
          64 hlineto
          4 -384 -5 -193 rlineto
          81 hlineto
          -4 200 4 377 rlineto
          65 hlineto
          112 -6 rlineto
          endchar
        </CharString>
        <CharString name="Tcedilla">
          69 -193 41 173 -21 577 64 -8 8 hstemhm
          208 76 -15 53 hintmask 00000000
          hintmask 11011000
          469 633 rmoveto
          -5 8 rlineto
          hintmask 11101000
          -435 hlineto
          -7 -62 6 -8 114 6 rlineto
          64 hlineto
          4 -384 -5 -193 rlineto
          hintmask 11100100
          15 hlineto
          -20 -71 48 -29 rlineto
          12 -7 9 -6 -12 vvcurveto
          -17 -13 -10 -18 -25 -15 12 19 -17 vhcurveto
          -5 -1 -7 -40 rlineto
          -16 15 24 -15 33 hhcurveto
          48 33 27 39 22 -10 18 -28 16 hvcurveto
          hintmask 11101000
          -34 20 15 51 rlineto
          21 hlineto
          -4 200 4 377 rlineto
          65 hlineto
          112 -6 rlineto
          endchar
        </CharString>
        <CharString name="Tcommaaccent">
          69 21 -21 577 64 -8 8 hstemhm
          208 76 -48 62 hintmask 00000000
          hintmask 10110000
          469 633 rmoveto
          -5 8 rlineto
          hintmask 11010000
          -435 hlineto
          -7 -62 6 -8 114 6 rlineto
          64 hlineto
          4 -384 -5 -193 rlineto
          81 hlineto
          -4 200 4 377 rlineto
          65 hlineto
          112 -6 rlineto
          hintmask 11001000
          -204 -626 rmoveto
          -19 -6 -18 -9 -15 -10 rrcurveto
          -7 vlineto
          18 -13 11 -15 -17 vvcurveto
          -27 -18 -28 -34 -27 vhcurveto
          -6 vlineto
          26 -23 rlineto
          59 43 29 41 41 vvcurveto
          25 -14 21 -25 17 vhcurveto
          endchar
        </CharString>
        <CharString name="Thorn">
          104 21 -21 116 65 283.5 66.5 110 -20 hstem
          95.5 75.5 234 83 vstem
          174 530 rmoveto
          1 111 rlineto
          -81 hlineto
          3 -448 -3 -193 rlineto
          80 hlineto
          -2 115 76 1 rlineto
          154 86 82 144 123 -71 66 -126 hvcurveto
          -120 -349 rmoveto
          18 vlineto
          2 263 100 3 rlineto
          86 -4 46 -41 -85 vvcurveto
          -91 -46 -50 -82 -15 vhcurveto
          endchar
        </CharString>
        <CharString name="U">
          205 -7 70 578 -20 hstem
          74.5 77 322.5 77.5 vstem
          551 315 rmoveto
          1 326 rlineto
          -80 hlineto
          4 -407 rlineto
          -114 1 -57 -57 -108 hhcurveto
          -108 -55 61 120 1 hvcurveto
          3 397 rlineto
          -79 hlineto
          1 -320 -1 -87 rlineto
          -154 -3 84 -87 151 hhcurveto
          157 90 92 158 -3 hvcurveto
          endchar
        </CharString>
        <CharString name="Uacute">
          205 -7 70 578 -20 hstem
          74.5 76.5 325 75 vstem
          433 861 rmoveto
          -9 2 -68 -40 -61 -32 -63 -31 rlinecurve
          14 -36 10 -4 64 27 62 27 69 32 rlinecurve
          2 8 rlineto
          97 -499 rmoveto
          2 326 rlineto
          -80 hlineto
          4 -407 rlineto
          -114 -57 -57 -107 -108 -56 61 120 1 vhcurveto
          4 397 rlineto
          -79 hlineto
          1 -320 -1 -87 rlineto
          -154 -3 83 -87 152 hhcurveto
          157 89 92 158 -3 hvcurveto
          endchar
        </CharString>
        <CharString name="Ubreve">
          205 -7 70 578 -20 88 57 hstem
          74.5 76.5 325 75 vstem
          420 853 rmoveto
          -12 hlineto
          -59 -13 -30 -28 -49 hhcurveto
          -48 -31 28 59 -13 hvcurveto
          -12 hlineto
          -22 -29 rlineto
          -70 14 39 -45 71 hhcurveto
          72 40 43 72 17 hvcurveto
          107 -509 rmoveto
          2 326 rlineto
          -80 hlineto
          4 -407 rlineto
          -114 -57 -57 -107 -108 -56 61 120 1 vhcurveto
          4 397 rlineto
          -79 hlineto
          1 -320 -1 -87 rlineto
          -154 -3 83 -87 152 hhcurveto
          157 89 92 158 -3 hvcurveto
          endchar
        </CharString>
        <CharString name="Ucaron">
          205 -7 70 578 -20 hstem
          74.5 76.5 325 75 vstem
          427 870 rmoveto
          -10 hlineto
          -37 -36 -34 -34 -31 -34 -30 34 -34 34 -38 36 rrcurveto
          -9 hlineto
          -22 -32 42 -41 40 -45 39 -48 rlinecurve
          24 hlineto
          43 51 40 44 39 39 rrcurveto
          101 -523 rmoveto
          2 326 rlineto
          -80 hlineto
          4 -407 rlineto
          -114 -57 -57 -107 -108 -56 61 120 1 vhcurveto
          4 397 rlineto
          -79 hlineto
          1 -320 -1 -87 rlineto
          -154 -3 83 -87 152 hhcurveto
          157 89 92 158 -3 hvcurveto
          endchar
        </CharString>
        <CharString name="Ucircumflex">
          205 -7 70 578 -20 hstem
          74.5 76.5 325 75 vstem
          203 733 rmoveto
          10 hlineto
          35 22 33 21 34 23 34 -23 33 -21 36 -22 rrcurveto
          9 hlineto
          16 34 -41 29 -40 30 -36 32 rlinecurve
          -23 hlineto
          -35 -32 -39 -30 -42 -29 rrcurveto
          363 -452 rmoveto
          2 326 rlineto
          -80 hlineto
          4 -407 rlineto
          -114 -57 -57 -107 -108 -56 61 120 1 vhcurveto
          4 397 rlineto
          -79 hlineto
          1 -320 -1 -87 rlineto
          -154 -3 83 -87 152 hhcurveto
          157 89 92 158 -3 hvcurveto
          endchar
        </CharString>
        <CharString name="Udieresis">
          205 -7 70 578 -20 123 89 hstem
          74.5 76.5 43 87 70 87 38 75 vstem
          239 833 rmoveto
          -28 -17 -18 -27 -27 15 -17 27 28 17 19 28 26 -16 16 -26 hvcurveto
          157 hmoveto
          -28 -17 -18 -27 -27 15 -17 27 28 17 19 28 26 -16 16 -26 hvcurveto
          154 -518 rmoveto
          2 326 rlineto
          -80 hlineto
          4 -407 rlineto
          -114 -57 -57 -107 -108 -56 61 120 1 vhcurveto
          4 397 rlineto
          -79 hlineto
          1 -320 -1 -87 rlineto
          -154 -3 83 -87 152 hhcurveto
          157 89 92 158 -3 hvcurveto
          endchar
        </CharString>
        <CharString name="Udieresisacute">
          205 -7 70 578 -20 106 84 hstem
          74.5 76.5 43 83 74 83 42 75 vstem
          415 971 rmoveto
          -8 3 -74 -27 -65 -21 -68 -20 rlinecurve
          7 -38 9 -5 68 15 67 15 72 19 rlinecurve
          5 9 rlineto
          -191 -110 rmoveto
          -27 -16 -17 -26 -26 15 -15 25 27 16 17 26 25 -16 16 -24 hvcurveto
          157 hmoveto
          -27 -16 -17 -26 -26 16 -15 24 27 16 17 26 25 -15 16 -25 hvcurveto
          156 -496 rmoveto
          2 326 rlineto
          -80 hlineto
          4 -407 rlineto
          -114 -57 -57 -107 -108 -56 61 120 1 vhcurveto
          4 397 rlineto
          -79 hlineto
          1 -320 -1 -87 rlineto
          -154 -3 83 -87 152 hhcurveto
          157 89 92 158 -3 hvcurveto
          endchar
        </CharString>
        <CharString name="Udieresiscaron">
          205 -7 70 578 -20 106 84 hstem
          74.5 76.5 43 83 74 83 42 75 vstem
          427 958 rmoveto
          -10 hlineto
          -35 -22 -33 -22 -34 -22 -34 22 -33 22 -36 22 rrcurveto
          -9 hlineto
          -16 -34 41 -29 40 -31 36 -30 rlinecurve
          23 hlineto
          35 30 39 31 42 29 rrcurveto
          -206 -113 rmoveto
          -27 -16 -17 -26 -26 15 -15 25 27 16 17 26 25 -16 16 -24 hvcurveto
          157 hmoveto
          -27 -16 -17 -26 -26 16 -15 24 27 16 17 26 25 -15 16 -25 hvcurveto
          156 -496 rmoveto
          2 326 rlineto
          -80 hlineto
          4 -407 rlineto
          -114 -57 -57 -107 -108 -56 61 120 1 vhcurveto
          4 397 rlineto
          -79 hlineto
          1 -320 -1 -87 rlineto
          -154 -3 83 -87 152 hhcurveto
          157 89 92 158 -3 hvcurveto
          endchar
        </CharString>
        <CharString name="Udieresisgrave">
          205 -7 70 578 -20 106 84 hstem
          74.5 76.5 43 83 74 83 42 75 vstem
          212 971 rmoveto
          -12 -50 5 -9 72 -19 66 -15 68 -15 rlinecurve
          8 5 9 38 -68 20 -67 21 -72 27 rlinecurve
          16 -163 rmoveto
          -27 -16 -17 -26 -26 15 -15 25 27 16 17 26 25 -16 16 -24 hvcurveto
          157 hmoveto
          -27 -16 -17 -26 -26 16 -15 24 27 16 17 26 25 -15 16 -25 hvcurveto
          156 -496 rmoveto
          2 326 rlineto
          -80 hlineto
          4 -407 rlineto
          -114 -57 -57 -107 -108 -56 61 120 1 vhcurveto
          4 397 rlineto
          -79 hlineto
          1 -320 -1 -87 rlineto
          -154 -3 83 -87 152 hhcurveto
          157 89 92 158 -3 hvcurveto
          endchar
        </CharString>
        <CharString name="Udieresismacron">
          205 -7 70 578 -20 106 84 66 53 hstem
          74.5 76.5 43 83 74 83 42 75 vstem
          450 924 rmoveto
          -6 6 rlineto
          -259 hlineto
          -5 -47 7 -6 rlineto
          258 hlineto
          -208 -66 rmoveto
          -27 -16 -17 -26 -26 15 -15 25 27 16 17 26 25 -16 16 -24 hvcurveto
          157 hmoveto
          -27 -16 -17 -26 -26 16 -15 24 27 16 17 26 25 -15 16 -25 hvcurveto
          156 -496 rmoveto
          2 326 rlineto
          -80 hlineto
          4 -407 rlineto
          -114 -57 -57 -107 -108 -56 61 120 1 vhcurveto
          4 397 rlineto
          -79 hlineto
          1 -320 -1 -87 rlineto
          -154 -3 83 -87 152 hhcurveto
          157 89 92 158 -3 hvcurveto
          endchar
        </CharString>
        <CharString name="Udotbelow">
          205 -163 93 63 70 578 -20 hstem
          74.5 76.5 113 91 121 75 vstem
          550 315 rmoveto
          2 326 rlineto
          -80 hlineto
          4 -407 rlineto
          -114 -57 -57 -107 -108 -56 61 120 1 vhcurveto
          4 397 rlineto
          -79 hlineto
          1 -320 -1 -87 rlineto
          -154 -3 83 -87 152 hhcurveto
          157 89 92 158 -3 hvcurveto
          -238 -313 rmoveto
          -29 -18 -19 -28 -29 16 -17 28 29 18 19 29 28 -17 17 -27 hvcurveto
          endchar
        </CharString>
        <CharString name="Ugrave">
          205 -7 70 578 -20 hstem
          74.5 76.5 325 75 vstem
          225 862 rmoveto
          -20 -47 2 -8 69 -32 62 -27 64 -27 rlinecurve
          10 4 14 36 -63 31 -61 32 -68 40 rlinecurve
          316 -549 rmoveto
          2 326 rlineto
          -80 hlineto
          4 -407 rlineto
          -114 -57 -57 -107 -108 -56 61 120 1 vhcurveto
          4 397 rlineto
          -79 hlineto
          1 -320 -1 -87 rlineto
          -154 -3 83 -87 152 hhcurveto
          157 89 92 158 -3 hvcurveto
          endchar
        </CharString>
        <CharString name="Uhookabove">
          205 -7 70 578 -20 229 44 hstem
          74.5 76.5 175 49 101 75 vstem
          312 894 rmoveto
          -29 -32 -16 -26 -25 hvcurveto
          16 -26 rlineto
          16 19 22 8 17 hhcurveto
          16 10 -7 -14 -17 -18 -25 -32 -23 hvcurveto
          32 -55 35 19 -20 34 rlineto
          36 30 16 21 24 vvcurveto
          32 -27 25 -36 vhcurveto
          238 -579 rmoveto
          2 326 rlineto
          -80 hlineto
          4 -407 rlineto
          -114 -57 -57 -107 -108 -56 61 120 1 vhcurveto
          4 397 rlineto
          -79 hlineto
          1 -320 -1 -87 rlineto
          -154 -3 83 -87 152 hhcurveto
          157 89 92 158 -3 hvcurveto
          endchar
        </CharString>
        <CharString name="Uhorn">
          215 -7 70 539 39 0 -20 hstemhm
          74.5 76.5 325 75 24 63 hintmask 00000000
          hintmask 10111100
          638 697 rmoveto
          45 -31 34 -23 -12 -14 -7 -9 -13 vhcurveto
          -3 -8 rlineto
          24 -21 9 -19 -20 vvcurveto
          -33 -23 -18 -42 vhcurveto
          hintmask 10111000
          -38 hlineto
          4 -407 rlineto
          -114 -57 -57 -107 -108 -56 61 120 1 vhcurveto
          4 397 rlineto
          -79 hlineto
          1 -320 -1 -87 rlineto
          -154 -3 83 -87 152 hhcurveto
          157 89 92 158 -3 hvcurveto
          1 72 rlineto
          hintmask 11011000
          2 287 rlineto
          hintmask 10111100
          52 13 34 36 46 vvcurveto
          endchar
        </CharString>
        <CharString name="Uhornacute">
          215 -7 70 539 39 0 -20 hstemhm
          74.5 76.5 325 75 24 63 hintmask 10111000
          245 725 rmoveto
          10 -4 64 27 62 27 69 32 rlinecurve
          2 8 -20 47 -9 2 -68 -40 -61 -32 -63 -31 rlinecurve
          hintmask 10111100
          407 -64 rmoveto
          45 -31 34 -23 -12 -14 -7 -9 -13 vhcurveto
          -3 -8 rlineto
          24 -21 9 -19 -20 vvcurveto
          -33 -23 -18 -42 vhcurveto
          hintmask 10111000
          -38 hlineto
          4 -407 rlineto
          -114 -57 -57 -107 -108 -56 61 120 1 vhcurveto
          4 397 rlineto
          -79 hlineto
          1 -320 -1 -87 rlineto
          -154 -3 83 -87 152 hhcurveto
          157 89 92 158 -3 hvcurveto
          1 72 rlineto
          hintmask 11011000
          2 287 rlineto
          hintmask 10111100
          52 13 34 36 46 vvcurveto
          endchar
        </CharString>
        <CharString name="Uhorndotbelow">
          215 -163 93 63 70 539 39 0 -20 hstemhm
          74.5 76.5 116 91 118 75 24 63 hintmask 00000000
          hintmask 11011011
          638 697 rmoveto
          45 -31 34 -23 -12 -14 -7 -9 -13 vhcurveto
          -3 -8 rlineto
          24 -21 9 -19 -20 vvcurveto
          -33 -23 -18 -42 vhcurveto
          hintmask 11011010
          -38 hlineto
          4 -407 rlineto
          -114 -57 -57 -107 -108 -56 61 120 1 vhcurveto
          4 397 rlineto
          -79 hlineto
          1 -320 -1 -87 rlineto
          -154 -3 83 -87 152 hhcurveto
          157 89 92 158 -3 hvcurveto
          1 72 rlineto
          hintmask 11101010
          2 287 rlineto
          hintmask 11011011
          52 13 34 36 46 vvcurveto
          hintmask 11011110
          -324 -767 rmoveto
          -29 -18 -19 -28 -29 16 -17 28 29 18 19 29 28 -17 17 -27 hvcurveto
          endchar
        </CharString>
        <CharString name="Uhorngrave">
          215 -7 70 539 39 0 -20 hstemhm
          74.5 76.5 325 75 24 63 hintmask 10111000
          412 726 rmoveto
          14 36 -63 31 -61 32 -68 40 rlinecurve
          -9 -2 -20 -47 2 -8 69 -32 62 -27 64 -27 rlinecurve
          hintmask 10111100
          236 -25 rmoveto
          45 -31 34 -23 -12 -14 -7 -9 -13 vhcurveto
          -3 -8 rlineto
          24 -21 9 -19 -20 vvcurveto
          -33 -23 -18 -42 vhcurveto
          hintmask 10111000
          -38 hlineto
          4 -407 rlineto
          -114 -57 -57 -107 -108 -56 61 120 1 vhcurveto
          4 397 rlineto
          -79 hlineto
          1 -320 -1 -87 rlineto
          -154 -3 83 -87 152 hhcurveto
          157 89 92 158 -3 hvcurveto
          1 72 rlineto
          hintmask 11011000
          2 287 rlineto
          hintmask 10111100
          52 13 34 36 46 vvcurveto
          endchar
        </CharString>
        <CharString name="Uhornhookabove">
          215 -7 70 539 39 0 -20 230 44 hstemhm
          74.5 76.5 174 49 102 75 24 63 hintmask 10111110
          299 851 rmoveto
          16 10 -7 -14 -17 -18 -25 -32 -23 hvcurveto
          32 -55 35 19 -20 34 rlineto
          36 30 16 21 24 vvcurveto
          32 -27 25 -36 -29 -32 -16 -26 -25 vhcurveto
          16 -26 rlineto
          16 19 22 8 17 hhcurveto
          hintmask 10111111
          339 -154 rmoveto
          45 -31 34 -23 -12 -14 -7 -9 -13 vhcurveto
          -3 -8 rlineto
          24 -21 9 -19 -20 vvcurveto
          -33 -23 -18 -42 vhcurveto
          hintmask 10111110
          -38 hlineto
          4 -407 rlineto
          -114 -57 -57 -107 -108 -56 61 120 1 vhcurveto
          4 397 rlineto
          -79 hlineto
          1 -320 -1 -87 rlineto
          -154 -3 83 -87 152 hhcurveto
          157 89 92 158 -3 hvcurveto
          1 72 rlineto
          hintmask 11011110
          2 287 rlineto
          hintmask 10111111
          52 13 34 36 46 vvcurveto
          endchar
        </CharString>
        <CharString name="Uhorntilde">
          215 -7 70 539 39 0 -20 hstemhm
          74.5 76.5 325 75 24 63 hintmask 10111000
          181 735 rmoveto
          9 hlineto
          25 25 16 22 15 hhcurveto
          26 88 -33 -4 41 hvcurveto
          10 3 61 69 rlineto
          8 vlineto
          -24 25 rlineto
          -8 hlineto
          -25 -26 -16 -21 -15 hhcurveto
          -25 -88 31 5 -42 hvcurveto
          -10 -3 -61 -69 rlineto
          -7 vlineto
          hintmask 10111100
          481 -64 rmoveto
          45 -31 34 -23 -12 -14 -7 -9 -13 vhcurveto
          -3 -8 rlineto
          24 -21 9 -19 -20 vvcurveto
          -33 -23 -18 -42 vhcurveto
          hintmask 10111000
          -38 hlineto
          4 -407 rlineto
          -114 -57 -57 -107 -108 -56 61 120 1 vhcurveto
          4 397 rlineto
          -79 hlineto
          1 -320 -1 -87 rlineto
          -154 -3 83 -87 152 hhcurveto
          157 89 92 158 -3 hvcurveto
          1 72 rlineto
          hintmask 11011000
          2 287 rlineto
          hintmask 10111100
          52 13 34 36 46 vvcurveto
          endchar
        </CharString>
        <CharString name="Uhungarumlaut">
          205 -7 70 578 -20 hstem
          74.5 76.5 325 75 vstem
          219 718 rmoveto
          9 1 41 37 39 35 38 38 rlinecurve
          9 vlineto
          -36 25 rlineto
          -8 hlineto
          -35 -42 -37 -39 -37 -40 rrcurveto
          169 -24 rmoveto
          9 1 40 37 39 35 39 38 rlinecurve
          9 vlineto
          -37 25 rlineto
          -7 hlineto
          -36 -42 -36 -39 -37 -40 rrcurveto
          214 -427 rmoveto
          2 326 rlineto
          -80 hlineto
          4 -407 rlineto
          -114 -57 -57 -107 -108 -56 61 120 1 vhcurveto
          4 397 rlineto
          -79 hlineto
          1 -320 -1 -87 rlineto
          -154 -3 83 -87 152 hhcurveto
          157 89 92 158 -3 hvcurveto
          endchar
        </CharString>
        <CharString name="Umacron">
          205 -7 70 578 -20 143 52 hstem
          74.5 76.5 325 75 vstem
          462 811 rmoveto
          -6 5 rlineto
          -283 hlineto
          -5 -46 6 -6 rlineto
          283 hlineto
          93 -449 rmoveto
          2 326 rlineto
          -80 hlineto
          4 -407 rlineto
          -114 -57 -57 -107 -108 -56 61 120 1 vhcurveto
          4 397 rlineto
          -79 hlineto
          1 -320 -1 -87 rlineto
          -154 -3 83 -87 152 hhcurveto
          157 89 92 158 -3 hvcurveto
          endchar
        </CharString>
        <CharString name="Uogonek">
          205 -197 53 137 70 578 -20 hstem
          74.5 76.5 184 51 90 75 vstem
          550 315 rmoveto
          2 326 rlineto
          -80 hlineto
          4 -407 rlineto
          -114 -57 -57 -107 -108 -56 61 120 1 vhcurveto
          4 397 rlineto
          -79 hlineto
          1 -320 -1 -87 rlineto
          -154 -3 83 -87 152 hhcurveto
          32 29 4 7 26 hvcurveto
          -36 -55 rlineto
          -16 -24 -6 -22 -20 vvcurveto
          -48 31 -32 47 36 32 19 34 31 vhcurveto
          -12 38 rlineto
          -4 hlineto
          -26 -24 -26 -12 -23 hhcurveto
          -25 -12 13 21 14 6 19 11 17 hvcurveto
          60 98 58 42 30 70 -2 93 rlinecurve
          endchar
        </CharString>
        <CharString name="Uring">
          205 -7 70 578 -20 93 38 88 39 hstem
          74.5 76.5 79 38 91 39 78 75 vstem
          315 879 rmoveto
          -53 -32 -33 -50 -53 35 -29 47 48 38 30 54 46 -29 35 -54 hvcurveto
          -2 -39 rmoveto
          31 15 -18 -27 -29 -19 -14 -26 -27 -19 15 30 27 16 16 29 hvcurveto
          237 -525 rmoveto
          2 326 rlineto
          -80 hlineto
          4 -407 rlineto
          -114 -57 -57 -107 -108 -56 61 120 1 vhcurveto
          4 397 rlineto
          -79 hlineto
          1 -320 -1 -87 rlineto
          -154 -3 83 -87 152 hhcurveto
          157 89 92 158 -3 hvcurveto
          endchar
        </CharString>
        <CharString name="Utilde">
          205 -7 70 578 -20 hstem
          74.5 76.5 325 75 vstem
          472 824 rmoveto
          -24 25 rlineto
          -8 hlineto
          -25 -26 -16 -21 -15 hhcurveto
          -25 -88 31 5 -42 hvcurveto
          -10 -3 -61 -69 rlineto
          -7 vlineto
          24 -26 rlineto
          9 hlineto
          25 25 16 22 15 hhcurveto
          26 88 -33 -4 41 hvcurveto
          10 3 61 69 rlineto
          78 -501 rmoveto
          2 326 rlineto
          -80 hlineto
          4 -407 rlineto
          -114 -57 -57 -107 -108 -56 61 120 1 vhcurveto
          4 397 rlineto
          -79 hlineto
          1 -320 -1 -87 rlineto
          -154 -3 83 -87 152 hhcurveto
          157 89 92 158 -3 hvcurveto
          endchar
        </CharString>
        <CharString name="V">
          143 0 81 560 -20 hstem
          15 542 vstem
          322 hmoveto
          235 641 rlineto
          -80 hlineto
          -16 -69 -180 -491 rlineto
          -6 hlineto
          -163 495 -15 65 rlineto
          -82 hlineto
          214 -641 rlineto
          endchar
        </CharString>
        <CharString name="V.ss01">
          79 0 35 -35 78 386 34 hstemhm
          -100 700 hintmask 10110000
          465 464 rmoveto
          135 34 -700 -34 142 hlineto
          151 -429 rlineto
          -293 -35 700 35 -299 hlineto
          96 429 rmoveto
          -6 -29 rlineto
          hintmask 01110000
          -140 -357 rlineto
          -5 hlineto
          -126 360 -6 26 rlineto
          endchar
        </CharString>
        <CharString name="W">
          472 0 89 552 -20 hstem
          21 864 vstem
          655 hmoveto
          230 641 rlineto
          -76 hlineto
          -15 -66 -174 -486 rlineto
          -6 hlineto
          -158 483 -15 69 rlineto
          -82 hlineto
          54 -162 -138 -390 rlineto
          -7 hlineto
          -156 490 -11 62 rlineto
          -80 hlineto
          204 -641 rlineto
          83 hlineto
          132 372 rlineto
          7 hlineto
          125 -372 rlineto
          endchar
        </CharString>
        <CharString name="Wacute">
          472 0 89 552 -20 hstem
          21 863 vstem
          557 861 rmoveto
          -9 2 -68 -40 -61 -32 -63 -31 rlinecurve
          14 -36 10 -4 64 27 62 27 69 32 rlinecurve
          2 8 rlineto
          78 -814 rmoveto
          229 641 rlineto
          -75 hlineto
          -15 -66 -174 -486 rlineto
          -6 hlineto
          -158 483 -16 69 rlineto
          -82 hlineto
          55 -162 -138 -390 rlineto
          -7 hlineto
          -156 490 -12 62 rlineto
          -79 hlineto
          204 -641 rlineto
          83 hlineto
          132 372 rlineto
          7 hlineto
          125 -372 rlineto
          endchar
        </CharString>
        <CharString name="Wcircumflex">
          472 0 89 552 -20 hstem
          21 863 vstem
          327 733 rmoveto
          10 hlineto
          35 22 33 21 34 23 34 -23 33 -21 36 -22 rrcurveto
          9 hlineto
          16 34 -41 29 -40 30 -36 32 rlinecurve
          -23 hlineto
          -35 -32 -39 -30 -42 -29 rrcurveto
          344 -767 rmoveto
          229 641 rlineto
          -75 hlineto
          -15 -66 -174 -486 rlineto
          -6 hlineto
          -158 483 -16 69 rlineto
          -82 hlineto
          55 -162 -138 -390 rlineto
          -7 hlineto
          -156 490 -12 62 rlineto
          -79 hlineto
          204 -641 rlineto
          83 hlineto
          132 372 rlineto
          7 hlineto
          125 -372 rlineto
          endchar
        </CharString>
        <CharString name="Wdieresis">
          472 0 89 552 -20 123 89 hstem
          318 87 70 87 vstem
          363 833 rmoveto
          -28 -17 -18 -27 -27 15 -17 27 28 17 19 28 26 -16 16 -26 hvcurveto
          157 hmoveto
          -28 -17 -18 -27 -27 15 -17 27 28 17 19 28 26 -16 16 -26 hvcurveto
          135 -833 rmoveto
          229 641 rlineto
          -75 hlineto
          -15 -66 -174 -486 rlineto
          -6 hlineto
          -158 483 -16 69 rlineto
          -82 hlineto
          55 -162 -138 -390 rlineto
          -7 hlineto
          -156 490 -12 62 rlineto
          -79 hlineto
          204 -641 rlineto
          83 hlineto
          132 372 rlineto
          7 hlineto
          125 -372 rlineto
          endchar
        </CharString>
        <CharString name="Wgrave">
          472 0 89 552 -20 hstem
          21 863 vstem
          349 862 rmoveto
          -20 -47 2 -8 69 -32 62 -27 64 -27 rlinecurve
          10 4 14 36 -63 31 -61 32 -68 40 rlinecurve
          297 -864 rmoveto
          229 641 rlineto
          -75 hlineto
          -15 -66 -174 -486 rlineto
          -6 hlineto
          -158 483 -16 69 rlineto
          -82 hlineto
          55 -162 -138 -390 rlineto
          -7 hlineto
          -156 490 -12 62 rlineto
          -79 hlineto
          204 -641 rlineto
          83 hlineto
          132 372 rlineto
          7 hlineto
          125 -372 rlineto
          endchar
        </CharString>
        <CharString name="X">
          168 21 -21 641 -20 hstem
          23 537 vstem
          341 334 rmoveto
          203 307 rlineto
          -87 hlineto
          -26 -50 -139 -206 -138 205 -26 51 rlineto
          -97 hlineto
          209 -317 -217 -324 rlineto
          85 hlineto
          26 47 153 224 148 -219 28 -52 rlineto
          97 hlineto
          endchar
        </CharString>
        <CharString name="X.ss01">
          99 0 35 429 34 hstem
          -100 720 vstem
          304 260 rmoveto
          144 204 rlineto
          172 34 -720 -34 166 hlineto
          150 -213 -156 -216 rlineto
          -160 -35 720 35 -159 hlineto
          -199 270 rmoveto
          -103 141 -9 18 rlineto
          226 hlineto
          -9 -17 rlineto
          -110 -242 rmoveto
          111 -150 10 -20 rlineto
          -246 hlineto
          9 16 rlineto
          endchar
        </CharString>
        <CharString name="Y">
          107 21 -21 641 -20 hstem
          217 76.5 vstem
          292 187 rmoveto
          1 43 222 411 rlineto
          -85 hlineto
          -15 -38 -153 -286 rlineto
          -8 hlineto
          -140 288 -13 36 rlineto
          -86 hlineto
          204 -411 1 -43 -6 -187 rlineto
          81 hlineto
          endchar
        </CharString>
        <CharString name="Yacute">
          107 21 -21 641 -20 hstem
          216.5 76.5 vstem
          188 724 rmoveto
          10 -4 64 27 62 27 69 32 rlinecurve
          2 8 -20 47 -9 2 -68 -40 -61 -32 -63 -31 rlinecurve
          117 -573 rmoveto
          1 41 223 413 rlineto
          -85 hlineto
          -15 -38 -153 -286 rlineto
          -8 hlineto
          -140 288 -13 36 rlineto
          -86 hlineto
          203 -410 1 -44 -5 -187 rlineto
          81 hlineto
          endchar
        </CharString>
        <CharString name="Ycircumflex">
          107 21 -21 641 -20 hstem
          216.5 76.5 vstem
          146 733 rmoveto
          10 hlineto
          35 22 33 21 34 23 34 -23 33 -21 36 -22 rrcurveto
          9 hlineto
          16 34 -41 29 -40 30 -36 32 rlinecurve
          -23 hlineto
          -35 -32 -39 -30 -42 -29 rrcurveto
          161 -580 rmoveto
          1 41 223 413 rlineto
          -85 hlineto
          -15 -38 -153 -286 rlineto
          -8 hlineto
          -140 288 -13 36 rlineto
          -86 hlineto
          203 -410 1 -44 -5 -187 rlineto
          81 hlineto
          endchar
        </CharString>
        <CharString name="Ydieresis">
          107 21 -21 641 -20 123 89 hstemhm
          137 87 -7.5 76.5 1 87 hintmask 00000000
          hintmask 11110100
          179 744 rmoveto
          28 17 19 28 26 -16 16 -26 -28 -17 -18 -27 -27 15 -17 27 hvcurveto
          157 hmoveto
          28 17 19 28 26 -16 16 -26 -28 -17 -18 -27 -27 15 -17 27 hvcurveto
          hintmask 11101000
          -45 -557 rmoveto
          1 41 223 413 rlineto
          -85 hlineto
          -15 -38 -153 -286 rlineto
          -8 hlineto
          -140 288 -13 36 rlineto
          -86 hlineto
          203 -410 1 -44 -5 -187 rlineto
          81 hlineto
          endchar
        </CharString>
        <CharString name="Ydotbelow">
          107 -163 93 91 -21 641 -20 hstemhm
          209 91 -83.5 76.5 hintmask 11101000
          218 231 rmoveto
          1 -44 -5 -187 rlineto
          81 hlineto
          -4 187 1 41 223 413 rlineto
          -85 hlineto
          -15 -38 -153 -286 rlineto
          -8 hlineto
          -140 288 -13 36 rlineto
          -86 hlineto
          hintmask 11110000
          241 -711 rmoveto
          -29 -18 -19 -28 -29 16 -17 28 29 18 19 29 28 -17 17 -27 hvcurveto
          endchar
        </CharString>
        <CharString name="Ygrave">
          107 21 -21 641 -20 hstem
          216.5 76.5 vstem
          355 725 rmoveto
          14 36 -63 31 -61 32 -68 40 rlinecurve
          -9 -2 -20 -47 2 -8 69 -32 62 -27 64 -27 rlinecurve
          -54 -534 rmoveto
          1 41 223 413 rlineto
          -85 hlineto
          -15 -38 -153 -286 rlineto
          -8 hlineto
          -140 288 -13 36 rlineto
          -86 hlineto
          203 -410 1 -44 -5 -187 rlineto
          81 hlineto
          endchar
        </CharString>
        <CharString name="Yhookabove">
          107 21 -21 641 -20 229 44 hstemhm
          216.5 76.5 -25 49 hintmask 00000000
          hintmask 11101000
          242 850 rmoveto
          16 10 -7 -14 -17 -18 -25 -32 -23 hvcurveto
          32 -55 35 19 -20 34 rlineto
          36 30 16 21 24 vvcurveto
          32 -27 25 -36 -29 -32 -16 -26 -25 vhcurveto
          16 -26 rlineto
          16 19 22 8 17 hhcurveto
          hintmask 11110000
          49 -663 rmoveto
          1 41 223 413 rlineto
          -85 hlineto
          -15 -38 -153 -286 rlineto
          -8 hlineto
          -140 288 -13 36 rlineto
          -86 hlineto
          203 -410 1 -44 -5 -187 rlineto
          81 hlineto
          endchar
        </CharString>
        <CharString name="Ytilde">
          107 21 -21 641 -20 hstem
          216.5 76.5 vstem
          124 734 rmoveto
          9 hlineto
          25 25 16 22 15 hhcurveto
          26 88 -33 -4 41 hvcurveto
          10 3 61 69 rlineto
          8 vlineto
          -24 25 rlineto
          -8 hlineto
          -25 -26 -16 -21 -15 hhcurveto
          -25 -88 31 5 -42 hvcurveto
          -10 -3 -61 -69 rlineto
          -7 vlineto
          191 -573 rmoveto
          1 41 223 413 rlineto
          -85 hlineto
          -15 -38 -153 -286 rlineto
          -8 hlineto
          -140 288 -13 36 rlineto
          -86 hlineto
          203 -410 1 -44 -5 -187 rlineto
          81 hlineto
          endchar
        </CharString>
        <CharString name="Z">
          107 0 65 -46 -21 577 67 hstemhm
          31 461 hintmask 10110000
          486 582 rmoveto
          60 vlineto
          -49 -1 -388 1 -6 -68 5 -6 96 7 rlineto
          247 hlineto
          hintmask 01110000
          -360 -519 rlineto
          -59 vlineto
          hintmask 10110000
          57 3 rlineto
          281 hlineto
          116 -2 7 68 -4 6 -95 -7 rlineto
          -266 hlineto
          endchar
        </CharString>
        <CharString name="Zacute">
          107 0 65 -46 -21 577 67 hstemhm
          31 461 hintmask 10110000
          387 861 rmoveto
          -9 2 -68 -40 -61 -32 -63 -31 rlinecurve
          14 -36 10 -4 64 27 62 27 69 32 rlinecurve
          2 8 rlineto
          79 -232 rmoveto
          60 vlineto
          -49 -1 -388 1 -6 -68 5 -6 96 7 rlineto
          247 hlineto
          hintmask 01110000
          -360 -519 rlineto
          -59 vlineto
          hintmask 10110000
          57 3 rlineto
          281 hlineto
          116 -2 7 68 -4 6 -95 -7 rlineto
          -266 hlineto
          endchar
        </CharString>
        <CharString name="Zcaron">
          107 0 65 -46 -21 577 67 hstemhm
          31 461 hintmask 10110000
          382 848 rmoveto
          -10 hlineto
          -35 -22 -33 -21 -34 -23 -34 23 -33 21 -36 22 rrcurveto
          -9 hlineto
          -16 -34 41 -29 40 -30 36 -32 rlinecurve
          23 hlineto
          35 32 39 30 42 29 rrcurveto
          88 -232 rmoveto
          60 vlineto
          -49 -1 -388 1 -6 -68 5 -6 96 7 rlineto
          247 hlineto
          hintmask 01110000
          -360 -519 rlineto
          -59 vlineto
          hintmask 10110000
          57 3 rlineto
          281 hlineto
          116 -2 7 68 -4 6 -95 -7 rlineto
          -266 hlineto
          endchar
        </CharString>
        <CharString name="Zdotaccent">
          107 0 65 -46 -21 577 67 110 93 hstemhm
          224 91 hintmask 10111000
          271 845 rmoveto
          -29 -18 -19 -28 -29 16 -17 28 29 18 19 30 27 -17 17 -27 hvcurveto
          215 -263 rmoveto
          60 vlineto
          -49 -1 -388 1 -6 -68 5 -6 96 7 rlineto
          247 hlineto
          hintmask 01111000
          -360 -519 rlineto
          -59 vlineto
          hintmask 10111000
          57 3 rlineto
          281 hlineto
          116 -2 7 68 -4 6 -95 -7 rlineto
          -266 hlineto
          endchar
        </CharString>
        <CharString name="a">
          41 -7 66 350 57 hstemhm
          42 71 181.5 64.5 -61 73 hintmask 11101000
          231 466 rmoveto
          -57 -59 -21 -41 -55 hvcurveto
          10 -57 8 -4 rlineto
          45 52 44 21 45 hhcurveto
          50 29 -28 -53 hvcurveto
          -1 -65 -162 -38 rlineto
          -59 -14 -34 -32 -61 vvcurveto
          -77 52 -48 90 vhcurveto
          38 14 35 26 34 35 rrcurveto
          7 hlineto
          2 -44 26 -26 41 -4 rrcurveto
          hintmask 11110000
          20 2 20 8 17 10 8 45 rcurveline
          -8 7 rlineto
          -5 -16 -10 -1 -8 hhcurveto
          -23 -8 10 29 hvcurveto
          hintmask 11101000
          35 12 177 35 vvcurveto
          75 -54 45 -86 vhcurveto
          65 -254 rmoveto
          -3 -82 rlineto
          -45 -36 -37 -26 -39 hhcurveto
          -41 -27 26 44 29 13 12 25 7 hvcurveto
          endchar
        </CharString>
        <CharString name="a.sups">
          -101 332 51 -50 53 212 51 hstemhm
          34 64 100.5 67.5 hintmask 10111000
          165 649 rmoveto
          -39 -42 -15 -24 -36 hvcurveto
          9 -47 5 -2 rlineto
          25 36 30 12 25 hhcurveto
          32 16 -16 -31 hvcurveto
          -1 -37 -101 -19 rlineto
          -43 -8 -22 -25 -41 vvcurveto
          -54 34 -33 57 -2 vhcurveto
          26 6 27 18 22 25 rrcurveto
          3 hlineto
          hintmask 01111000
          -35 7 13 -13 29 hhcurveto
          17 12 5 10 13 hvcurveto
          8 40 -6 4 rlineto
          -5 -6 -8 -1 -5 hhcurveto
          -11 -6 8 19 hvcurveto
          16 6 116 19 vvcurveto
          hintmask 10111000
          54 -36 31 -65 vhcurveto
          34 -170 rmoveto
          -1 -60 rlineto
          -23 -19 -22 -13 -18 hhcurveto
          -26 -15 18 26 20 11 12 20 4 hvcurveto
          endchar
        </CharString>
        <CharString name="aacute">
          41 -7 66 350 57 188 -20 hstemhm
          42 71 181.5 63.5 -60 73 hintmask 11110100
          322 696 rmoveto
          -9 1 -56 -55 -53 -45 -55 -45 rlinecurve
          22 -32 9 -1 57 40 54 41 59 46 rlinecurve
          2 8 rlineto
          -121 -188 rmoveto
          -58 -58 -21 -41 -56 hvcurveto
          11 -57 8 -4 rlineto
          45 51 45 21 45 hhcurveto
          50 29 -28 -53 hvcurveto
          -1 -65 -162 -38 rlineto
          -59 -14 -34 -32 -61 vvcurveto
          -77 52 -48 90 vhcurveto
          hintmask 11111000
          38 14 35 26 34 35 rrcurveto
          6 hlineto
          3 -44 25 -26 42 -4 19 2 21 8 17 10 7 45 rcurveline
          -8 7 rlineto
          -5 -15 -10 -1 -8 hhcurveto
          -24 -8 10 29 hvcurveto
          hintmask 11110100
          35 13 177 35 vvcurveto
          75 -55 45 -85 vhcurveto
          65 -254 rmoveto
          -3 -82 rlineto
          -45 -37 -36 -26 -40 hhcurveto
          -40 -27 26 44 29 12 12 26 7 hvcurveto
          endchar
        </CharString>
        <CharString name="abreve">
          41 -7 66 350 57 61 57 58 -20 hstemhm
          42 71 181.5 63.5 -60 73 hintmask 11111010
          328 671 rmoveto
          -12 hlineto
          -59 -13 -30 -28 -49 hhcurveto
          -48 -31 28 59 -13 hvcurveto
          -12 hlineto
          -22 -29 rlineto
          -70 14 39 -45 71 hhcurveto
          72 40 43 72 17 hvcurveto
          -120 -176 rmoveto
          -58 -58 -21 -41 -56 hvcurveto
          11 -57 8 -4 rlineto
          45 51 45 21 45 hhcurveto
          50 29 -28 -53 hvcurveto
          -1 -65 -162 -38 rlineto
          -59 -14 -34 -32 -61 vvcurveto
          -77 52 -48 90 vhcurveto
          hintmask 11111100
          38 14 35 26 34 35 rrcurveto
          6 hlineto
          3 -44 25 -26 42 -4 19 2 21 8 17 10 7 45 rcurveline
          -8 7 rlineto
          -5 -15 -10 -1 -8 hhcurveto
          -24 -8 10 29 hvcurveto
          hintmask 11111010
          35 13 177 35 vvcurveto
          75 -55 45 -85 vhcurveto
          65 -254 rmoveto
          -3 -82 rlineto
          -45 -37 -36 -26 -40 hhcurveto
          -40 -27 26 44 29 12 12 26 7 hvcurveto
          endchar
        </CharString>
        <CharString name="abreveacute">
          41 -7 66 350 57 56 57 33 28 0 -20 hstemhm
          42 71 181.5 63.5 -60 73 hintmask 11101101
          315 741 rmoveto
          -37 26 -7 -1 -29 -38 -29 -35 -30 -36 rlinecurve
          28 -22 rlineto
          7 hlineto
          34 33 32 32 32 33 rrcurveto
          11 -93 rmoveto
          -12 hlineto
          -38 -15 -31 -23 -45 hhcurveto
          -47 -32 23 38 -14 hvcurveto
          -12 hlineto
          hintmask 11110101
          -22 -28 rlineto
          -58 18 44 -32 62 hhcurveto
          62 46 32 58 21 hvcurveto
          -119 -146 rmoveto
          -58 -58 -21 -41 -56 hvcurveto
          11 -57 8 -4 rlineto
          45 51 45 21 45 hhcurveto
          50 29 -28 -53 hvcurveto
          -1 -65 -162 -38 rlineto
          -59 -14 -34 -32 -61 vvcurveto
          -77 52 -48 90 vhcurveto
          hintmask 11101110
          38 14 35 26 34 35 rrcurveto
          6 hlineto
          3 -44 25 -26 42 -4 19 2 21 8 17 10 7 45 rcurveline
          -8 7 rlineto
          -5 -15 -10 -1 -8 hhcurveto
          -24 -8 10 29 hvcurveto
          hintmask 11101101
          35 13 177 35 vvcurveto
          hintmask 11110101
          75 -55 45 -85 vhcurveto
          65 -254 rmoveto
          -3 -82 rlineto
          -45 -37 -36 -26 -40 hhcurveto
          -40 -27 26 44 29 12 12 26 7 hvcurveto
          endchar
        </CharString>
        <CharString name="abrevedotbelow">
          41 -163 93 63 66 350 57 61 57 58 -20 hstemhm
          42 71 64 91 26.5 63.5 -60 73 hintmask 0111110010000000
          335 671 rmoveto
          -13 hlineto
          -59 -12 -31 -28 -49 hhcurveto
          -48 -31 28 59 -13 hvcurveto
          -12 hlineto
          -22 -29 rlineto
          -70 14 39 -45 71 hhcurveto
          72 40 43 72 17 hvcurveto
          -126 -176 rmoveto
          -58 -58 -21 -41 -56 hvcurveto
          11 -57 8 -4 rlineto
          45 51 45 21 45 hhcurveto
          50 29 -28 -53 hvcurveto
          -1 -65 -162 -38 rlineto
          -59 -14 -34 -32 -61 vvcurveto
          -77 52 -48 90 vhcurveto
          hintmask 0111110100000000
          38 14 35 26 34 35 rrcurveto
          6 hlineto
          3 -44 25 -26 42 -4 19 2 21 8 17 10 7 45 rcurveline
          -8 7 rlineto
          -5 -15 -10 -1 -8 hhcurveto
          -24 -8 10 29 hvcurveto
          hintmask 0111110010000000
          35 13 177 35 vvcurveto
          75 -55 45 -85 vhcurveto
          65 -254 rmoveto
          -3 -82 rlineto
          -45 -37 -36 -26 -40 hhcurveto
          -40 -27 26 44 29 12 12 26 7 hvcurveto
          hintmask 1111111010000000
          73 -247 rmoveto
          -29 -18 -19 -28 -29 16 -17 28 29 18 19 29 28 -17 17 -27 hvcurveto
          endchar
        </CharString>
        <CharString name="abrevegrave">
          41 -7 66 350 57 56 57 33 28 0 -20 hstemhm
          42 71 181.5 63.5 -60 73 hintmask 11101101
          165 767 rmoveto
          -37 -26 rlineto
          -8 vlineto
          32 -33 32 -32 33 -33 rrcurveto
          8 hlineto
          28 22 -31 36 -28 35 -29 38 rlinecurve
          154 -126 rmoveto
          -12 hlineto
          -38 -15 -31 -23 -45 hhcurveto
          -47 -32 23 38 -14 hvcurveto
          -12 hlineto
          hintmask 11110101
          -22 -28 rlineto
          -58 18 44 -32 62 hhcurveto
          62 46 32 58 21 hvcurveto
          -119 -146 rmoveto
          -58 -58 -21 -41 -56 hvcurveto
          11 -57 8 -4 rlineto
          45 51 45 21 45 hhcurveto
          50 29 -28 -53 hvcurveto
          -1 -65 -162 -38 rlineto
          -59 -14 -34 -32 -61 vvcurveto
          -77 52 -48 90 vhcurveto
          hintmask 11101110
          38 14 35 26 34 35 rrcurveto
          6 hlineto
          3 -44 25 -26 42 -4 19 2 21 8 17 10 7 45 rcurveline
          -8 7 rlineto
          -5 -15 -10 -1 -8 hhcurveto
          -24 -8 10 29 hvcurveto
          hintmask 11101101
          35 13 177 35 vvcurveto
          hintmask 11110101
          75 -55 45 -85 vhcurveto
          65 -254 rmoveto
          -3 -82 rlineto
          -45 -37 -36 -26 -40 hhcurveto
          -40 -27 26 44 29 12 12 26 7 hvcurveto
          endchar
        </CharString>
        <CharString name="abrevehookabove">
          41 -7 66 350 57 56 57 33 28 0 -20 30 -20 142 44 hstemhm
          42 71 125 49 7.5 63.5 -60 73 hintmask 0000000000000000
          hintmask 1110011110100000
          224 816 rmoveto
          -29 -32 -16 -26 -25 hvcurveto
          16 -26 rlineto
          16 19 22 8 17 hhcurveto
          16 10 -7 -14 -17 -18 -25 -32 -23 hvcurveto
          32 -55 35 19 -20 34 rlineto
          36 30 16 21 24 vvcurveto
          32 -27 25 -36 vhcurveto
          hintmask 1110101100100000
          103 -176 rmoveto
          -12 hlineto
          -38 -15 -31 -23 -45 hhcurveto
          -47 -32 23 38 -14 hvcurveto
          -12 hlineto
          hintmask 1111001100100000
          -22 -28 rlineto
          -58 18 44 -32 62 hhcurveto
          62 46 32 58 21 hvcurveto
          -119 -146 rmoveto
          -58 -58 -21 -41 -56 hvcurveto
          11 -57 8 -4 rlineto
          45 51 45 21 45 hhcurveto
          50 29 -28 -53 hvcurveto
          -1 -65 -162 -38 rlineto
          -59 -14 -34 -32 -61 vvcurveto
          -77 52 -48 90 vhcurveto
          hintmask 1110011101000000
          38 14 35 26 34 35 rrcurveto
          6 hlineto
          3 -44 25 -26 42 -4 19 2 21 8 17 10 7 45 rcurveline
          -8 7 rlineto
          -5 -15 -10 -1 -8 hhcurveto
          -24 -8 10 29 hvcurveto
          hintmask 1110011100100000
          35 13 177 35 vvcurveto
          hintmask 1111001100100000
          75 -55 45 -85 vhcurveto
          65 -254 rmoveto
          -3 -82 rlineto
          -45 -37 -36 -26 -40 hhcurveto
          -40 -27 26 44 29 12 12 26 7 hvcurveto
          endchar
        </CharString>
        <CharString name="abrevetilde">
          41 -7 66 350 57 57 56 139 55 hstemhm
          42 71 181.5 63.5 -60 73 hintmask 11111010
          374 760 rmoveto
          -22 24 rlineto
          -8 hlineto
          -25 -24 -15 -20 -14 hhcurveto
          -24 -82 31 4 -40 hvcurveto
          -9 -2 -57 -67 rlineto
          -8 vlineto
          23 -24 rlineto
          8 hlineto
          24 23 15 21 15 hhcurveto
          24 82 -32 -4 39 hvcurveto
          9 3 57 67 rlineto
          -47 -114 rmoveto
          -12 hlineto
          -38 -15 -31 -21 -44 hhcurveto
          -45 -32 21 38 -13 hvcurveto
          -12 hlineto
          -22 -27 rlineto
          -57 18 43 -31 61 hhcurveto
          60 45 31 57 20 hvcurveto
          -117 -145 rmoveto
          -58 -58 -21 -41 -56 hvcurveto
          11 -57 8 -4 rlineto
          45 51 45 21 45 hhcurveto
          50 29 -28 -53 hvcurveto
          -1 -65 -162 -38 rlineto
          -59 -14 -34 -32 -61 vvcurveto
          -77 52 -48 90 vhcurveto
          hintmask 11111100
          38 14 35 26 34 35 rrcurveto
          6 hlineto
          3 -44 25 -26 42 -4 19 2 21 8 17 10 7 45 rcurveline
          -8 7 rlineto
          -5 -15 -10 -1 -8 hhcurveto
          -24 -8 10 29 hvcurveto
          hintmask 11111010
          35 13 177 35 vvcurveto
          75 -55 45 -85 vhcurveto
          65 -254 rmoveto
          -3 -82 rlineto
          -45 -37 -36 -26 -40 hhcurveto
          -40 -27 26 44 29 12 12 26 7 hvcurveto
          endchar
        </CharString>
        <CharString name="acaron">
          41 -7 66 350 57 hstemhm
          42 71 181.5 63.5 -60 73 hintmask 11101000
          335 688 rmoveto
          -10 hlineto
          -37 -36 -34 -34 -31 -34 -30 34 -34 34 -38 36 rrcurveto
          -9 hlineto
          -22 -32 42 -41 40 -45 39 -48 rlinecurve
          24 hlineto
          43 51 40 44 39 39 rrcurveto
          -126 -190 rmoveto
          -58 -58 -21 -41 -56 hvcurveto
          11 -57 8 -4 rlineto
          45 51 45 21 45 hhcurveto
          50 29 -28 -53 hvcurveto
          -1 -65 -162 -38 rlineto
          -59 -14 -34 -32 -61 vvcurveto
          -77 52 -48 90 vhcurveto
          hintmask 11110000
          38 14 35 26 34 35 rrcurveto
          6 hlineto
          3 -44 25 -26 42 -4 19 2 21 8 17 10 7 45 rcurveline
          -8 7 rlineto
          -5 -15 -10 -1 -8 hhcurveto
          -24 -8 10 29 hvcurveto
          hintmask 11101000
          35 13 177 35 vvcurveto
          75 -55 45 -85 vhcurveto
          65 -254 rmoveto
          -3 -82 rlineto
          -45 -37 -36 -26 -40 hhcurveto
          -40 -27 26 44 29 12 12 26 7 hvcurveto
          endchar
        </CharString>
        <CharString name="acircumflex">
          41 -7 66 350 57 hstemhm
          42 71 181.5 63.5 -60 73 hintmask 11101000
          112 523 rmoveto
          10 hlineto
          37 36 34 34 31 34 30 -34 34 -34 38 -36 rrcurveto
          9 hlineto
          22 32 -42 41 -40 45 -39 48 rlinecurve
          -24 hlineto
          -43 -51 -40 -44 -39 -39 rrcurveto
          141 -89 rmoveto
          -58 -58 -21 -41 -56 hvcurveto
          11 -57 8 -4 rlineto
          45 51 45 21 45 hhcurveto
          50 29 -28 -53 hvcurveto
          -1 -65 -162 -38 rlineto
          -59 -14 -34 -32 -61 vvcurveto
          -77 52 -48 90 vhcurveto
          hintmask 11110000
          38 14 35 26 34 35 rrcurveto
          6 hlineto
          3 -44 25 -26 42 -4 19 2 21 8 17 10 7 45 rcurveline
          -8 7 rlineto
          -5 -15 -10 -1 -8 hhcurveto
          -24 -8 10 29 hvcurveto
          hintmask 11101000
          35 13 177 35 vvcurveto
          75 -55 45 -85 vhcurveto
          65 -254 rmoveto
          -3 -82 rlineto
          -45 -37 -36 -26 -40 hhcurveto
          -40 -27 26 44 29 12 12 26 7 hvcurveto
          endchar
        </CharString>
        <CharString name="acircumflexacute">
          41 -7 66 350 57 hstemhm
          42 71 181.5 63.5 -60 73 hintmask 11101000
          393 745 rmoveto
          -40 20 -7 -2 -70 -103 28 -23 rlineto
          8 hlineto
          82 100 rlineto
          -284 -206 rmoveto
          10 hlineto
          35 22 33 21 34 23 34 -23 33 -21 36 -22 rrcurveto
          9 hlineto
          16 34 -41 29 -40 30 -36 32 rlinecurve
          -23 hlineto
          -35 -32 -39 -30 -42 -29 rrcurveto
          137 -99 rmoveto
          -58 -58 -21 -41 -56 hvcurveto
          11 -57 8 -4 rlineto
          45 51 45 21 45 hhcurveto
          50 29 -28 -53 hvcurveto
          -1 -65 -162 -38 rlineto
          -59 -14 -34 -32 -61 vvcurveto
          -77 52 -48 90 vhcurveto
          hintmask 11110000
          38 14 35 26 34 35 rrcurveto
          6 hlineto
          3 -44 25 -26 42 -4 19 2 21 8 17 10 7 45 rcurveline
          -8 7 rlineto
          -5 -15 -10 -1 -8 hhcurveto
          -24 -8 10 29 hvcurveto
          hintmask 11101000
          35 13 177 35 vvcurveto
          75 -55 45 -85 vhcurveto
          65 -254 rmoveto
          -3 -82 rlineto
          -45 -37 -36 -26 -40 hhcurveto
          -40 -27 26 44 29 12 12 26 7 hvcurveto
          endchar
        </CharString>
        <CharString name="acircumflexdotbelow">
          41 -163 93 63 66 350 57 hstemhm
          42 71 64 91 26.5 63.5 -60 73 hintmask 11110010
          112 523 rmoveto
          10 hlineto
          37 36 34 34 31 34 30 -34 34 -34 38 -36 rrcurveto
          9 hlineto
          22 32 -42 41 -40 45 -39 48 rlinecurve
          -24 hlineto
          -43 -51 -40 -44 -39 -39 rrcurveto
          141 -89 rmoveto
          -58 -58 -21 -41 -56 hvcurveto
          11 -57 8 -4 rlineto
          45 51 45 21 45 hhcurveto
          50 29 -28 -53 hvcurveto
          -1 -65 -162 -38 rlineto
          -59 -14 -34 -32 -61 vvcurveto
          -77 52 -48 90 vhcurveto
          hintmask 11110100
          38 14 35 26 34 35 rrcurveto
          6 hlineto
          3 -44 25 -26 42 -4 19 2 21 8 17 10 7 45 rcurveline
          -8 7 rlineto
          -5 -15 -10 -1 -8 hhcurveto
          -24 -8 10 29 hvcurveto
          hintmask 11110010
          35 13 177 35 vvcurveto
          75 -55 45 -85 vhcurveto
          65 -254 rmoveto
          -3 -82 rlineto
          -45 -37 -36 -26 -40 hhcurveto
          -40 -27 26 44 29 12 12 26 7 hvcurveto
          hintmask 11111010
          73 -247 rmoveto
          -29 -18 -19 -28 -29 16 -17 28 29 18 19 29 28 -17 17 -27 hvcurveto
          endchar
        </CharString>
        <CharString name="acircumflexgrave">
          41 -7 66 350 57 hstemhm
          42 71 181.5 63.5 -60 73 hintmask 11101000
          291 763 rmoveto
          -7 2 -40 -20 -1 -8 81 -100 rlineto
          8 hlineto
          29 23 rlineto
          -251 -129 rmoveto
          10 hlineto
          35 22 33 21 34 23 34 -23 33 -21 36 -22 rrcurveto
          9 hlineto
          16 34 -41 29 -40 30 -36 32 rlinecurve
          -23 hlineto
          -35 -32 -39 -30 -42 -29 rrcurveto
          137 -99 rmoveto
          -58 -58 -21 -41 -56 hvcurveto
          11 -57 8 -4 rlineto
          45 51 45 21 45 hhcurveto
          50 29 -28 -53 hvcurveto
          -1 -65 -162 -38 rlineto
          -59 -14 -34 -32 -61 vvcurveto
          -77 52 -48 90 vhcurveto
          hintmask 11110000
          38 14 35 26 34 35 rrcurveto
          6 hlineto
          3 -44 25 -26 42 -4 19 2 21 8 17 10 7 45 rcurveline
          -8 7 rlineto
          -5 -15 -10 -1 -8 hhcurveto
          -24 -8 10 29 hvcurveto
          hintmask 11101000
          35 13 177 35 vvcurveto
          75 -55 45 -85 vhcurveto
          65 -254 rmoveto
          -3 -82 rlineto
          -45 -37 -36 -26 -40 hhcurveto
          -40 -27 26 44 29 12 12 26 7 hvcurveto
          endchar
        </CharString>
        <CharString name="acircumflexhookabove">
          41 -7 66 350 57 179 -20 136 41 hstemhm
          42 71 181.5 63.5 -60 73 -39 45 hintmask 00000000
          hintmask 11111001
          317 802 rmoveto
          -27 -30 -14 -25 -24 hvcurveto
          15 -25 rlineto
          15 18 21 8 16 hhcurveto
          15 11 -7 -13 -16 -18 -24 -30 -22 hvcurveto
          30 -52 33 18 -19 32 rlineto
          34 28 15 20 24 vvcurveto
          30 -25 23 -35 vhcurveto
          -207 -271 rmoveto
          10 hlineto
          35 22 33 21 34 23 34 -23 33 -21 36 -22 rrcurveto
          9 hlineto
          16 34 -41 29 -40 30 -36 32 rlinecurve
          -23 hlineto
          -35 -32 -39 -30 -42 -29 rrcurveto
          hintmask 11111010
          137 -99 rmoveto
          -58 -58 -21 -41 -56 hvcurveto
          11 -57 8 -4 rlineto
          45 51 45 21 45 hhcurveto
          50 29 -28 -53 hvcurveto
          -1 -65 -162 -38 rlineto
          -59 -14 -34 -32 -61 vvcurveto
          -77 52 -48 90 vhcurveto
          hintmask 11111100
          38 14 35 26 34 35 rrcurveto
          6 hlineto
          3 -44 25 -26 42 -4 19 2 21 8 17 10 7 45 rcurveline
          -8 7 rlineto
          -5 -15 -10 -1 -8 hhcurveto
          -24 -8 10 29 hvcurveto
          hintmask 11111010
          35 13 177 35 vvcurveto
          75 -55 45 -85 vhcurveto
          65 -254 rmoveto
          -3 -82 rlineto
          -45 -37 -36 -26 -40 hhcurveto
          -40 -27 26 44 29 12 12 26 7 hvcurveto
          endchar
        </CharString>
        <CharString name="acircumflextilde">
          41 -7 66 350 57 252 55 hstemhm
          42 71 181.5 63.5 -60 73 hintmask 11110100
          374 760 rmoveto
          -22 24 rlineto
          -8 hlineto
          -25 -24 -15 -20 -14 hhcurveto
          -24 -82 31 4 -40 hvcurveto
          -9 -2 -57 -67 rlineto
          -8 vlineto
          23 -24 rlineto
          8 hlineto
          24 23 15 21 15 hhcurveto
          24 82 -32 -4 39 hvcurveto
          9 3 57 67 rlineto
          -264 -221 rmoveto
          10 hlineto
          35 22 33 21 34 23 34 -23 33 -21 36 -22 rrcurveto
          9 hlineto
          16 34 -41 29 -40 30 -36 32 rlinecurve
          -23 hlineto
          -35 -32 -39 -30 -42 -29 rrcurveto
          137 -99 rmoveto
          -58 -58 -21 -41 -56 hvcurveto
          11 -57 8 -4 rlineto
          45 51 45 21 45 hhcurveto
          50 29 -28 -53 hvcurveto
          -1 -65 -162 -38 rlineto
          -59 -14 -34 -32 -61 vvcurveto
          -77 52 -48 90 vhcurveto
          hintmask 11111000
          38 14 35 26 34 35 rrcurveto
          6 hlineto
          3 -44 25 -26 42 -4 19 2 21 8 17 10 7 45 rcurveline
          -8 7 rlineto
          -5 -15 -10 -1 -8 hhcurveto
          -24 -8 10 29 hvcurveto
          hintmask 11110100
          35 13 177 35 vvcurveto
          75 -55 45 -85 vhcurveto
          65 -254 rmoveto
          -3 -82 rlineto
          -45 -37 -36 -26 -40 hhcurveto
          -40 -27 26 44 29 12 12 26 7 hvcurveto
          endchar
        </CharString>
        <CharString name="acute">
          -32 654 -20 hstem
          94 203 vstem
          267 696 rmoveto
          -9 1 -56 -55 -53 -45 -55 -45 rlinecurve
          22 -32 9 -1 57 40 54 41 59 46 rlinecurve
          2 8 rlineto
          endchar
        </CharString>
        <CharString name="acute.cap">
          -32 538 143 hstem
          84 221 vstem
          285 679 rmoveto
          -9 2 -68 -40 -61 -32 -63 -31 rlinecurve
          14 -36 10 -4 64 27 62 27 69 32 rlinecurve
          2 8 rlineto
          endchar
        </CharString>
        <CharString name="adieresis">
          41 -7 66 350 57 96 89 hstemhm
          42 71 -11 87 70 87 -51.5 63.5 -60 73 hintmask 00000000
          hintmask 11101100
          147 651 rmoveto
          -28 -17 -18 -27 -27 15 -17 27 28 17 19 28 26 -16 16 -26 hvcurveto
          157 hmoveto
          -28 -17 -18 -27 -27 15 -17 27 28 17 19 28 26 -16 16 -26 hvcurveto
          hintmask 11110001
          -73 -185 rmoveto
          -58 -58 -21 -41 -56 hvcurveto
          11 -57 8 -4 rlineto
          45 51 45 21 45 hhcurveto
          50 29 -28 -53 hvcurveto
          -1 -65 -162 -38 rlineto
          -59 -14 -34 -32 -61 vvcurveto
          -77 52 -48 90 vhcurveto
          hintmask 11110010
          38 14 35 26 34 35 rrcurveto
          6 hlineto
          3 -44 25 -26 42 -4 19 2 21 8 17 10 7 45 rcurveline
          -8 7 rlineto
          -5 -15 -10 -1 -8 hhcurveto
          -24 -8 10 29 hvcurveto
          hintmask 11110001
          35 13 177 35 vvcurveto
          75 -55 45 -85 vhcurveto
          65 -254 rmoveto
          -3 -82 rlineto
          -45 -37 -36 -26 -40 hhcurveto
          -40 -27 26 44 29 12 12 26 7 hvcurveto
          endchar
        </CharString>
        <CharString name="adotbelow">
          41 -163 93 63 66 350 57 hstemhm
          42 71 64 91 26.5 63.5 -60 73 hintmask 11110010
          231 466 rmoveto
          -58 -58 -21 -41 -56 hvcurveto
          11 -57 8 -4 rlineto
          45 51 45 21 45 hhcurveto
          50 29 -28 -53 hvcurveto
          -1 -65 -162 -38 rlineto
          -59 -14 -34 -32 -61 vvcurveto
          -77 52 -48 90 vhcurveto
          hintmask 11110100
          38 14 35 26 34 35 rrcurveto
          6 hlineto
          3 -44 25 -26 42 -4 19 2 21 8 17 10 7 45 rcurveline
          -8 7 rlineto
          -5 -15 -10 -1 -8 hhcurveto
          -24 -8 10 29 hvcurveto
          hintmask 11110010
          35 13 177 35 vvcurveto
          75 -55 45 -85 vhcurveto
          65 -254 rmoveto
          -3 -82 rlineto
          -45 -37 -36 -26 -40 hhcurveto
          -40 -27 26 44 29 12 12 26 7 hvcurveto
          hintmask 11111010
          73 -247 rmoveto
          -29 -18 -19 -28 -29 16 -17 28 29 18 19 29 28 -17 17 -27 hvcurveto
          endchar
        </CharString>
        <CharString name="ae">
          257 -8 60 -59 67 349 57 -55 54 hstemhm
          39 71 182 64 220 72 hintmask 10011110
          490 465 rmoveto
          -58 -53 -24 -47 -35 hvcurveto
          hintmask 01101110
          42 -16 -39 30 -65 hhcurveto
          -56 -57 -21 -41 -55 hvcurveto
          12 -57 8 -4 rlineto
          45 53 45 21 41 hhcurveto
          49 28 -28 -53 hvcurveto
          -73 vlineto
          -160 -27 rlineto
          -61 -10 -32 -40 -59 vvcurveto
          -79 57 -47 90 vhcurveto
          hintmask 10011110
          55 19 44 32 37 47 rrcurveto
          -64 32 56 -35 75 hhcurveto
          44 50 14 23 39 hvcurveto
          9 65 -8 4 rlineto
          -29 -38 -47 -17 -43 hhcurveto
          -85 -45 59 107 -5 hvcurveto
          283 48 9 11 rlineto
          126 4 -68 62 -94 hhcurveto
          -11 -54 rmoveto
          55 38 -37 -66 4 hvcurveto
          -220 -42 rlineto
          6 vlineto
          76 53 63 70 vhcurveto
          hintmask 01011110
          -298 -351 rmoveto
          -40 -31 22 45 28 13 19 38 7 hvcurveto
          131 26 1 -23 3 -21 4 -28 rlinecurve
          -56 -52 -29 -19 -38 hhcurveto
          endchar
        </CharString>
        <CharString name="aeacute">
          257 -8 60 -59 67 349 57 -55 54 189 -20 hstemhm
          39 71 182 64 220 72 hintmask 10011111
          292 520 rmoveto
          9 -1 57 40 54 41 59 46 rlinecurve
          2 8 -30 42 -9 1 -56 -55 -53 -45 -55 -45 rlinecurve
          220 -87 rmoveto
          -58 -53 -24 -47 -35 hvcurveto
          hintmask 01101111
          42 -16 -39 30 -65 hhcurveto
          -56 -57 -21 -41 -55 hvcurveto
          12 -57 7 -4 rlineto
          45 54 45 21 41 hhcurveto
          49 28 -28 -53 hvcurveto
          -73 vlineto
          -160 -27 rlineto
          -61 -10 -32 -40 -59 vvcurveto
          -79 56 -47 91 vhcurveto
          hintmask 10011111
          55 19 43 32 38 47 rrcurveto
          -64 31 57 -35 75 hhcurveto
          44 50 14 23 39 hvcurveto
          9 65 -9 4 rlineto
          -29 -37 -47 -17 -43 hhcurveto
          -85 -45 59 107 -5 hvcurveto
          283 48 8 11 rlineto
          1 hlineto
          126 4 -68 62 -94 hhcurveto
          -11 -54 rmoveto
          54 39 -37 -66 4 hvcurveto
          -220 -42 rlineto
          6 vlineto
          76 53 63 70 vhcurveto
          hintmask 01011111
          -298 -351 rmoveto
          -41 -30 22 45 28 13 19 38 7 hvcurveto
          131 26 1 -23 3 -21 4 -28 rlinecurve
          -56 -52 -30 -19 -37 hhcurveto
          endchar
        </CharString>
        <CharString name="agrave">
          41 -7 66 350 57 hstemhm
          42 71 181.5 63.5 -60 73 hintmask 11101000
          151 696 rmoveto
          -30 -42 2 -8 59 -46 54 -41 57 -40 rlinecurve
          9 1 22 32 -55 45 -53 45 -56 55 rlinecurve
          71 -231 rmoveto
          -58 -58 -21 -41 -56 hvcurveto
          11 -57 8 -4 rlineto
          45 51 45 21 45 hhcurveto
          50 29 -28 -53 hvcurveto
          -1 -65 -162 -38 rlineto
          -59 -14 -34 -32 -61 vvcurveto
          -77 52 -48 90 vhcurveto
          hintmask 11110000
          38 14 35 26 34 35 rrcurveto
          6 hlineto
          3 -44 25 -26 42 -4 19 2 21 8 17 10 7 45 rcurveline
          -8 7 rlineto
          -5 -15 -10 -1 -8 hhcurveto
          -24 -8 10 29 hvcurveto
          hintmask 11101000
          35 13 177 35 vvcurveto
          75 -55 45 -85 vhcurveto
          65 -254 rmoveto
          -3 -82 rlineto
          -45 -37 -36 -26 -40 hhcurveto
          -40 -27 26 44 29 12 12 26 7 hvcurveto
          endchar
        </CharString>
        <CharString name="ahookabove">
          41 -7 66 350 57 202 44 hstemhm
          42 71 120 49 12.5 63.5 -60 73 hintmask 00000000
          hintmask 11111010
          219 712 rmoveto
          -29 -32 -16 -26 -25 hvcurveto
          16 -26 rlineto
          16 19 22 8 17 hhcurveto
          16 10 -7 -14 -17 -18 -25 -32 -23 hvcurveto
          32 -55 35 19 -20 34 rlineto
          36 30 16 21 24 vvcurveto
          32 -27 25 -36 vhcurveto
          hintmask 11110010
          12 -246 rmoveto
          -58 -58 -21 -41 -56 hvcurveto
          11 -57 8 -4 rlineto
          45 51 45 21 45 hhcurveto
          50 29 -28 -53 hvcurveto
          -1 -65 -162 -38 rlineto
          -59 -14 -34 -32 -61 vvcurveto
          -77 52 -48 90 vhcurveto
          hintmask 11110100
          38 14 35 26 34 35 rrcurveto
          6 hlineto
          3 -44 25 -26 42 -4 19 2 21 8 17 10 7 45 rcurveline
          -8 7 rlineto
          -5 -15 -10 -1 -8 hhcurveto
          -24 -8 10 29 hvcurveto
          hintmask 11110010
          35 13 177 35 vvcurveto
          75 -55 45 -85 vhcurveto
          65 -254 rmoveto
          -3 -82 rlineto
          -45 -37 -36 -26 -40 hhcurveto
          -40 -27 26 44 29 12 12 26 7 hvcurveto
          endchar
        </CharString>
        <CharString name="amacron">
          41 -7 66 350 57 116 52 -46 -20 hstemhm
          42 71 181.5 63.5 -60 73 hintmask 11101010
          370 629 rmoveto
          -6 5 rlineto
          -283 hlineto
          hintmask 11011010
          -5 -46 6 -6 rlineto
          hintmask 11101010
          283 hlineto
          -134 -116 rmoveto
          -58 -58 -21 -41 -56 hvcurveto
          11 -57 8 -4 rlineto
          45 51 45 21 45 hhcurveto
          50 29 -28 -53 hvcurveto
          -1 -65 -162 -38 rlineto
          -59 -14 -34 -32 -61 vvcurveto
          -77 52 -48 90 vhcurveto
          hintmask 11101100
          38 14 35 26 34 35 rrcurveto
          6 hlineto
          3 -44 25 -26 42 -4 19 2 21 8 17 10 7 45 rcurveline
          -8 7 rlineto
          -5 -15 -10 -1 -8 hhcurveto
          -24 -8 10 29 hvcurveto
          hintmask 11101010
          35 13 177 35 vvcurveto
          75 -55 45 -85 vhcurveto
          65 -254 rmoveto
          -3 -82 rlineto
          -45 -37 -36 -26 -40 hhcurveto
          -40 -27 26 44 29 12 12 26 7 hvcurveto
          endchar
        </CharString>
        <CharString name="ampersand">
          273 -7 58 307 58 173 58 hstemhm
          60 68 -23 69 315 54 hintmask 11110100
          523 358 rmoveto
          154 hlineto
          7 51 -6 7 rlineto
          -286 hlineto
          -6 -52 5 -6 rlineto
          70 hlineto
          18 -36 10 -37 -43 vvcurveto
          -30 -5 -28 -10 -24 vhcurveto
          hintmask 11101100
          -235 210 rlineto
          -49 41 -16 32 41 vvcurveto
          66 41 39 79 45 43 -12 -25 41 vhcurveto
          11 hlineto
          19 59 rlineto
          24 -50 -53 12 -54 hhcurveto
          -124 -67 -61 -97 -55 21 -44 49 -47 hvcurveto
          -5 vlineto
          hintmask 11110100
          -74 -38 -41 -57 -74 vvcurveto
          -110 93 -66 133 87 67 27 48 44 vhcurveto
          117 -105 5 -1 17 9 15 12 13 14 rlinecurve
          6 vlineto
          -132 117 rlineto
          16 33 8 39 42 vvcurveto
          41 -7 37 -15 40 vhcurveto
          -227 -301 rmoveto
          -98 -68 48 82 56 32 44 52 29 hvcurveto
          228 -204 rlineto
          -35 -33 -49 -20 -64 hhcurveto
          endchar
        </CharString>
        <CharString name="ampersand.sc">
          347 -11 60 183 59 -24 59 124 55 206 -20 hstemhm
          43 69 192 53 189 59 hintmask 11011111
          807 353 rmoveto
          -10 -1 rlineto
          -43 -17 -26 -18 -39 hhcurveto
          hintmask 10111111
          -54 -121 35 -52 hhcurveto
          -52 -5 -30 -24 -25 -49 15 -44 rcurveline
          10 1 rlineto
          43 21 26 19 35 hhcurveto
          14 21 -3 -4 23 hvcurveto
          -128 -2 -98 -83 -133 hhcurveto
          -108 -65 57 89 -21 hvcurveto
          236 88 238 201 77 172 -6 22 -10 17 -16 16 rrcurveto
          -7 hlineto
          -54 -120 -101 -115 -123 -91 rrcurveto
          3 10 1 10 9 vvcurveto
          52 -42 39 -72 -112 -88 -99 -152 -162 99 -103 165 169 118 105 154 11 vhcurveto
          hintmask 11011111
          -8 42 42 -8 27 hhcurveto
          52 4 29 26 26 48 rrcurveto
          -582 140 rmoveto
          34 26 -14 -33 3 hvcurveto
          2 -21 -9 -32 -36 -26 -48 -28 -50 -25 -51 -19 rrcurveto
          12 vlineto
          112 52 74 77 vhcurveto
          endchar
        </CharString>
        <CharString name="aogonek">
          41 -197 55 135 66 -42 -21 413 57 hstemhm
          42 71 169 54 -41.5 63.5 -60 73 hintmask 00000000
          hintmask 11011100
          430 -107 rmoveto
          -4 hlineto
          -24 -19 -20 -11 -20 hhcurveto
          -18 -13 8 21 22 16 25 72 80 hvcurveto
          hintmask 11011010
          7 45 -8 7 rlineto
          -5 -15 -10 -1 -8 hhcurveto
          -24 -8 10 29 hvcurveto
          hintmask 11011001
          35 13 177 35 vvcurveto
          75 -55 45 -85 -58 -58 -21 -41 -56 vhcurveto
          11 -57 8 -4 rlineto
          45 51 45 21 45 hhcurveto
          50 29 -28 -53 hvcurveto
          -1 -65 -162 -38 rlineto
          -59 -14 -34 -32 -61 vvcurveto
          -77 52 -48 90 vhcurveto
          hintmask 10111010
          38 14 35 26 34 35 rrcurveto
          6 hlineto
          3 -40 21 -25 36 -7 rrcurveto
          hintmask 11011100
          -59 -63 -16 -27 -31 vvcurveto
          -45 33 -27 40 34 28 20 29 27 vhcurveto
          hintmask 11011001
          -148 360 rmoveto
          -3 -82 rlineto
          -45 -37 -36 -26 -40 hhcurveto
          -40 -27 26 44 29 12 12 26 7 hvcurveto
          endchar
        </CharString>
        <CharString name="approxequal">
          59 296 60 hstemhm
          63 381 hintmask 00000000
          hintmask 11000000
          162 343 rmoveto
          32 118 -43 -5 49 hvcurveto
          10 2 73 74 rlineto
          9 vlineto
          -22 27 rlineto
          -8 hlineto
          -30 -31 -20 -21 -17 hhcurveto
          -32 -118 42 7 -50 hvcurveto
          -10 -4 -73 -73 rlineto
          -9 vlineto
          22 -27 rlineto
          9 hlineto
          29 31 19 22 18 hhcurveto
          -167 vmoveto
          32 118 -42 -6 49 hvcurveto
          10 3 73 74 rlineto
          8 vlineto
          -22 28 rlineto
          -8 hlineto
          -30 -31 -20 -22 -17 hhcurveto
          -32 -118 42 8 -50 hvcurveto
          -10 -5 -73 -73 rlineto
          -9 vlineto
          22 -27 rlineto
          9 hlineto
          29 31 19 22 18 hhcurveto
          endchar
        </CharString>
        <CharString name="aring">
          41 -7 66 350 57 66 38 88 39 hstemhm
          42 71 25 38 91 39 -11.5 63.5 -60 73 hintmask 0000000000000000
          hintmask 1111011000000000
          223 697 rmoveto
          -53 -32 -33 -50 -53 35 -29 47 48 38 30 54 46 -29 35 -54 hvcurveto
          -2 -39 rmoveto
          31 15 -18 -27 -29 -19 -14 -26 -27 -19 15 30 27 16 16 29 hvcurveto
          hintmask 1111110010000000
          10 -192 rmoveto
          -58 -58 -21 -41 -56 hvcurveto
          11 -57 8 -4 rlineto
          45 51 45 21 45 hhcurveto
          50 29 -28 -53 hvcurveto
          -1 -65 -162 -38 rlineto
          -59 -14 -34 -32 -61 vvcurveto
          -77 52 -48 90 vhcurveto
          hintmask 1111010100000000
          38 14 35 26 34 35 rrcurveto
          6 hlineto
          3 -44 25 -26 42 -4 19 2 21 8 17 10 7 45 rcurveline
          -8 7 rlineto
          -5 -15 -10 -1 -8 hhcurveto
          -24 -8 10 29 hvcurveto
          hintmask 1111010010000000
          35 13 177 35 vvcurveto
          hintmask 1111110010000000
          75 -55 45 -85 vhcurveto
          65 -254 rmoveto
          -3 -82 rlineto
          -45 -37 -36 -26 -40 hhcurveto
          -40 -27 26 44 29 12 12 26 7 hvcurveto
          endchar
        </CharString>
        <CharString name="aringacute">
          41 -7 66 350 57 66 38 88 39 hstemhm
          42 71 25 38 91 39 -11.5 63.5 -60 73 hintmask 1111010010000000
          345 823 rmoveto
          -8 3 -73 -28 -66 -21 -68 -21 rlinecurve
          9 -38 8 -5 69 16 65 16 73 21 rlinecurve
          4 8 rlineto
          hintmask 1111011000000000
          -135 -77 rmoveto
          -53 -32 -33 -50 -53 35 -29 47 48 38 30 54 46 -29 35 -54 hvcurveto
          -2 -39 rmoveto
          31 15 -18 -27 -29 -19 -14 -26 -27 -19 15 30 27 16 16 29 hvcurveto
          hintmask 1111110010000000
          10 -192 rmoveto
          -58 -58 -21 -41 -56 hvcurveto
          11 -57 8 -4 rlineto
          45 51 45 21 45 hhcurveto
          50 29 -28 -53 hvcurveto
          -1 -65 -162 -38 rlineto
          -59 -14 -34 -32 -61 vvcurveto
          -77 52 -48 90 vhcurveto
          hintmask 1111010100000000
          38 14 35 26 34 35 rrcurveto
          6 hlineto
          3 -44 25 -26 42 -4 19 2 21 8 17 10 7 45 rcurveline
          -8 7 rlineto
          -5 -15 -10 -1 -8 hhcurveto
          -24 -8 10 29 hvcurveto
          hintmask 1111010010000000
          35 13 177 35 vvcurveto
          hintmask 1111110010000000
          75 -55 45 -85 vhcurveto
          65 -254 rmoveto
          -3 -82 rlineto
          -45 -37 -36 -26 -40 hhcurveto
          -40 -27 26 44 29 12 12 26 7 hvcurveto
          endchar
        </CharString>
        <CharString name="arrowdown">
          95 17 -21 464 -20 24 -20 hstemhm
          231 53.5 hintmask 10110000
          462 190 rmoveto
          -12 44 rlineto
          -13 hlineto
          -154 -149 rlineto
          hintmask 11010000
          3 375 rlineto
          hintmask 10110000
          -51 4 -6 -6 4 -372 -154 148 rlineto
          -12 hlineto
          -13 -44 198 -194 rlineto
          13 hlineto
          endchar
        </CharString>
        <CharString name="arrowdownleft">
          95 59.5 49 hstem
          99.5 49 vstem
          400 107 rmoveto
          -214 3 267 263 -34 39 rlineto
          -8 hlineto
          -261 -265 -3 213 -9 9 -40 -23 3 -277 9 -8 277 -3 22 40 rlineto
          endchar
        </CharString>
        <CharString name="arrowdownright">
          95 57 48.5 hstem
          366 49 vstem
          416 344 rmoveto
          -40 22 -8 -9 -4 -214 -263 268 -39 -34 rlineto
          -8 vlineto
          266 -262 -214 -3 -8 -9 22 -40 277 4 9 8 rlineto
          endchar
        </CharString>
        <CharString name="arrowleft">
          95 205 54 hstem
          23 467 vstem
          487 203 rmoveto
          3 52 -5 6 -373 -4 149 154 rlineto
          12 vlineto
          -45 13 -193 -199 rlineto
          -12 vlineto
          193 -197 45 12 rlineto
          12 vlineto
          -149 155 rlineto
          endchar
        </CharString>
        <CharString name="arrowright">
          95 206 54 hstem
          24 467 vstem
          491 240 rmoveto
          -193 197 -44 -12 rlineto
          -12 vlineto
          149 -155 -375 4 -4 -52 5 -6 373 4 -148 -154 rlineto
          -12 vlineto
          44 -13 193 199 rlineto
          endchar
        </CharString>
        <CharString name="arrowup">
          95 21 -21 468 -20 hstem
          231 53.5 vstem
          461 274 rmoveto
          -198 194 rlineto
          -12 hlineto
          -198 -194 13 -44 rlineto
          12 hlineto
          155 149 -4 -375 52 -4 5 6 -3 372 153 -148 rlineto
          13 hlineto
          endchar
        </CharString>
        <CharString name="arrowupleft">
          95 355.5 49 hstem
          99.5 49 vstem
          453 93 rmoveto
          -266 261 213 3 9 9 -23 40 -277 -3 -8 -9 -3 -276 40 -23 9 9 3 214 263 -267 40 34 rlineto
          endchar
        </CharString>
        <CharString name="arrowupright">
          95 358.5 49 hstem
          366.5 49 vstem
          417 120 rmoveto
          -3 278 -9 8 -276 3 -23 -40 9 -9 214 -3 -267 -263 34 -40 rlineto
          8 hlineto
          261 265 3 -212 9 -9 rlineto
          endchar
        </CharString>
        <CharString name="asciicircum">
          3 432 60 hstem
          20 384 vstem
          404 134 rmoveto
          -152 358 rlineto
          -66 hlineto
          -8 -5 -158 -357 46 -18 8 5 140 315 rlineto
          6 hlineto
          132 -317 46 11 rlineto
          endchar
        </CharString>
        <CharString name="asciitilde">
          59 210 60 hstemhm
          50 381 hintmask 00000000
          hintmask 11000000
          149 257 rmoveto
          32 117 -43 -5 50 hvcurveto
          10 2 73 74 rlineto
          9 vlineto
          -22 27 rlineto
          -8 hlineto
          -30 -32 -19 -21 -17 hhcurveto
          -32 -119 42 7 -49 hvcurveto
          -10 -4 -73 -73 rlineto
          -9 vlineto
          22 -27 rlineto
          9 hlineto
          29 31 19 22 18 hhcurveto
          endchar
        </CharString>
        <CharString name="asterisk">
          -47 595 -20 78 -20 hstem
          163 40 vstem
          225 727 rmoveto
          -3 6 rlineto
          -21 -20 -3 -6 -19 hvcurveto
          2 -114 5 -7 34 4 rlineto
          -54 -12 rmoveto
          -98 60 -7 -2 rlineto
          -7 -19 -1 -24 -18 vvcurveto
          101 -34 7 4 rlineto
          75 35 rmoveto
          -4 -9 15 -30 111 16 5 5 -6 19 -11 19 -10 16 rlinecurve
          -93 -96 rmoveto
          -10 2 -24 -22 46 -113 8 -1 16 12 15 14 10 18 rlinecurve
          -114 75 rmoveto
          -30 16 -83 -84 rlineto
          -6 vlineto
          18 -11 18 -11 19 -6 57 93 rcurveline
          endchar
        </CharString>
        <CharString name="at">
          404 -198 48 -8 8 142 83 -62 -21 25 -21 408 61 -4 -20 24 -20 116 53 hstemhm
          36 55 131 67 450 55 hintmask 1000100111110000
          794 299 rmoveto
          190 -132 125 -205 -253 -168 -177 -250 -237 167 -145 250 -3 vhcurveto
          hintmask 0100100111110000
          24 40 -2 8 rlineto
          hintmask 1000101011110000
          -232 -152 129 219 211 143 150 215 2 hvcurveto
          179 3 111 -107 -161 vvcurveto
          -138 -76 -87 -130 -16 vhcurveto
          2 55 50 351 -10 4 rlineto
          hintmask 1001000111110000
          -46 -23 -64 23 rlineto
          -5 hlineto
          -159 -24 -79 -151 -139 vvcurveto
          -80 27 -50 49 -29 vhcurveto
          15 hlineto
          59 56 55 75 47 80 rrcurveto
          10 hlineto
          hintmask 1000100111110000
          -29 -207 rlineto
          217 8 122 107 188 vvcurveto
          hintmask 1010010011110000
          -474 -224 rmoveto
          -13 -18 20 75 128 58 106 98 hvcurveto
          63 -22 -2 -25 -1 -6 rlineto
          -183 -79 -85 -93 -21 hhcurveto
          endchar
        </CharString>
        <CharString name="atilde">
          41 -7 66 350 57 188 -20 hstemhm
          42 71 181.5 63.5 -60 73 hintmask 11110100
          380 642 rmoveto
          -24 25 rlineto
          -8 hlineto
          -25 -26 -16 -21 -15 hhcurveto
          -25 -88 31 5 -42 hvcurveto
          -10 -3 -61 -69 rlineto
          -7 vlineto
          24 -26 rlineto
          9 hlineto
          25 25 16 22 15 hhcurveto
          26 88 -33 -4 41 hvcurveto
          10 3 61 69 rlineto
          -149 -168 rmoveto
          -58 -58 -21 -41 -56 hvcurveto
          11 -57 8 -4 rlineto
          45 51 45 21 45 hhcurveto
          50 29 -28 -53 hvcurveto
          -1 -65 -162 -38 rlineto
          -59 -14 -34 -32 -61 vvcurveto
          -77 52 -48 90 vhcurveto
          hintmask 11111000
          38 14 35 26 34 35 rrcurveto
          6 hlineto
          3 -44 25 -26 42 -4 19 2 21 8 17 10 7 45 rcurveline
          -8 7 rlineto
          -5 -15 -10 -1 -8 hhcurveto
          -24 -8 10 29 hvcurveto
          hintmask 11110100
          35 13 177 35 vvcurveto
          75 -55 45 -85 vhcurveto
          65 -254 rmoveto
          -3 -82 rlineto
          -45 -37 -36 -26 -40 hhcurveto
          -40 -27 26 44 29 12 12 26 7 hvcurveto
          endchar
        </CharString>
        <CharString name="b">
          91 -8 58 -40 -21 29 -21 401 65 232 7 0 -20 hstemhm
          87 74.5 233.5 75 hintmask 10010111
          292 463 rmoveto
          -48 -13 -33 -18 -45 -37 rrcurveto
          -6 hlineto
          3 307 rlineto
          hintmask 00111011
          -79 -7 6 -503 -7 -195 rlineto
          hintmask 01010111
          14 -8 rlineto
          hintmask 10010111
          55 25 rlineto
          -14 32 33 -8 33 hhcurveto
          137 83 90 161 138 -61 82 -117 hvcurveto
          -35 -413 rmoveto
          -31 -32 10 22 -33 hvcurveto
          -3 119 1 126 rlineto
          50 46 38 21 42 hhcurveto
          70 38 -60 -104 2 hvcurveto
          -124 2 -56 -60 -84 hhcurveto
          endchar
        </CharString>
        <CharString name="b.sups">
          -75 331 48 210 56 -47 -20 hstemhm
          50 70 128 67 hintmask 11011000
          199 645 rmoveto
          hintmask 10111000
          -29 -27 -20 -27 -23 hvcurveto
          -1 hlineto
          2 203 -72 -5 2 -332 -2 -123 7 -7 32 10 rlineto
          -8 26 28 -5 25 hhcurveto
          91 57 60 106 hvcurveto
          hintmask 11011000
          94 -43 54 -73 vhcurveto
          -36 -266 rmoveto
          -12 -16 3 6 -17 hvcurveto
          -1 86 1 87 rlineto
          18 19 20 10 22 hhcurveto
          45 24 -35 -64 -76 -32 -35 -53 hvcurveto
          endchar
        </CharString>
        <CharString name="backslash">
          -134 669 9 hstem
          6 265 vstem
          66 678 rmoveto
          -54 hlineto
          -6 -9 204 -782 rlineto
          56 hlineto
          5 8 rlineto
          endchar
        </CharString>
        <CharString name="bar">
          -107 -262 1059 hstem
          125 62 vstem
          188 792 rmoveto
          -5 5 -57 -4 -1 -510 rlineto
          -537 vlineto
          7 -8 55 3 rlineto
          547 vlineto
          endchar
        </CharString>
        <CharString name="braceleft">
          -133 -132 51 684 52 -7 -20 hstemhm
          45 79 -18 64 -44 65 hintmask 10101000
          221 655 rmoveto
          -75 -40 -39 -74 hvcurveto
          hintmask 10100100
          -58 20 -72 -44 vvcurveto
          -48 -25 -28 -56 -11 vhcurveto
          hintmask 10110000
          -41 vlineto
          hintmask 10100100
          56 -9 25 -29 -48 -45 -20 -71 -58 vvcurveto
          hintmask 10101000
          -74 40 -38 75 20 15 2 4 17 vhcurveto
          4 7 -8 43 rlineto
          -3 -14 -10 -2 -13 hhcurveto
          -42 -20 23 51 hvcurveto
          hintmask 10100100
          49 21 69 46 vvcurveto
          48 -23 35 -44 19 vhcurveto
          4 vlineto
          44 19 23 35 49 vvcurveto
          hintmask 11001000
          45 -21 70 49 vvcurveto
          50 20 23 42 13 10 -2 -3 14 vhcurveto
          hintmask 10101000
          8 43 -4 7 rlineto
          4 -17 -15 3 -20 hhcurveto
          endchar
        </CharString>
        <CharString name="braceright">
          -133 -132 51 685 51 hstemhm
          98 64 -44 64 -18 79 hintmask 11010000
          67 -132 rmoveto
          76 39 38 74 hvcurveto
          hintmask 11100000
          58 -20 72 44 vvcurveto
          48 26 29 55 10 vhcurveto
          hintmask 11001000
          41 vlineto
          hintmask 11100000
          -55 10 -26 28 49 44 20 71 58 vvcurveto
          hintmask 11010000
          74 -39 39 -76 -19 -16 -2 -5 -16 vhcurveto
          -4 -7 7 -42 rlineto
          3 14 10 2 13 hhcurveto
          42 20 -23 -51 hvcurveto
          hintmask 11100000
          -50 -20 -69 -46 vvcurveto
          -47 22 -36 44 -19 vhcurveto
          -4 vlineto
          -44 -19 -22 -34 -50 vvcurveto
          hintmask 11010000
          -44 20 -70 -49 vvcurveto
          -50 -20 -24 -42 -13 -10 2 3 -14 vhcurveto
          -7 -43 4 -7 rlineto
          -4 16 16 -2 19 hhcurveto
          endchar
        </CharString>
        <CharString name="bracketleft">
          -133 -124 43.5 678 49.5 hstem
          100 63 vstem
          282 641 rmoveto
          -5 6 -179 -10 4 -378 -4 -378 179 -10 5 5 rlineto
          38 vlineto
          -119 11 rlineto
          667 vlineto
          119 11 rlineto
          endchar
        </CharString>
        <CharString name="bracketright">
          -133 -124 44 678 49 hstem
          125 63.5 vstem
          7 -124 rmoveto
          5 -5 178 10 -3 378 3 378 -178 10 -5 -5 rlineto
          -39 vlineto
          118 -10 rlineto
          -667 vlineto
          -118 -12 rlineto
          endchar
        </CharString>
        <CharString name="breve">
          -32 527 57 58 -20 hstem
          69 253 vstem
          299 671 rmoveto
          -12 hlineto
          -59 -13 -30 -28 -49 hhcurveto
          -48 -31 28 59 -13 hvcurveto
          -12 hlineto
          -22 -29 rlineto
          -70 14 39 -45 71 hhcurveto
          72 40 43 72 17 hvcurveto
          endchar
        </CharString>
        <CharString name="breve.cap">
          -32 542 57 hstem
          69 253 vstem
          299 660 rmoveto
          -12 hlineto
          -38 -15 -31 -23 -45 hhcurveto
          -47 -32 23 38 -14 hvcurveto
          -12 hlineto
          -22 -28 rlineto
          -58 18 44 -32 62 hhcurveto
          62 46 32 58 21 hvcurveto
          endchar
        </CharString>
        <CharString name="breveacute">
          -32 522 57 33 28 0 -20 hstemhm
          69 253 hintmask 10110000
          287 741 rmoveto
          -37 26 -7 -1 -29 -38 -29 -35 -30 -36 rlinecurve
          27 -22 rlineto
          8 hlineto
          34 33 32 32 32 33 rrcurveto
          11 -93 rmoveto
          -12 hlineto
          -38 -15 -31 -23 -45 hhcurveto
          -47 -32 23 38 -14 hvcurveto
          -12 hlineto
          hintmask 11010000
          -22 -28 rlineto
          -58 18 44 -32 62 hhcurveto
          62 46 32 58 21 hvcurveto
          endchar
        </CharString>
        <CharString name="brevegrave">
          -32 522 57 33 28 0 -20 hstemhm
          69 253 hintmask 10110000
          137 767 rmoveto
          -37 -26 rlineto
          -8 vlineto
          32 -33 32 -32 33 -33 rrcurveto
          8 hlineto
          28 22 -31 36 -28 35 -29 38 rlinecurve
          154 -126 rmoveto
          -12 hlineto
          -38 -15 -31 -23 -45 hhcurveto
          -47 -32 23 38 -14 hvcurveto
          -12 hlineto
          hintmask 11010000
          -22 -28 rlineto
          -58 18 44 -32 62 hhcurveto
          62 46 32 58 21 hvcurveto
          endchar
        </CharString>
        <CharString name="brevehookabove">
          -32 522 57 33 28 0 -20 30 -20 142 43 hstemhm
          210 49 hintmask 10011100
          196 815 rmoveto
          -29 -32 -15 -26 -25 hvcurveto
          16 -26 rlineto
          16 19 22 8 17 hhcurveto
          16 10 -7 -14 -17 -18 -25 -32 -24 hvcurveto
          32 -54 35 19 -20 34 rlineto
          36 29 16 22 24 vvcurveto
          32 -27 24 -36 vhcurveto
          hintmask 10101100
          103 -175 rmoveto
          -12 hlineto
          -38 -15 -31 -23 -45 hhcurveto
          -47 -32 23 38 -14 hvcurveto
          -12 hlineto
          hintmask 11001100
          -22 -28 rlineto
          -58 18 44 -32 62 hhcurveto
          62 46 32 58 21 hvcurveto
          endchar
        </CharString>
        <CharString name="brevetilde">
          -32 522 57 hstem
          50 296 vstem
          346 760 rmoveto
          -23 25 rlineto
          -7 hlineto
          -25 -24 -15 -20 -15 hhcurveto
          -23 -82 30 5 -40 hvcurveto
          -9 -3 -58 -67 rlineto
          -7 vlineto
          23 -25 rlineto
          8 hlineto
          24 24 15 21 14 hhcurveto
          25 82 -31 -5 39 hvcurveto
          9 4 57 67 rlineto
          -47 -115 rmoveto
          -12 hlineto
          -38 -14 -31 -21 -44 hhcurveto
          -46 -32 21 38 -13 hvcurveto
          -12 hlineto
          -22 -27 rlineto
          -57 18 44 -32 60 hhcurveto
          60 46 32 57 20 hvcurveto
          endchar
        </CharString>
        <CharString name="brokenbar">
          -107 -262 1059 hstem
          125 62.5 vstem
          188 792 rmoveto
          -5 5 -58 -4 rlineto
          -421 vlineto
          7 -6 55 7 rlineto
          -222 vmoveto
          -7 9 -55 -7 rlineto
          -407 vlineto
          7 -8 55 3 rlineto
          endchar
        </CharString>
        <CharString name="bullet">
          -166 186 105 hstem
          75 103 vstem
          129 291 rmoveto
          -33 -21 -21 -32 -32 19 -20 31 32 21 22 33 31 -19 19 -30 hvcurveto
          endchar
        </CharString>
        <CharString name="bulletoperator">
          -166 187 104 hstem
          75 103 vstem
          128 291 rmoveto
          -33 -20 -21 -32 -32 18 -19 32 32 21 21 33 31 -19 19 -31 hvcurveto
          endchar
        </CharString>
        <CharString name="c">
          -36 -8 64 345 65 hstem
          42 75 vstem
          245 466 rmoveto
          -126 -77 -93 -147 -145 74 -89 121 42 45 11 15 35 hvcurveto
          9 67 -9 5 rlineto
          -21 -34 -42 -13 -36 hhcurveto
          -82 -48 67 107 108 47 63 78 37 37 -15 -19 29 hvcurveto
          9 3 14 69 rlineto
          16 -33 -48 11 -42 hhcurveto
          endchar
        </CharString>
        <CharString name="c.sups">
          -163 331 59 200 59 0 -20 hstemhm
          31 67 hintmask 11010000
          171 649 rmoveto
          -87 -53 -60 -102 -96 48 -60 80 31 29 9 10 25 hvcurveto
          7 55 -5 3 rlineto
          -11 -24 -25 -7 -22 hhcurveto
          -49 -28 37 66 62 27 35 46 22 22 -9 -12 19 hvcurveto
          7 3 rlineto
          hintmask 10110000
          13 55 rlineto
          hintmask 11010000
          12 -22 -31 10 -30 hhcurveto
          endchar
        </CharString>
        <CharString name="cacute">
          -36 -8 64 345 65 188 -20 hstem
          42 75 vstem
          336 696 rmoveto
          -9 1 -56 -55 -53 -45 -55 -45 rlinecurve
          22 -32 9 -1 57 40 54 41 59 46 rlinecurve
          2 8 rlineto
          -121 -188 rmoveto
          -127 -76 -93 -147 -145 74 -89 121 42 44 11 15 36 hvcurveto
          8 67 -8 5 rlineto
          -21 -34 -42 -13 -37 hhcurveto
          -81 -48 67 107 108 47 63 78 36 37 -15 -19 30 hvcurveto
          9 3 14 69 rlineto
          16 -33 -48 11 -42 hhcurveto
          endchar
        </CharString>
        <CharString name="caron">
          -32 522 166 hstem
          61 267 vstem
          306 688 rmoveto
          -10 hlineto
          -37 -36 -34 -34 -31 -34 -30 34 -34 34 -38 36 rrcurveto
          -9 hlineto
          -22 -32 42 -41 40 -45 39 -48 rlinecurve
          24 hlineto
          43 51 40 44 39 39 rrcurveto
          endchar
        </CharString>
        <CharString name="caron.alt">
          -32 510 -20 hstem
          165 42 vstem
          230 682 rmoveto
          -6 7 -57 -4 -4 -175 6 -6 38 6 rlineto
          endchar
        </CharString>
        <CharString name="caron.cap">
          -32 541 125 hstem
          67 256 vstem
          307 666 rmoveto
          -10 hlineto
          -35 -22 -33 -21 -34 -23 -34 23 -33 21 -36 22 rrcurveto
          -9 hlineto
          -16 -34 41 -29 40 -30 36 -32 rlinecurve
          23 hlineto
          35 32 39 30 42 29 rrcurveto
          endchar
        </CharString>
        <CharString name="ccaron">
          -36 -8 64 345 65 hstem
          42 75 vstem
          349 688 rmoveto
          -10 hlineto
          -37 -36 -34 -34 -31 -34 -30 34 -34 34 -38 36 rrcurveto
          -9 hlineto
          -22 -32 42 -41 40 -45 39 -48 rlinecurve
          24 hlineto
          43 51 40 44 39 39 rrcurveto
          -126 -190 rmoveto
          -127 -76 -93 -147 -145 74 -89 121 42 44 11 15 36 hvcurveto
          8 67 -8 5 rlineto
          -21 -34 -42 -13 -37 hhcurveto
          -81 -48 67 107 108 47 63 78 36 37 -15 -19 30 hvcurveto
          9 3 14 69 rlineto
          16 -33 -48 11 -42 hhcurveto
          endchar
        </CharString>
        <CharString name="ccedilla">
          -36 -193 41 144 64 345 65 hstem
          42 75 139 53 vstem
          246 56 rmoveto
          -81 -48 67 107 108 47 63 78 36 37 -15 -19 30 hvcurveto
          9 3 14 69 rlineto
          16 -33 -48 11 -42 hhcurveto
          -127 -76 -93 -147 -132 61 -85 102 -15 hvcurveto
          -18 -65 48 -29 rlineto
          12 -7 9 -6 -12 vvcurveto
          -17 -13 -10 -18 -25 -15 12 19 -17 vhcurveto
          -5 -1 -7 -40 rlineto
          -16 15 24 -15 33 hhcurveto
          48 33 27 39 22 -10 18 -28 16 hvcurveto
          -34 20 13 43 38 2 39 11 32 13 rlinecurve
          8 67 -8 5 rlineto
          -21 -34 -42 -13 -37 hhcurveto
          endchar
        </CharString>
        <CharString name="ccircumflex">
          -36 -8 64 345 65 hstem
          42 75 vstem
          126 523 rmoveto
          10 hlineto
          37 36 34 34 31 34 30 -34 34 -34 38 -36 rrcurveto
          9 hlineto
          22 32 -42 41 -40 45 -39 48 rlinecurve
          -24 hlineto
          -43 -51 -40 -44 -39 -39 rrcurveto
          141 -89 rmoveto
          -127 -76 -93 -147 -145 74 -89 121 42 44 11 15 36 hvcurveto
          8 67 -8 5 rlineto
          -21 -34 -42 -13 -37 hhcurveto
          -81 -48 67 107 108 47 63 78 36 37 -15 -19 30 hvcurveto
          9 3 14 69 rlineto
          16 -33 -48 11 -42 hhcurveto
          endchar
        </CharString>
        <CharString name="cdotaccent">
          -36 -8 64 345 65 104 93 hstem
          42 75 74 91 vstem
          238 663 rmoveto
          -29 -18 -19 -28 -29 16 -17 28 29 18 19 30 27 -17 17 -27 hvcurveto
          7 -197 rmoveto
          -127 -76 -93 -147 -145 74 -89 121 42 44 11 15 36 hvcurveto
          8 67 -8 5 rlineto
          -21 -34 -42 -13 -37 hhcurveto
          -81 -48 67 107 108 47 63 78 36 37 -15 -19 30 hvcurveto
          9 3 14 69 rlineto
          16 -33 -48 11 -42 hhcurveto
          endchar
        </CharString>
        <CharString name="cedilla">
          -32 -193 41 hstem
          219 53 vstem
          200 -51 rmoveto
          21 70 rlineto
          -46 hlineto
          -25 -90 48 -29 rlineto
          12 -7 9 -6 -12 vvcurveto
          -17 -13 -10 -18 -25 -15 12 19 -17 vhcurveto
          -5 -1 -7 -40 rlineto
          -16 15 24 -15 33 hhcurveto
          48 33 27 39 22 -10 18 -28 16 hvcurveto
          endchar
        </CharString>
        <CharString name="cent">
          -38 -119 7 148 54 361 20 34 -20 21 -20 158 8 hstemhm
          39 62 75 46.5 1 47 hintmask 0000000000000000
          hintmask 1111011010000000
          365 121 rmoveto
          -8 4 rlineto
          -21 -35 -44 -14 -39 hhcurveto
          -6 hlineto
          29 361 29 -5 28 -12 22 -15 rlinecurve
          9 1 12 51 -26 16 -35 13 -36 5 rlinecurve
          11 139 -8 8 rlineto
          -39 hlineto
          hintmask 1110111010000000
          -11 -146 rlineto
          -110 -8 -69 -90 -142 vvcurveto
          -121 54 -84 89 -20 vhcurveto
          hintmask 1110111100000000
          -12 -153 8 -7 rlineto
          38 hlineto
          13 155 rlineto
          hintmask 1110111010000000
          47 1 47 15 35 21 rrcurveto
          -257 199 rmoveto
          102 43 66 70 11 vhcurveto
          -27 -351 rlineto
          -55 23 -31 60 89 vvcurveto
          endchar
        </CharString>
        <CharString name="circle1">
          30 9 -21 476 -20 hstem
          -12 476 vstem
          226 464 rmoveto
          -131 -107 -107 -131 -131 107 -107 131 131 107 107 131 131 -107 107 -131 hvcurveto
          endchar
        </CharString>
        <CharString name="circle2">
          215 649 -20 hstem
          -13 663 vstem
          318 649 rmoveto
          -183 -148 -149 -183 -183 148 -148 183 183 149 148 183 183 -149 149 -183 hvcurveto
          endchar
        </CharString>
        <CharString name="circumflex">
          -32 523 166 hstem
          61 267 vstem
          83 523 rmoveto
          10 hlineto
          37 36 34 33 31 35 30 -35 34 -33 38 -36 rrcurveto
          9 hlineto
          22 32 -41 40 -41 46 -39 48 rlinecurve
          -24 hlineto
          -43 -51 -40 -44 -39 -39 rrcurveto
          endchar
        </CharString>
        <CharString name="circumflex.cap">
          -32 585 -20 hstem
          66 256 vstem
          82 551 rmoveto
          10 hlineto
          35 22 33 21 34 24 34 -24 34 -21 35 -22 rrcurveto
          9 hlineto
          16 34 -41 29 -40 30 -36 32 rlinecurve
          -23 hlineto
          -35 -32 -39 -30 -42 -29 rrcurveto
          endchar
        </CharString>
        <CharString name="circumflexacute">
          -32 531 234 hstem
          66 300 vstem
          365 745 rmoveto
          -39 20 -8 -2 -70 -103 28 -23 rlineto
          8 hlineto
          82 100 rlineto
          -284 -206 rmoveto
          10 hlineto
          35 22 33 21 34 24 34 -24 34 -21 35 -22 rrcurveto
          9 hlineto
          16 34 -41 29 -40 30 -36 32 rlinecurve
          -23 hlineto
          -35 -32 -39 -30 -42 -29 rrcurveto
          endchar
        </CharString>
        <CharString name="circumflexgrave">
          -32 531 234 hstem
          66 267 vstem
          263 763 rmoveto
          -7 2 -40 -20 -1 -8 82 -100 rlineto
          7 hlineto
          29 23 rlineto
          -251 -129 rmoveto
          10 hlineto
          35 22 33 21 34 24 34 -24 34 -21 35 -22 rrcurveto
          9 hlineto
          16 34 -41 29 -40 30 -36 32 rlinecurve
          -23 hlineto
          -35 -32 -39 -30 -42 -29 rrcurveto
          endchar
        </CharString>
        <CharString name="circumflexhookabove">
          -32 761 41 hstem
          303 46 vstem
          289 802 rmoveto
          -28 -29 -15 -25 -25 hvcurveto
          16 -24 rlineto
          15 18 21 8 16 hhcurveto
          15 10 -7 -13 -16 -17 -24 -30 -22 hvcurveto
          30 -52 33 17 -19 33 rlineto
          34 28 15 20 24 vvcurveto
          30 -26 23 -34 vhcurveto
          -207 -271 rmoveto
          10 hlineto
          35 22 33 21 34 24 34 -24 34 -21 35 -22 rrcurveto
          9 hlineto
          16 34 -41 29 -40 30 -36 32 rlinecurve
          -23 hlineto
          -35 -32 -39 -30 -42 -29 rrcurveto
          endchar
        </CharString>
        <CharString name="circumflextilde">
          -32 531 254 hstem
          50 296 vstem
          346 760 rmoveto
          -23 25 rlineto
          -7 hlineto
          -25 -24 -15 -20 -15 hhcurveto
          -23 -82 30 5 -40 hvcurveto
          -9 -3 -58 -67 rlineto
          -7 vlineto
          23 -25 rlineto
          8 hlineto
          24 24 15 21 14 hhcurveto
          25 82 -31 -5 39 hvcurveto
          9 4 57 67 rlineto
          -264 -222 rmoveto
          10 hlineto
          35 22 33 21 34 24 34 -24 34 -21 35 -22 rrcurveto
          9 hlineto
          16 34 -41 29 -40 30 -36 32 rlinecurve
          -23 hlineto
          -35 -32 -39 -30 -42 -29 rrcurveto
          endchar
        </CharString>
        <CharString name="colon">
          -192 -5 93 177 93 hstem
          65 91 vstem
          112 358 rmoveto
          -29 -18 -19 -29 -28 16 -17 28 29 18 19 29 28 -17 17 -27 hvcurveto
          -270 vmoveto
          -29 -18 -19 -28 -29 16 -17 28 29 18 19 29 28 -17 17 -27 hvcurveto
          endchar
        </CharString>
        <CharString name="comma">
          -192 -68 -21 hstem
          103 66 vstem
          127 87 rmoveto
          -20 -5 -19 -10 -16 -11 rrcurveto
          -8 vlineto
          20 -13 11 -16 -18 vvcurveto
          -30 -19 -30 -36 -28 vhcurveto
          -7 vlineto
          27 -25 rlineto
          63 46 31 45 43 vvcurveto
          28 -15 22 -27 17 vhcurveto
          endchar
        </CharString>
        <CharString name="commaaccent">
          -421 -243 188 hstem
          101 62 vstem
          124 -55 rmoveto
          -19 -5 -18 -9 -15 -11 rrcurveto
          -7 vlineto
          18 -12 11 -15 -17 vvcurveto
          -28 -18 -28 -34 -26 vhcurveto
          -7 vlineto
          26 -23 rlineto
          59 43 29 42 40 vvcurveto
          26 -14 21 -25 16 vhcurveto
          endchar
        </CharString>
</ttFont>
